<?xml version="1.0" encoding="UTF-8" standalone="no"?>
<!-- Created with Inkscape (http://www.inkscape.org/) -->

<svg
   xmlns:dc="http://purl.org/dc/elements/1.1/"
   xmlns:cc="http://creativecommons.org/ns#"
   xmlns:rdf="http://www.w3.org/1999/02/22-rdf-syntax-ns#"
   xmlns:svg="http://www.w3.org/2000/svg"
   xmlns="http://www.w3.org/2000/svg"
   xmlns:sodipodi="http://sodipodi.sourceforge.net/DTD/sodipodi-0.dtd"
   xmlns:inkscape="http://www.inkscape.org/namespaces/inkscape"
   id="svg2"
   version="1.1"
   inkscape:version="0.92.4 (5da689c313, 2019-01-14)"
   xml:space="preserve"
   width="150.29306"
   height="105.91328"
   viewBox="0 0 150.29306 105.91328"
   sodipodi:docname="Device.svg"><metadata
     id="metadata8"><rdf:RDF><cc:Work
         rdf:about=""><dc:format>image/svg+xml</dc:format><dc:type
           rdf:resource="http://purl.org/dc/dcmitype/StillImage" /><dc:title></dc:title></cc:Work></rdf:RDF></metadata><defs
     id="defs6"><marker
       inkscape:stockid="Arrow1Mstart"
       orient="auto"
       refY="0"
       refX="0"
       id="Arrow1Mstart"
       style="overflow:visible"
       inkscape:isstock="true"><path
         id="path898"
         d="M 0,0 5,-5 -12.5,0 5,5 Z"
         style="fill:#000000;fill-opacity:1;fill-rule:evenodd;stroke:#000000;stroke-width:1.00000003pt;stroke-opacity:1"
         transform="matrix(0.4,0,0,0.4,4,0)"
         inkscape:connector-curvature="0" /></marker><marker
       inkscape:isstock="true"
       style="overflow:visible"
       id="marker866"
       refX="0"
       refY="0"
       orient="auto"
       inkscape:stockid="Arrow2Mend"><path
         transform="scale(-0.6)"
         d="M 8.7185878,4.0337352 -2.2072895,0.01601326 8.7185884,-4.0017078 c -1.7454984,2.3720609 -1.7354408,5.6174519 -6e-7,8.035443 z"
         style="fill:#000000;fill-opacity:1;fill-rule:evenodd;stroke:#000000;stroke-width:0.625;stroke-linejoin:round;stroke-opacity:1"
         id="path864"
         inkscape:connector-curvature="0" /></marker><marker
       inkscape:isstock="true"
       style="overflow:visible"
       id="marker924"
       refX="0"
       refY="0"
       orient="auto"
       inkscape:stockid="Arrow1Mstart"><path
         inkscape:connector-curvature="0"
         transform="matrix(0.4,0,0,0.4,4,0)"
         style="fill:#000000;fill-opacity:1;fill-rule:evenodd;stroke:#000000;stroke-width:1.00000003pt;stroke-opacity:1"
         d="M 0,0 5,-5 -12.5,0 5,5 Z"
         id="path922" /></marker><marker
       inkscape:isstock="true"
       style="overflow:visible"
       id="marker878"
       refX="0"
       refY="0"
       orient="auto"
       inkscape:stockid="Arrow2Mend"><path
         inkscape:connector-curvature="0"
         transform="scale(-0.6)"
         d="M 8.7185878,4.0337352 -2.2072895,0.01601326 8.7185884,-4.0017078 c -1.7454984,2.3720609 -1.7354408,5.6174519 -6e-7,8.035443 z"
         style="fill:#000000;fill-opacity:1;fill-rule:evenodd;stroke:#000000;stroke-width:0.625;stroke-linejoin:round;stroke-opacity:1"
         id="path876" /></marker></defs><sodipodi:namedview
     pagecolor="#ffffff"
     bordercolor="#666666"
     borderopacity="1"
     objecttolerance="10"
     gridtolerance="10"
     guidetolerance="10"
     inkscape:pageopacity="0"
     inkscape:pageshadow="2"
     inkscape:window-width="1920"
     inkscape:window-height="1018"
     id="namedview4"
     showgrid="false"
     inkscape:zoom="4.6954446"
     inkscape:cx="30.919867"
     inkscape:cy="37.708246"
     inkscape:window-x="-8"
     inkscape:window-y="-8"
     inkscape:window-maximized="1"
     inkscape:current-layer="g10"
     fit-margin-top="0"
     fit-margin-left="0"
     fit-margin-right="0"
     fit-margin-bottom="0" /><g
     id="g10"
     inkscape:groupmode="layer"
     inkscape:label="ink_ext_XXXXXX"
     transform="matrix(1.25,0,0,-1.25,55.394602,124.67393)">




<path
   style="fill:none;fill-rule:evenodd;stroke:#000000;stroke-width:1.26046407;stroke-linecap:butt;stroke-linejoin:miter;stroke-miterlimit:4;stroke-dasharray:none;stroke-opacity:1"
   d="M 44.598915,15.863919 V 93.099918 L -38.572881,67.368496 -38.862536,15.778806 Z"
   id="path822"
   inkscape:connector-curvature="0"
   sodipodi:nodetypes="ccccc" /><path
   style="fill:none;fill-rule:evenodd;stroke:#000000;stroke-width:1.26046407px;stroke-linecap:butt;stroke-linejoin:miter;stroke-opacity:1"
   d="m -18.301284,83.166493 -4.123031,-1.31773 -2.985885,4.646715 0.456392,-9.592447 -5.111632,7.95486 0.413578,-8.692572 -3.289257,2.990478 -7.404168,-2.366386"
   id="path826"
   inkscape:connector-curvature="0"
   inkscape:transform-center-x="-11.711628"
   inkscape:transform-center-y="-15.708733" /><path
   style="fill:none;fill-rule:evenodd;stroke:#000000;stroke-width:6.30232;stroke-linecap:butt;stroke-linejoin:miter;stroke-miterlimit:4;stroke-dasharray:none;stroke-opacity:1"
   d="m -35.708272,68.822302 -5.605822,17.540013"
   id="path828"
   inkscape:connector-curvature="0"
   inkscape:transform-center-x="-0.22675664"
   inkscape:transform-center-y="-11.03612" />


<path
   sodipodi:type="star"
   style="opacity:1;fill:#cccccc;fill-opacity:1;fill-rule:nonzero;stroke:#000000;stroke-width:0.45354328;stroke-miterlimit:4;stroke-dasharray:none;stroke-dashoffset:0;stroke-opacity:1"
   id="path37"
   sodipodi:sides="7"
   sodipodi:cx="35.589752"
   sodipodi:cy="-37.801594"
   sodipodi:r1="11.373283"
   sodipodi:r2="9.7811928"
   sodipodi:arg1="-0.15037143"
   sodipodi:arg2="0.33174863"
   inkscape:flatsided="false"
   inkscape:rounded="0.5"
   inkscape:randomized="0"
   d="m 46.834694,-39.505373 c 0.308391,2.622734 -1.220642,2.365401 -1.997076,4.889483 -0.681062,2.21404 0.72531,2.897778 -0.904691,4.543657 -1.858257,1.876358 -2.610403,0.520467 -5.067908,1.487166 -2.155642,0.847955 -1.813351,2.373805 -4.11644,2.125607 -2.6256,-0.282954 -2.034477,-1.716388 -4.322502,-3.035017 -2.006979,-1.156657 -2.986521,0.06231 -4.228425,-1.893068 -1.415813,-2.229195 0.07345,-2.660769 -0.322164,-5.27177 -0.34702,-2.290283 -1.91078,-2.296107 -1.15632,-4.486224 0.86011,-2.496808 2.126069,-1.601536 3.92077,-3.538773 1.574252,-1.69928 0.603817,-2.925508 2.786518,-3.701163 2.488352,-0.884272 2.577713,0.663686 5.211283,0.858993 2.310081,0.171316 2.663729,-1.351941 4.631052,-0.12905 2.242814,1.394137 1.088287,2.429139 2.577595,4.609919 1.306371,1.912908 2.717797,1.239665 2.988308,3.54024 z"
   transform="matrix(0.99380855,-0.11110606,-0.11110606,-0.99380855,-48.623409,54.786287)"
   inkscape:transform-center-x="-0.42109374"
   inkscape:transform-center-y="0.15538692" /><text
   xml:space="preserve"
   style="font-style:normal;font-variant:normal;font-weight:normal;font-stretch:normal;font-size:9.60000038px;line-height:125%;font-family:'Times New Roman';-inkscape-font-specification:'Times New Roman, ';letter-spacing:0px;word-spacing:0px;fill:#000000;fill-opacity:1;stroke:none;stroke-width:0.80000001px;stroke-linecap:butt;stroke-linejoin:miter;stroke-opacity:1"
   x="51.693768"
   y="-51.20639"
   id="text1007-2"
   transform="scale(1,-1)"><tspan
     sodipodi:role="line"
     id="tspan1009-3"
     x="51.693768"
     y="-51.20639"
     style="font-style:normal;stroke-width:0.80000001px">100 m</tspan></text>
<path
   style="fill:none;fill-rule:evenodd;stroke:#000000;stroke-width:0.40000001;stroke-linecap:butt;stroke-linejoin:miter;stroke-miterlimit:4;stroke-dasharray:none;stroke-opacity:1;marker-start:url(#marker924);marker-end:url(#marker878)"
   d="M 50.331934,92.702523 V 15.613252"
   id="path868"
   inkscape:connector-curvature="0"
   sodipodi:nodetypes="cc" /></g></svg>