<?xml version="1.0" encoding="UTF-8" standalone="no"?>
<!-- Created with Inkscape (http://www.inkscape.org/) -->

<svg
   xmlns:dc="http://purl.org/dc/elements/1.1/"
   xmlns:cc="http://creativecommons.org/ns#"
   xmlns:rdf="http://www.w3.org/1999/02/22-rdf-syntax-ns#"
   xmlns:svg="http://www.w3.org/2000/svg"
   xmlns="http://www.w3.org/2000/svg"
   xmlns:sodipodi="http://sodipodi.sourceforge.net/DTD/sodipodi-0.dtd"
   xmlns:inkscape="http://www.inkscape.org/namespaces/inkscape"
   width="126.59571mm"
   height="35.349586mm"
   viewBox="0 0 126.59571 35.349586"
   version="1.1"
   id="svg8"
   inkscape:version="0.92.4 (5da689c313, 2019-01-14)"
   sodipodi:docname="Vel.svg">
  <defs
     id="defs2">
    <clipPath
       id="clipPath833"
       clipPathUnits="userSpaceOnUse">
      <path
         inkscape:connector-curvature="0"
         id="path831"
         d="M 0,1386.53 V 0 h 3981.82 v 1386.53 z" />
    </clipPath>
    <clipPath
       id="clipPath1007"
       clipPathUnits="userSpaceOnUse">
      <path
         inkscape:connector-curvature="0"
         id="path1005"
         d="M 3507.3,0 H 0 v 71.9883 h 3507.3 z" />
    </clipPath>
    <linearGradient
       id="linearGradient1013"
       spreadMethod="pad"
       gradientTransform="matrix(-3.1e-6,71.006,71.006,3.1e-6,1753.67,1.00009)"
       gradientUnits="userSpaceOnUse"
       y2="0"
       x2="1"
       y1="0"
       x1="0">
      <stop
         id="stop1009"
         offset="0"
         style="stop-opacity:1;stop-color:#ffffff" />
      <stop
         id="stop1011"
         offset="1"
         style="stop-opacity:1;stop-color:#a7a5a6" />
    </linearGradient>
    <clipPath
       id="clipPath1023"
       clipPathUnits="userSpaceOnUse">
      <path
         inkscape:connector-curvature="0"
         id="path1021"
         d="M 0,1386.53 V 0 h 3981.82 v 1386.53 z" />
    </clipPath>
    <clipPath
       id="clipPath1217"
       clipPathUnits="userSpaceOnUse">
      <path
         inkscape:connector-curvature="0"
         id="path1215"
         d="M 0,0 H 50.4453 V 84.6875 H 0 Z" />
    </clipPath>
    <pattern
       id="pattern1229"
       height="8.46875"
       width="5.04492"
       y="0"
       x="0"
       patternUnits="userSpaceOnUse"
       patternTransform="matrix(-9.68745,2.48146,-2.48146,-9.68745,-25.1133,53.0391)">
      <g
         id="g1227"
         transform="scale(0.1)">
        <g
           id="g1225">
          <g
             id="g1223"
             clip-path="url(#clipPath1217)">
            <path
               id="path1219"
               style="fill:#ffffff;fill-opacity:1;fill-rule:nonzero;stroke:none"
               d="m 35.5273,44.1406 c 5,16.5235 9.5899,27.2657 14.9219,40.5469 L 0,84.6875 C 2.24609,79.9219 9.92188,60.6641 14.9023,44.1406 20.2539,26.4453 23.9258,10.3906 25.2148,0 c 1.3086,10.3906 4.961,26.4453 10.3125,44.1406" />
            <path
               id="path1221"
               style="fill:#231f20;fill-opacity:1;fill-rule:nonzero;stroke:none"
               d="m 30.3828,56.25 c 2.5,8.2617 4.793,13.6328 7.461,20.2734 l -25.2266,0 C 13.7383,74.1406 17.5781,64.5117 20.0703,56.25 22.7422,47.4023 24.582,39.375 25.2227,34.1797 25.8789,39.375 27.707,47.4023 30.3828,56.25" />
          </g>
        </g>
      </g>
    </pattern>
    <clipPath
       id="clipPath1251"
       clipPathUnits="userSpaceOnUse">
      <path
         inkscape:connector-curvature="0"
         id="path1249"
         d="M 0,0 H 50.4453 V 84.6875 H 0 Z" />
    </clipPath>
    <pattern
       id="pattern1263"
       height="8.46875"
       width="5.04492"
       y="0"
       x="0"
       patternUnits="userSpaceOnUse"
       patternTransform="matrix(9.68745,2.48146,2.48146,-9.68745,33,36.0391)">
      <g
         id="g1261"
         transform="scale(0.1)">
        <g
           id="g1259">
          <g
             id="g1257"
             clip-path="url(#clipPath1251)">
            <path
               id="path1253"
               style="fill:#ffffff;fill-opacity:1;fill-rule:nonzero;stroke:none"
               d="m 35.5273,44.1406 c 5,16.5235 9.5899,27.2657 14.9219,40.5469 L 0,84.6875 C 2.24609,79.9219 9.92188,60.6641 14.9023,44.1406 20.2539,26.4453 23.9258,10.3906 25.2148,0 c 1.3086,10.3906 4.961,26.4453 10.3125,44.1406" />
            <path
               id="path1255"
               style="fill:#231f20;fill-opacity:1;fill-rule:nonzero;stroke:none"
               d="m 30.3828,56.25 c 2.5,8.2617 4.793,13.6328 7.461,20.2734 l -25.2266,0 C 13.7383,74.1406 17.5781,64.5117 20.0703,56.25 22.7422,47.4023 24.582,39.375 25.2227,34.1797 25.8789,39.375 27.707,47.4023 30.3828,56.25" />
          </g>
        </g>
      </g>
    </pattern>
    <clipPath
       id="clipPath1353"
       clipPathUnits="userSpaceOnUse">
      <path
         inkscape:connector-curvature="0"
         id="path1351"
         d="M 0,0 H 50.4453 V 84.6875 H 0 Z" />
    </clipPath>
    <pattern
       id="pattern1365"
       height="8.46875"
       width="5.04492"
       y="0"
       x="0"
       patternUnits="userSpaceOnUse"
       patternTransform="matrix(-9.68745,2.48146,-2.48146,-9.68745,-25.1133,53.0391)">
      <g
         id="g1363"
         transform="scale(0.1)">
        <g
           id="g1361">
          <g
             id="g1359"
             clip-path="url(#clipPath1353)">
            <path
               id="path1355"
               style="fill:#ffffff;fill-opacity:1;fill-rule:nonzero;stroke:none"
               d="m 35.5273,44.1406 c 5,16.5235 9.5899,27.2657 14.9219,40.5469 L 0,84.6875 C 2.24609,79.9219 9.92188,60.6641 14.9023,44.1406 20.2539,26.4453 23.9258,10.3906 25.2148,0 c 1.3086,10.3906 4.961,26.4453 10.3125,44.1406" />
            <path
               id="path1357"
               style="fill:#231f20;fill-opacity:1;fill-rule:nonzero;stroke:none"
               d="m 30.3828,56.25 c 2.5,8.2617 4.793,13.6328 7.461,20.2734 l -25.2266,0 C 13.7383,74.1406 17.5781,64.5117 20.0703,56.25 22.7422,47.4023 24.582,39.375 25.2227,34.1797 25.8789,39.375 27.707,47.4023 30.3828,56.25" />
          </g>
        </g>
      </g>
    </pattern>
    <clipPath
       id="clipPath1387"
       clipPathUnits="userSpaceOnUse">
      <path
         inkscape:connector-curvature="0"
         id="path1385"
         d="M 0,0 H 50.4453 V 84.6875 H 0 Z" />
    </clipPath>
    <pattern
       id="pattern1399"
       height="8.46875"
       width="5.04492"
       y="0"
       x="0"
       patternUnits="userSpaceOnUse"
       patternTransform="matrix(9.68745,2.48146,2.48146,-9.68745,33,36.0391)">
      <g
         id="g1397"
         transform="scale(0.1)">
        <g
           id="g1395">
          <g
             id="g1393"
             clip-path="url(#clipPath1387)">
            <path
               id="path1389"
               style="fill:#ffffff;fill-opacity:1;fill-rule:nonzero;stroke:none"
               d="m 35.5273,44.1406 c 5,16.5235 9.5899,27.2657 14.9219,40.5469 L 0,84.6875 C 2.24609,79.9219 9.92188,60.6641 14.9023,44.1406 20.2539,26.4453 23.9258,10.3906 25.2148,0 c 1.3086,10.3906 4.961,26.4453 10.3125,44.1406" />
            <path
               id="path1391"
               style="fill:#231f20;fill-opacity:1;fill-rule:nonzero;stroke:none"
               d="m 30.3828,56.25 c 2.5,8.2617 4.793,13.6328 7.461,20.2734 l -25.2266,0 C 13.7383,74.1406 17.5781,64.5117 20.0703,56.25 22.7422,47.4023 24.582,39.375 25.2227,34.1797 25.8789,39.375 27.707,47.4023 30.3828,56.25" />
          </g>
        </g>
      </g>
    </pattern>
    <clipPath
       id="clipPath1537"
       clipPathUnits="userSpaceOnUse">
      <path
         inkscape:connector-curvature="0"
         id="path1535"
         d="M 0,1015.75 V 0 h 3588.54 v 1015.75 z" />
    </clipPath>
    <clipPath
       id="clipPath1707"
       clipPathUnits="userSpaceOnUse">
      <path
         inkscape:connector-curvature="0"
         id="path1705"
         d="M 3588.54,0 H 81.2344 V 71.9883 H 3588.54 Z" />
    </clipPath>
    <linearGradient
       id="linearGradient1713"
       spreadMethod="pad"
       gradientTransform="matrix(-1.0936112e-7,-2.504934,2.504934,-1.0936112e-7,73.24882,288.93749)"
       gradientUnits="userSpaceOnUse"
       y2="0"
       x2="1"
       y1="0"
       x1="0">
      <stop
         id="stop1709"
         offset="0"
         style="stop-opacity:1;stop-color:#ffffff" />
      <stop
         id="stop1711"
         offset="1"
         style="stop-opacity:1;stop-color:#a7a5a6" />
    </linearGradient>
    <clipPath
       id="clipPath1723"
       clipPathUnits="userSpaceOnUse">
      <path
         inkscape:connector-curvature="0"
         id="path1721"
         d="M 0,1015.75 V 0 h 3588.54 v 1015.75 z" />
    </clipPath>
  </defs>
  <sodipodi:namedview
     id="base"
     pagecolor="#ffffff"
     bordercolor="#666666"
     borderopacity="1.0"
     inkscape:pageopacity="0.0"
     inkscape:pageshadow="2"
     inkscape:zoom="0.7"
     inkscape:cx="-109.23741"
     inkscape:cy="220.27591"
     inkscape:document-units="mm"
     inkscape:current-layer="layer1"
     showgrid="false"
     inkscape:window-width="1920"
     inkscape:window-height="1018"
     inkscape:window-x="-8"
     inkscape:window-y="-8"
     inkscape:window-maximized="1"
     fit-margin-top="0"
     fit-margin-left="0"
     fit-margin-right="0"
     fit-margin-bottom="0" />
  <metadata
     id="metadata5">
    <rdf:RDF>
      <cc:Work
         rdf:about="">
        <dc:format>image/svg+xml</dc:format>
        <dc:type
           rdf:resource="http://purl.org/dc/dcmitype/StillImage" />
        <dc:title></dc:title>
      </cc:Work>
    </rdf:RDF>
  </metadata>
  <g
     inkscape:label="Layer 1"
     inkscape:groupmode="layer"
     id="layer1"
     transform="translate(-8.5176216,-253.62283)">
    <path
       inkscape:connector-curvature="0"
       id="path1539"
       style="fill:#d3d2d2;fill-opacity:1;fill-rule:nonzero;stroke:none;stroke-width:0.03527778"
       d="m 129.5444,286.43283 h -3.41137 v -22.13528 l 3.41137,-0.9423 v 23.07758" />
    <path
       inkscape:connector-curvature="0"
       id="path1541"
       style="fill:none;stroke:#231f20;stroke-width:0.26458335;stroke-linecap:butt;stroke-linejoin:miter;stroke-miterlimit:4;stroke-dasharray:none;stroke-opacity:1"
       d="m 129.5444,286.43283 h -3.41137 v -22.13528 l 3.41137,-0.9423 z" />
    <path
       inkscape:connector-curvature="0"
       id="path1543"
       style="fill:#d3d2d2;fill-opacity:1;fill-rule:nonzero;stroke:none;stroke-width:0.03527778"
       d="M 20.811787,286.43283 H 24.22312 V 274.54341 H 20.811787 Z" />
    <path
       inkscape:connector-curvature="0"
       id="path1545"
       style="fill:none;stroke:#231f20;stroke-width:0.26458335;stroke-linecap:butt;stroke-linejoin:miter;stroke-miterlimit:4;stroke-dasharray:none;stroke-opacity:1"
       d="M 20.811787,286.43283 H 24.22312 V 274.54341 H 20.811787 Z" />
    <path
       inkscape:connector-curvature="0"
       id="path1547"
       style="fill:#d3d2d2;fill-opacity:1;fill-rule:nonzero;stroke:none;stroke-width:0.03527778"
       d="m 78.995218,286.43283 h 3.411333 v -11.88942 h -3.411333 z" />
    <path
       inkscape:connector-curvature="0"
       id="path1549"
       style="fill:none;stroke:#231f20;stroke-width:0.26458335;stroke-linecap:butt;stroke-linejoin:miter;stroke-miterlimit:4;stroke-dasharray:none;stroke-opacity:1"
       d="m 78.995218,286.43283 h 3.411333 v -11.88942 h -3.411333 z" />
    <path
       inkscape:connector-curvature="0"
       id="path1551"
       style="fill:#d3d2d2;fill-opacity:1;fill-rule:nonzero;stroke:none;stroke-width:0.03527778"
       d="m 96.32331,286.43283 h -3.411008 v -13.23371 l 3.411008,-0.9139 v 14.14761" />
    <path
       inkscape:connector-curvature="0"
       id="path1553"
       style="fill:none;stroke:#231f20;stroke-width:0.26458335;stroke-linecap:butt;stroke-linejoin:miter;stroke-miterlimit:4;stroke-dasharray:none;stroke-opacity:1"
       d="m 96.32331,286.43283 h -3.411008 v -13.23371 l 3.411008,-0.9139 z" />
    <path
       inkscape:connector-curvature="0"
       id="path1555"
       style="fill:#d3d2d2;fill-opacity:1;fill-rule:nonzero;stroke:none;stroke-width:0.03527778"
       d="m 15.52012,274.54338 h 72.177985 v -1.50412 H 15.52012 Z" />
    <path
       inkscape:connector-curvature="0"
       id="path1557"
       style="fill:none;stroke:#231f20;stroke-width:0.26458335;stroke-linecap:butt;stroke-linejoin:miter;stroke-miterlimit:4;stroke-dasharray:none;stroke-opacity:1"
       d="m 15.52012,274.54338 h 72.177985 v -1.50412 H 15.52012 Z" />
    <path
       inkscape:connector-curvature="0"
       id="path1559"
       style="fill:#a7a5a6;fill-opacity:1;fill-rule:nonzero;stroke:none;stroke-width:0.03527778"
       d="m 16.222924,277.88377 c 0.184644,-0.18715 0.273403,-0.55231 0.280846,-0.80479 -0.254106,0.33968 -0.584023,0.63598 -0.983086,0.80479 0.399063,0.15614 0.714093,0.47085 0.983086,0.79787 -0.02233,-0.26804 -0.08876,-0.59877 -0.280846,-0.79787" />
    <path
       inkscape:connector-curvature="0"
       id="path1561"
       style="fill:none;stroke:#a7a5a6;stroke-width:0.1763889;stroke-linecap:butt;stroke-linejoin:miter;stroke-miterlimit:4;stroke-dasharray:none;stroke-opacity:1"
       d="M 16.50377,277.88377 H 16.048616" />
    <path
       inkscape:connector-curvature="0"
       id="path1563"
       style="fill:none;stroke:#a7a5a6;stroke-width:0.1763889;stroke-linecap:butt;stroke-linejoin:miter;stroke-miterlimit:4;stroke-dasharray:none;stroke-opacity:1"
       d="m 15.520684,279.47127 v -3.175" />
    <path
       inkscape:connector-curvature="0"
       id="path1565"
       style="fill:none;stroke:#a7a5a6;stroke-width:0.1763889;stroke-linecap:butt;stroke-linejoin:miter;stroke-miterlimit:4;stroke-dasharray:none;stroke-opacity:1"
       d="m 16.50377,277.88334 h 3.191263" />
    <path
       inkscape:connector-curvature="0"
       id="path1567"
       style="fill:none;stroke:#a7a5a6;stroke-width:0.1763889;stroke-linecap:butt;stroke-linejoin:miter;stroke-miterlimit:4;stroke-dasharray:none;stroke-opacity:1"
       d="m 19.695033,277.88334 h 3.191405" />
    <path
       inkscape:connector-curvature="0"
       id="path1569"
       style="fill:none;stroke:#a7a5a6;stroke-width:0.1763889;stroke-linecap:butt;stroke-linejoin:miter;stroke-miterlimit:4;stroke-dasharray:none;stroke-opacity:1"
       d="m 22.886438,277.88334 h 3.19151" />
    <path
       inkscape:connector-curvature="0"
       id="path1571"
       style="fill:none;stroke:#a7a5a6;stroke-width:0.1763889;stroke-linecap:butt;stroke-linejoin:miter;stroke-miterlimit:4;stroke-dasharray:none;stroke-opacity:1"
       d="m 26.077948,277.88334 h 3.191404" />
    <path
       inkscape:connector-curvature="0"
       id="path1573"
       style="fill:none;stroke:#a7a5a6;stroke-width:0.1763889;stroke-linecap:butt;stroke-linejoin:miter;stroke-miterlimit:4;stroke-dasharray:none;stroke-opacity:1"
       d="m 29.269352,277.88334 h 3.191264" />
    <path
       inkscape:connector-curvature="0"
       id="path1575"
       style="fill:none;stroke:#a7a5a6;stroke-width:0.1763889;stroke-linecap:butt;stroke-linejoin:miter;stroke-miterlimit:4;stroke-dasharray:none;stroke-opacity:1"
       d="M 32.460616,277.88334 H 35.65202" />
    <path
       inkscape:connector-curvature="0"
       id="path1577"
       style="fill:none;stroke:#a7a5a6;stroke-width:0.1763889;stroke-linecap:butt;stroke-linejoin:miter;stroke-miterlimit:4;stroke-dasharray:none;stroke-opacity:1"
       d="m 35.65202,277.88334 h 3.191545" />
    <path
       inkscape:connector-curvature="0"
       id="path1579"
       style="fill:none;stroke:#a7a5a6;stroke-width:0.1763889;stroke-linecap:butt;stroke-linejoin:miter;stroke-miterlimit:4;stroke-dasharray:none;stroke-opacity:1"
       d="M 38.843565,277.88334 H 42.03497" />
    <path
       inkscape:connector-curvature="0"
       id="path1581"
       style="fill:none;stroke:#a7a5a6;stroke-width:0.1763889;stroke-linecap:butt;stroke-linejoin:miter;stroke-miterlimit:4;stroke-dasharray:none;stroke-opacity:1"
       d="m 42.03497,277.88334 h 3.191298" />
    <path
       inkscape:connector-curvature="0"
       id="path1583"
       style="fill:none;stroke:#a7a5a6;stroke-width:0.1763889;stroke-linecap:butt;stroke-linejoin:miter;stroke-miterlimit:4;stroke-dasharray:none;stroke-opacity:1"
       d="m 45.226268,277.88334 h 3.191581" />
    <path
       inkscape:connector-curvature="0"
       id="path1585"
       style="fill:none;stroke:#a7a5a6;stroke-width:0.1763889;stroke-linecap:butt;stroke-linejoin:miter;stroke-miterlimit:4;stroke-dasharray:none;stroke-opacity:1"
       d="m 48.417849,277.88334 h 3.191228" />
    <path
       inkscape:connector-curvature="0"
       id="path1587"
       style="fill:none;stroke:#a7a5a6;stroke-width:0.1763889;stroke-linecap:butt;stroke-linejoin:miter;stroke-miterlimit:4;stroke-dasharray:none;stroke-opacity:1"
       d="m 51.609077,277.88334 h 3.191581" />
    <path
       inkscape:connector-curvature="0"
       id="path1589"
       style="fill:none;stroke:#a7a5a6;stroke-width:0.1763889;stroke-linecap:butt;stroke-linejoin:miter;stroke-miterlimit:4;stroke-dasharray:none;stroke-opacity:1"
       d="m 54.800658,277.88334 h 3.191228" />
    <path
       inkscape:connector-curvature="0"
       id="path1591"
       style="fill:none;stroke:#a7a5a6;stroke-width:0.1763889;stroke-linecap:butt;stroke-linejoin:miter;stroke-miterlimit:4;stroke-dasharray:none;stroke-opacity:1"
       d="m 57.991886,277.88334 h 3.191581" />
    <path
       inkscape:connector-curvature="0"
       id="path1593"
       style="fill:none;stroke:#a7a5a6;stroke-width:0.1763889;stroke-linecap:butt;stroke-linejoin:miter;stroke-miterlimit:4;stroke-dasharray:none;stroke-opacity:1"
       d="m 61.183467,277.88334 h 3.191228" />
    <path
       inkscape:connector-curvature="0"
       id="path1595"
       style="fill:none;stroke:#a7a5a6;stroke-width:0.1763889;stroke-linecap:butt;stroke-linejoin:miter;stroke-miterlimit:4;stroke-dasharray:none;stroke-opacity:1"
       d="m 64.374695,277.88334 h 3.19158" />
    <path
       inkscape:connector-curvature="0"
       id="path1597"
       style="fill:none;stroke:#a7a5a6;stroke-width:0.1763889;stroke-linecap:butt;stroke-linejoin:miter;stroke-miterlimit:4;stroke-dasharray:none;stroke-opacity:1"
       d="m 67.566275,277.88334 h 3.191228" />
    <path
       inkscape:connector-curvature="0"
       id="path1599"
       style="fill:none;stroke:#a7a5a6;stroke-width:0.1763889;stroke-linecap:butt;stroke-linejoin:miter;stroke-miterlimit:4;stroke-dasharray:none;stroke-opacity:1"
       d="m 70.757503,277.88334 h 3.191581" />
    <path
       inkscape:connector-curvature="0"
       id="path1601"
       style="fill:none;stroke:#a7a5a6;stroke-width:0.1763889;stroke-linecap:butt;stroke-linejoin:miter;stroke-miterlimit:4;stroke-dasharray:none;stroke-opacity:1"
       d="m 73.949084,277.88334 h 3.191228" />
    <path
       inkscape:connector-curvature="0"
       id="path1603"
       style="fill:none;stroke:#a7a5a6;stroke-width:0.1763889;stroke-linecap:butt;stroke-linejoin:miter;stroke-miterlimit:4;stroke-dasharray:none;stroke-opacity:1"
       d="m 77.140312,277.88334 h 3.191581" />
    <path
       inkscape:connector-curvature="0"
       id="path1605"
       style="fill:none;stroke:#a7a5a6;stroke-width:0.1763889;stroke-linecap:butt;stroke-linejoin:miter;stroke-miterlimit:4;stroke-dasharray:none;stroke-opacity:1"
       d="m 80.331893,277.88334 h 3.191228" />
    <path
       inkscape:connector-curvature="0"
       id="path1607"
       style="fill:none;stroke:#a7a5a6;stroke-width:0.1763889;stroke-linecap:butt;stroke-linejoin:miter;stroke-miterlimit:4;stroke-dasharray:none;stroke-opacity:1"
       d="m 83.523121,277.88334 h 3.191581" />
    <path
       inkscape:connector-curvature="0"
       id="path1609"
       style="fill:#a7a5a6;fill-opacity:1;fill-rule:nonzero;stroke:none;stroke-width:0.03527778"
       d="m 86.994807,277.88377 c -0.184503,-0.18715 -0.27305,-0.55231 -0.280105,-0.80479 0.253294,0.33968 0.583847,0.63598 0.982838,0.80479 -0.398991,0.15614 -0.71508,0.47085 -0.982838,0.79787 0.02117,-0.26804 0.08784,-0.59877 0.280105,-0.79787" />
    <path
       inkscape:connector-curvature="0"
       id="path1611"
       style="fill:none;stroke:#a7a5a6;stroke-width:0.1763889;stroke-linecap:butt;stroke-linejoin:miter;stroke-miterlimit:4;stroke-dasharray:none;stroke-opacity:1"
       d="m 86.714702,277.88377 h 0.455083" />
    <path
       inkscape:connector-curvature="0"
       id="path1613"
       style="fill:none;stroke:#a7a5a6;stroke-width:0.1763889;stroke-linecap:butt;stroke-linejoin:miter;stroke-miterlimit:4;stroke-dasharray:none;stroke-opacity:1"
       d="m 87.69754,279.47127 v -3.175" />
    <path
       inkscape:connector-curvature="0"
       id="path1615"
       style="fill:#ffffff;fill-opacity:1;fill-rule:nonzero;stroke:none;stroke-width:0.03527778"
       d="m 47.299191,279.72343 h 9.017741 v -3.84333 h -9.017741 z" />
    <text
       style="font-variant:normal;font-weight:normal;font-size:3.52777791px;font-family:'Times New Roman';-inkscape-font-specification:TimesNewRomanPSMT;writing-mode:lr-tb;fill:#231f20;fill-opacity:1;fill-rule:nonzero;stroke:none;stroke-width:0.35277781"
       id="text1621"
       x="47.59129"
       y="278.96964">
      <tspan
         x="47.59129 49.355179 50.237125 52.001015 52.882957"
         y="278.96964"
         sodipodi:role="line"
         id="tspan1619"
         style="stroke-width:0.35277781">1.0 m</tspan>
    </text>
    <text
       style="font-style:italic;font-variant:normal;font-size:3.52777791px;font-family:'Times New Roman';-inkscape-font-specification:TimesNewRomanPS-ItalicMT;writing-mode:lr-tb;fill:#231f20;fill-opacity:1;fill-rule:nonzero;stroke:none;stroke-width:0.35277781"
       id="text1625"
       x="86.690712"
       y="270.51398">
      <tspan
         x="86.690712 50.383881 14.299299"
         y="270.51398"
         sodipodi:role="line"
         id="tspan1623"
         style="stroke-width:0.35277781">BCD</tspan>
    </text>
    <path
       inkscape:connector-curvature="0"
       id="path1627"
       style="fill:#d3d2d2;fill-opacity:1;fill-rule:nonzero;stroke:none;stroke-width:0.03527778"
       d="m 131.66106,262.81627 -43.5737,11.67571 -0.389114,-1.4527 43.573704,-11.67543 0.38911,1.45242" />
    <path
       inkscape:connector-curvature="0"
       id="path1629"
       style="fill:none;stroke:#231f20;stroke-width:0.26458335;stroke-linecap:butt;stroke-linejoin:miter;stroke-miterlimit:4;stroke-dasharray:none;stroke-opacity:1"
       d="m 131.66106,262.81627 -43.5737,11.67571 -0.389114,-1.4527 43.573704,-11.67543 z" />
    <path
       inkscape:connector-curvature="0"
       id="path1631"
       style="fill:#a7a5a6;fill-opacity:1;fill-rule:nonzero;stroke:none;stroke-width:0.03527778"
       d="m 89.619474,277.53995 c 0.12453,-0.22712 0.113594,-0.60223 0.05503,-0.8479 -0.150283,0.39176 -0.383116,0.76108 -0.714022,1.02429 0.414867,0.0505 0.791633,0.27559 1.128889,0.52363 -0.09031,-0.25312 -0.237772,-0.55602 -0.4699,-0.70002" />
    <path
       inkscape:connector-curvature="0"
       id="path1633"
       style="fill:none;stroke:#a7a5a6;stroke-width:0.1763889;stroke-linecap:butt;stroke-linejoin:miter;stroke-miterlimit:4;stroke-dasharray:none;stroke-opacity:1"
       d="m 89.882646,277.46939 -0.426508,0.11437" />
    <path
       inkscape:connector-curvature="0"
       id="path1635"
       style="fill:none;stroke:#a7a5a6;stroke-width:0.1763889;stroke-linecap:butt;stroke-linejoin:miter;stroke-miterlimit:4;stroke-dasharray:none;stroke-opacity:1"
       d="m 89.371118,279.24969 -0.821266,-3.0667" />
    <path
       inkscape:connector-curvature="0"
       id="path1637"
       style="fill:none;stroke:#a7a5a6;stroke-width:0.1763889;stroke-linecap:butt;stroke-linejoin:miter;stroke-miterlimit:4;stroke-dasharray:none;stroke-opacity:1"
       d="m 89.882646,277.46897 2.994378,-0.80229" />
    <path
       inkscape:connector-curvature="0"
       id="path1639"
       style="fill:none;stroke:#a7a5a6;stroke-width:0.1763889;stroke-linecap:butt;stroke-linejoin:miter;stroke-miterlimit:4;stroke-dasharray:none;stroke-opacity:1"
       d="m 92.877024,276.66668 2.993673,-0.80218" />
    <path
       inkscape:connector-curvature="0"
       id="path1641"
       style="fill:none;stroke:#a7a5a6;stroke-width:0.1763889;stroke-linecap:butt;stroke-linejoin:miter;stroke-miterlimit:4;stroke-dasharray:none;stroke-opacity:1"
       d="m 95.870697,275.8645 2.994025,-0.80229" />
    <path
       inkscape:connector-curvature="0"
       id="path1643"
       style="fill:none;stroke:#a7a5a6;stroke-width:0.1763889;stroke-linecap:butt;stroke-linejoin:miter;stroke-miterlimit:4;stroke-dasharray:none;stroke-opacity:1"
       d="m 98.864722,275.06221 2.993668,-0.80242" />
    <path
       inkscape:connector-curvature="0"
       id="path1645"
       style="fill:none;stroke:#a7a5a6;stroke-width:0.1763889;stroke-linecap:butt;stroke-linejoin:miter;stroke-miterlimit:4;stroke-dasharray:none;stroke-opacity:1"
       d="m 101.85839,274.25979 2.99368,-0.80187" />
    <path
       inkscape:connector-curvature="0"
       id="path1647"
       style="fill:none;stroke:#a7a5a6;stroke-width:0.1763889;stroke-linecap:butt;stroke-linejoin:miter;stroke-miterlimit:4;stroke-dasharray:none;stroke-opacity:1"
       d="m 104.85207,273.45792 2.99402,-0.80243" />
    <path
       inkscape:connector-curvature="0"
       id="path1649"
       style="fill:none;stroke:#a7a5a6;stroke-width:0.1763889;stroke-linecap:butt;stroke-linejoin:miter;stroke-miterlimit:4;stroke-dasharray:none;stroke-opacity:1"
       d="m 107.84609,272.65549 2.99438,-0.80204" />
    <path
       inkscape:connector-curvature="0"
       id="path1651"
       style="fill:none;stroke:#a7a5a6;stroke-width:0.1763889;stroke-linecap:butt;stroke-linejoin:miter;stroke-miterlimit:4;stroke-dasharray:none;stroke-opacity:1"
       d="m 110.84047,271.85345 2.99367,-0.80242" />
    <path
       inkscape:connector-curvature="0"
       id="path1653"
       style="fill:none;stroke:#a7a5a6;stroke-width:0.1763889;stroke-linecap:butt;stroke-linejoin:miter;stroke-miterlimit:4;stroke-dasharray:none;stroke-opacity:1"
       d="m 113.83414,271.05103 2.99367,-0.80229" />
    <path
       inkscape:connector-curvature="0"
       id="path1655"
       style="fill:none;stroke:#a7a5a6;stroke-width:0.1763889;stroke-linecap:butt;stroke-linejoin:miter;stroke-miterlimit:4;stroke-dasharray:none;stroke-opacity:1"
       d="m 116.82781,270.24874 2.99403,-0.80201" />
    <path
       inkscape:connector-curvature="0"
       id="path1657"
       style="fill:none;stroke:#a7a5a6;stroke-width:0.1763889;stroke-linecap:butt;stroke-linejoin:miter;stroke-miterlimit:4;stroke-dasharray:none;stroke-opacity:1"
       d="m 119.82184,269.44673 2.99367,-0.80243" />
    <path
       inkscape:connector-curvature="0"
       id="path1659"
       style="fill:#a7a5a6;fill-opacity:1;fill-rule:nonzero;stroke:none;stroke-width:0.03527778"
       d="m 123.07868,268.57442 c -0.22119,-0.13437 -0.39899,-0.4651 -0.47131,-0.70693 0.32597,0.26416 0.71261,0.46715 1.13066,0.53012 -0.33338,0.25096 -0.54893,0.63475 -0.71579,1.01783 -0.049,-0.2643 -0.0723,-0.60057 0.0564,-0.84102" />
    <path
       inkscape:connector-curvature="0"
       id="path1661"
       style="fill:none;stroke:#a7a5a6;stroke-width:0.1763889;stroke-linecap:butt;stroke-linejoin:miter;stroke-miterlimit:4;stroke-dasharray:none;stroke-opacity:1"
       d="m 122.81622,268.64469 0.42651,-0.11437" />
    <path
       inkscape:connector-curvature="0"
       id="path1663"
       style="fill:none;stroke:#a7a5a6;stroke-width:0.1763889;stroke-linecap:butt;stroke-linejoin:miter;stroke-miterlimit:4;stroke-dasharray:none;stroke-opacity:1"
       d="m 124.14866,269.9311 -0.82127,-3.06684" />
    <path
       inkscape:connector-curvature="0"
       id="path1665"
       style="fill:#ffffff;fill-opacity:1;fill-rule:nonzero;stroke:none;stroke-width:0.03527778"
       d="m 101.7134,275.71817 h 9.40718 v -4.73467 h -9.40718 z" />
    <text
       transform="rotate(-14.999995)"
       style="font-variant:normal;font-weight:normal;font-size:3.52777934px;font-family:'Times New Roman';-inkscape-font-specification:TimesNewRomanPSMT;writing-mode:lr-tb;fill:#231f20;fill-opacity:1;fill-rule:nonzero;stroke:none;stroke-width:0.35277787"
       id="text1671"
       x="27.947578"
       y="292.37573">
      <tspan
         x="27.947578 29.711468 30.593149 32.357216 33.239162"
         y="292.37573"
         sodipodi:role="line"
         id="tspan1669"
         style="stroke-width:0.35277787">0.5 m</tspan>
    </text>
    <text
       style="font-style:italic;font-variant:normal;font-size:3.52777791px;font-family:'Times New Roman';-inkscape-font-specification:TimesNewRomanPS-ItalicMT;writing-mode:lr-tb;fill:#231f20;fill-opacity:1;fill-rule:nonzero;stroke:none;stroke-width:0.35277781"
       id="text1675"
       x="120.08325"
       y="259.25998">
      <tspan
         x="120.08325"
         y="259.25998"
         id="tspan1673"
         style="stroke-width:0.35277781">A</tspan>
    </text>
    <path
       inkscape:connector-curvature="0"
       id="path1677"
       style="fill:#ffffff;fill-opacity:1;fill-rule:nonzero;stroke:none;stroke-width:0.03527778"
       d="m 125.68959,262.03219 -6.87387,1.84104 -0.64065,-2.38908 6.87353,-1.84175 0.64099,2.38979" />
    <path
       inkscape:connector-curvature="0"
       id="path1679"
       style="fill:none;stroke:#231f20;stroke-width:0.26458335;stroke-linecap:butt;stroke-linejoin:miter;stroke-miterlimit:4;stroke-dasharray:none;stroke-opacity:1"
       d="m 125.68959,262.03219 -6.87387,1.84104 -0.64065,-2.38908 6.87353,-1.84175 z" />
    <path
       inkscape:connector-curvature="0"
       id="path1681"
       style="fill:#ffffff;fill-opacity:1;fill-rule:nonzero;stroke:none;stroke-width:0.03527778"
       d="m 125.08458,262.50029 c 0.0709,0.26681 -0.0889,0.54543 -0.3556,0.61683 -0.2667,0.0712 -0.54434,-0.0896 -0.61595,-0.35665 -0.0709,-0.26568 0.0896,-0.54364 0.3556,-0.61571 0.2667,-0.0709 0.54434,0.0896 0.61595,0.35553" />
    <path
       inkscape:connector-curvature="0"
       id="path1683"
       style="fill:none;stroke:#ffffff;stroke-width:0.26458335;stroke-linecap:butt;stroke-linejoin:miter;stroke-miterlimit:4;stroke-dasharray:none;stroke-opacity:1"
       d="m 125.08458,262.50029 c 0.0709,0.26681 -0.0889,0.54543 -0.3556,0.61683 -0.2667,0.0712 -0.54434,-0.0896 -0.61595,-0.35665 -0.0709,-0.26568 0.0896,-0.54364 0.3556,-0.61571 0.2667,-0.0709 0.54434,0.0896 0.61595,0.35553 z" />
    <path
       inkscape:connector-curvature="0"
       id="path1685"
       style="fill:none;stroke:#231f20;stroke-width:0.26458335;stroke-linecap:butt;stroke-linejoin:miter;stroke-miterlimit:4;stroke-dasharray:none;stroke-opacity:1"
       d="m 125.08458,262.50029 c 0.0709,0.26681 -0.0889,0.54543 -0.3556,0.61683 -0.2667,0.0712 -0.54434,-0.0896 -0.61595,-0.35665 -0.0709,-0.26568 0.0896,-0.54364 0.3556,-0.61571 0.2667,-0.0709 0.54434,0.0896 0.61595,0.35553 z" />
    <path
       inkscape:connector-curvature="0"
       id="path1687"
       style="fill:#231f20;fill-opacity:1;fill-rule:nonzero;stroke:none;stroke-width:0.03527778"
       d="m 124.68347,262.60778 c 0.0123,0.0469 -0.0152,0.0958 -0.0614,0.10859 -0.0476,0.0124 -0.0963,-0.0163 -0.10866,-0.0623 -0.0127,-0.0466 0.0159,-0.0955 0.0624,-0.10834 0.0469,-0.0122 0.0953,0.016 0.1076,0.062" />
    <path
       inkscape:connector-curvature="0"
       id="path1689"
       style="fill:none;stroke:#231f20;stroke-width:0.26458335;stroke-linecap:butt;stroke-linejoin:miter;stroke-miterlimit:4;stroke-dasharray:none;stroke-opacity:1"
       d="m 124.68347,262.60778 c 0.0123,0.0469 -0.0152,0.0958 -0.0614,0.10859 -0.0476,0.0124 -0.0963,-0.0163 -0.10866,-0.0623 -0.0127,-0.0466 0.0159,-0.0955 0.0624,-0.10834 0.0469,-0.0122 0.0953,0.016 0.1076,0.062 z" />
    <path
       inkscape:connector-curvature="0"
       id="path1691"
       style="fill:#ffffff;fill-opacity:1;fill-rule:nonzero;stroke:none;stroke-width:0.03527778"
       d="m 120.54715,263.7251 c 0.072,0.26695 -0.0885,0.54501 -0.35525,0.61669 -0.26599,0.0716 -0.54433,-0.0893 -0.61595,-0.35623 -0.0713,-0.26596 0.0893,-0.54363 0.35596,-0.61528 0.26599,-0.0714 0.54363,0.0896 0.61524,0.35482" />
    <path
       inkscape:connector-curvature="0"
       id="path1693"
       style="fill:none;stroke:#ffffff;stroke-width:0.26458335;stroke-linecap:butt;stroke-linejoin:miter;stroke-miterlimit:4;stroke-dasharray:none;stroke-opacity:1"
       d="m 120.54715,263.7251 c 0.072,0.26695 -0.0885,0.54501 -0.35525,0.61669 -0.26599,0.0716 -0.54433,-0.0893 -0.61595,-0.35623 -0.0713,-0.26596 0.0893,-0.54363 0.35596,-0.61528 0.26599,-0.0714 0.54363,0.0896 0.61524,0.35482 z" />
    <path
       inkscape:connector-curvature="0"
       id="path1695"
       style="fill:none;stroke:#231f20;stroke-width:0.26458335;stroke-linecap:butt;stroke-linejoin:miter;stroke-miterlimit:4;stroke-dasharray:none;stroke-opacity:1"
       d="m 120.54715,263.7251 c 0.072,0.26695 -0.0885,0.54501 -0.35525,0.61669 -0.26599,0.0716 -0.54433,-0.0893 -0.61595,-0.35623 -0.0713,-0.26596 0.0893,-0.54363 0.35596,-0.61528 0.26599,-0.0714 0.54363,0.0896 0.61524,0.35482 z" />
    <path
       inkscape:connector-curvature="0"
       id="path1697"
       style="fill:#231f20;fill-opacity:1;fill-rule:nonzero;stroke:none;stroke-width:0.03527778"
       d="m 120.1471,263.83302 c 0.0124,0.0464 -0.0159,0.0958 -0.0621,0.10773 -0.0469,0.0131 -0.0967,-0.0158 -0.10901,-0.062 -0.0123,-0.0466 0.0159,-0.0954 0.0628,-0.10777 0.0476,-0.0128 0.096,0.0157 0.1083,0.062" />
    <path
       inkscape:connector-curvature="0"
       id="path1699"
       style="fill:none;stroke:#231f20;stroke-width:0.26458335;stroke-linecap:butt;stroke-linejoin:miter;stroke-miterlimit:4;stroke-dasharray:none;stroke-opacity:1"
       d="m 120.1471,263.83302 c 0.0124,0.0464 -0.0159,0.0958 -0.0621,0.10773 -0.0469,0.0131 -0.0967,-0.0158 -0.10901,-0.062 -0.0123,-0.0466 0.0159,-0.0954 0.0628,-0.10777 0.0476,-0.0128 0.096,0.0157 0.1083,0.062 z" />
    <path
       inkscape:connector-curvature="0"
       id="path1715"
       style="fill:url(#linearGradient1713);fill-opacity:1;fill-rule:nonzero;stroke:none;stroke-width:0.03527778"
       d="M 11.383391,288.97242 H 135.11315 v -2.53959 H 11.383391 Z" />
    <path
       inkscape:connector-curvature="0"
       id="path1725"
       style="fill:none;stroke:#231f20;stroke-width:0.1763889;stroke-linecap:butt;stroke-linejoin:miter;stroke-miterlimit:10;stroke-dasharray:none;stroke-opacity:1"
       d="M 11.383391,286.43283 H 135.11335" />
    <text
       style="font-variant:normal;font-weight:normal;font-size:3.52777791px;font-family:'Times New Roman';-inkscape-font-specification:TimesNewRomanPSMT;writing-mode:lr-tb;fill:#231f20;fill-opacity:1;fill-rule:nonzero;stroke:none;stroke-width:0.35277781"
       id="text1733"
       x="87.319366"
       y="256.0723">
      <tspan
         x="87.319366 89.672394 91.23819 92.412941 93.393066 94.275017 95.44976 97.015564 97.995689 99.561493 101.1273 102.50018 104.06597"
         y="256.0723"
         sodipodi:role="line"
         id="tspan1729"
         style="stroke-width:0.35277781">Cart released</tspan>
      <tspan
         x="86.957764 88.132515 89.307266 91.071152 93.81517 94.697113 95.871864 97.437668 98.810539 99.790672 100.67262 102.23841 103.21854"
         y="260.30563"
         sodipodi:role="line"
         id="tspan1731"
         style="stroke-width:0.35277781">from rest at</tspan>
    </text>
    <text
       style="font-style:italic;font-variant:normal;font-size:3.52777791px;font-family:'Times New Roman';-inkscape-font-specification:TimesNewRomanPS-ItalicMT;writing-mode:lr-tb;fill:#231f20;fill-opacity:1;fill-rule:nonzero;stroke:none;stroke-width:0.35277781"
       id="text1737"
       x="104.1003"
       y="260.30563">
      <tspan
         x="104.1003"
         y="260.30563"
         id="tspan1735"
         style="stroke-width:0.35277781">A</tspan>
    </text>
    <path
       inkscape:connector-curvature="0"
       id="path1739"
       style="fill:none;stroke:#231f20;stroke-width:0.17638785;stroke-linecap:butt;stroke-linejoin:miter;stroke-miterlimit:10;stroke-dasharray:none;stroke-opacity:1"
       d="m 107.94416,257.94642 c 11.321,1.67612 -4.18994,2.35617 7.76217,4.12849" />
    <path
       inkscape:connector-curvature="0"
       id="path1741"
       style="fill:#231f20;fill-opacity:1;fill-rule:nonzero;stroke:none;stroke-width:0.03527778"
       d="m 116.3057,262.01497 c -0.27763,-0.12858 -0.45296,-0.23607 -0.66922,-0.36576 l -0.13088,0.88071 c 0.0875,-0.0255 0.4445,-0.11091 0.74648,-0.15543 0.32244,-0.0471 0.61172,-0.0695 0.79693,-0.0653 -0.17816,-0.0498 -0.44874,-0.15501 -0.74331,-0.29419" />
    <path
       inkscape:connector-curvature="0"
       id="path1743"
       style="fill:#ffffff;fill-opacity:1;fill-rule:nonzero;stroke:none;stroke-width:0.03527778"
       d="m 116.85004,276.23467 h 13.79679 v -4.9699 h -13.79679 z" />
    <text
       style="font-style:italic;font-variant:normal;font-size:3.52777791px;font-family:'Times New Roman';-inkscape-font-specification:TimesNewRomanPS-ItalicMT;writing-mode:lr-tb;fill:#231f20;fill-opacity:1;fill-rule:nonzero;stroke:none;stroke-width:0.35277781"
       id="text1749"
       x="117.41096"
       y="274.35434">
      <tspan
         x="117.41096"
         y="274.35434"
         id="tspan1747"
         style="stroke-width:0.35277781">t</tspan>
    </text>
    <text
       style="font-style:italic;font-variant:normal;font-size:2.05669451px;font-family:'Times New Roman';-inkscape-font-specification:TimesNewRomanPS-ItalicMT;writing-mode:lr-tb;fill:#231f20;fill-opacity:1;fill-rule:nonzero;stroke:none;stroke-width:0.35277781"
       id="text1753"
       x="118.39088"
       y="275.52911">
      <tspan
         x="118.39088"
         y="275.52911"
         id="tspan1751"
         style="stroke-width:0.35277781">A</tspan>
    </text>
    <text
       style="font-variant:normal;font-weight:normal;font-size:3.52777791px;font-family:'Times New Roman';-inkscape-font-specification:TimesNewRomanPSMT;writing-mode:lr-tb;fill:#231f20;fill-opacity:1;fill-rule:nonzero;stroke:none;stroke-width:0.35277781"
       id="text1757"
       x="120.52904"
       y="274.35434">
      <tspan
         x="120.52904 122.51871 123.40065 125.16454 126.04649 127.81037 128.69232"
         y="274.35434"
         sodipodi:role="line"
         id="tspan1755"
         style="stroke-width:0.35277781">= 1.1 s</tspan>
    </text>
    <path
       inkscape:connector-curvature="0"
       id="path1759"
       style="fill:#ffffff;fill-opacity:1;fill-rule:nonzero;stroke:none;stroke-width:0.03527778"
       d="M 80.839893,285.38442 H 94.63668 v -4.9699 H 80.839893 Z" />
    <text
       style="font-style:italic;font-variant:normal;font-size:3.52777791px;font-family:'Times New Roman';-inkscape-font-specification:TimesNewRomanPS-ItalicMT;writing-mode:lr-tb;fill:#231f20;fill-opacity:1;fill-rule:nonzero;stroke:none;stroke-width:0.35277781"
       id="text1765"
       x="81.40081"
       y="283.50409">
      <tspan
         x="81.40081"
         y="283.50409"
         id="tspan1763"
         style="stroke-width:0.35277781">t</tspan>
    </text>
    <text
       style="font-style:italic;font-variant:normal;font-size:2.05669451px;font-family:'Times New Roman';-inkscape-font-specification:TimesNewRomanPS-ItalicMT;writing-mode:lr-tb;fill:#231f20;fill-opacity:1;fill-rule:nonzero;stroke:none;stroke-width:0.35277781"
       id="text1769"
       x="82.380875"
       y="284.67886">
      <tspan
         x="82.380875"
         y="284.67886"
         id="tspan1767"
         style="stroke-width:0.35277781">B</tspan>
    </text>
    <text
       style="font-variant:normal;font-weight:normal;font-size:3.52777791px;font-family:'Times New Roman';-inkscape-font-specification:TimesNewRomanPSMT;writing-mode:lr-tb;fill:#231f20;fill-opacity:1;fill-rule:nonzero;stroke:none;stroke-width:0.35277781"
       id="text1773"
       x="84.519035"
       y="283.50409">
      <tspan
         x="84.519035 86.508705 87.390648 89.154541 90.036484 91.800369 92.682312"
         y="283.50409"
         sodipodi:role="line"
         id="tspan1771"
         style="stroke-width:0.35277781">= 2.1 s</tspan>
    </text>
    <path
       inkscape:connector-curvature="0"
       id="path1775"
       style="fill:#ffffff;fill-opacity:1;fill-rule:nonzero;stroke:none;stroke-width:0.03527778"
       d="M 8.5176216,285.38442 H 22.543432 v -4.9699 H 8.5176216 Z" />
    <text
       style="font-style:italic;font-variant:normal;font-size:3.52777791px;font-family:'Times New Roman';-inkscape-font-specification:TimesNewRomanPS-ItalicMT;writing-mode:lr-tb;fill:#231f20;fill-opacity:1;fill-rule:nonzero;stroke:none;stroke-width:0.35277781"
       id="text1781"
       x="9.0784817"
       y="283.50409">
      <tspan
         x="9.0784817"
         y="283.50409"
         id="tspan1779"
         style="stroke-width:0.35277781">t</tspan>
    </text>
    <text
       style="font-style:italic;font-variant:normal;font-size:2.05669451px;font-family:'Times New Roman';-inkscape-font-specification:TimesNewRomanPS-ItalicMT;writing-mode:lr-tb;fill:#231f20;fill-opacity:1;fill-rule:nonzero;stroke:none;stroke-width:0.35277781"
       id="text1785"
       x="10.058544"
       y="284.67886">
      <tspan
         x="10.058544"
         y="284.67886"
         id="tspan1783"
         style="stroke-width:0.35277781">D</tspan>
    </text>
    <text
       style="font-variant:normal;font-weight:normal;font-size:3.52777791px;font-family:'Times New Roman';-inkscape-font-specification:TimesNewRomanPSMT;writing-mode:lr-tb;fill:#231f20;fill-opacity:1;fill-rule:nonzero;stroke:none;stroke-width:0.35277781"
       id="text1789"
       x="12.425878"
       y="283.50409">
      <tspan
         x="12.425878 14.415545 15.297489 17.061378 17.943323 19.707212 20.589155"
         y="283.50409"
         sodipodi:role="line"
         id="tspan1787"
         style="stroke-width:0.35277781">= 3.1 s</tspan>
    </text>
  </g>
</svg>
