<?xml version="1.0" encoding="UTF-8" standalone="no"?>
<!-- Created with Inkscape (http://www.inkscape.org/) -->

<svg
   xmlns:dc="http://purl.org/dc/elements/1.1/"
   xmlns:cc="http://creativecommons.org/ns#"
   xmlns:rdf="http://www.w3.org/1999/02/22-rdf-syntax-ns#"
   xmlns:svg="http://www.w3.org/2000/svg"
   xmlns="http://www.w3.org/2000/svg"
   xmlns:sodipodi="http://sodipodi.sourceforge.net/DTD/sodipodi-0.dtd"
   xmlns:inkscape="http://www.inkscape.org/namespaces/inkscape"
   id="svg2"
   version="1.1"
   inkscape:version="0.92.4 (5da689c313, 2019-01-14)"
   width="136.97331"
   height="63.445011"
   xml:space="preserve"
   sodipodi:docname="handramp.svg"><metadata
     id="metadata8"><rdf:RDF><cc:Work
         rdf:about=""><dc:format>image/svg+xml</dc:format><dc:type
           rdf:resource="http://purl.org/dc/dcmitype/StillImage" /><dc:title></dc:title></cc:Work></rdf:RDF></metadata><defs
     id="defs6"><marker
   inkscape:stockid="Arrow1Mend"
   orient="auto"
   refY="0"
   refX="0"
   id="marker1139"
   style="overflow:visible"
   inkscape:isstock="true"><path
     id="path1137"
     d="M 0,0 5,-5 -12.5,0 5,5 Z"
     style="fill:#000000;fill-opacity:1;fill-rule:evenodd;stroke:#000000;stroke-width:1.00000003pt;stroke-opacity:1"
     transform="matrix(-0.4,0,0,-0.4,-4,0)"
     inkscape:connector-curvature="0" /></marker><marker
   inkscape:stockid="Arrow1Mend"
   orient="auto"
   refY="0"
   refX="0"
   id="Arrow1Mend"
   style="overflow:visible"
   inkscape:isstock="true"><path
     id="path836"
     d="M 0,0 5,-5 -12.5,0 5,5 Z"
     style="fill:#000000;fill-opacity:1;fill-rule:evenodd;stroke:#000000;stroke-width:1.00000003pt;stroke-opacity:1"
     transform="matrix(-0.4,0,0,-0.4,-4,0)"
     inkscape:connector-curvature="0" /></marker><clipPath
   clipPathUnits="userSpaceOnUse"
   id="clipPath18"><path
     d="M 0,0 H 1677 V 937.891 H 0 Z"
     id="path20"
     inkscape:connector-curvature="0" /></clipPath><marker
   inkscape:stockid="Arrow1Mend"
   orient="auto"
   refY="0"
   refX="0"
   id="marker1139-6"
   style="overflow:visible"
   inkscape:isstock="true"><path
     id="path1137-2"
     d="M 0,0 5,-5 -12.5,0 5,5 Z"
     style="fill:#000000;fill-opacity:1;fill-rule:evenodd;stroke:#000000;stroke-width:1.00000003pt;stroke-opacity:1"
     transform="matrix(-0.4,0,0,-0.4,-4,0)"
     inkscape:connector-curvature="0" /></marker>



</defs><sodipodi:namedview
     pagecolor="#ffffff"
     bordercolor="#666666"
     borderopacity="1"
     objecttolerance="10"
     gridtolerance="10"
     guidetolerance="10"
     inkscape:pageopacity="0"
     inkscape:pageshadow="2"
     inkscape:window-width="1920"
     inkscape:window-height="1018"
     id="namedview4"
     showgrid="false"
     fit-margin-top="2"
     fit-margin-left="2"
     fit-margin-right="2"
     fit-margin-bottom="2"
     inkscape:zoom="2.8284273"
     inkscape:cx="45.699402"
     inkscape:cy="73.339547"
     inkscape:window-x="-8"
     inkscape:window-y="-8"
     inkscape:window-maximized="1"
     inkscape:current-layer="g10" /><g
     id="g10"
     inkscape:groupmode="layer"
     inkscape:label="ink_ext_XXXXXX"
     transform="matrix(1.25,0,0,-1.25,15.35227,-53.627168)"><text
   xml:space="preserve"
   style="font-style:normal;font-variant:normal;font-weight:normal;font-stretch:normal;line-height:0%;font-family:'Times New Roman';-inkscape-font-specification:'Times New Roman, ';text-align:start;letter-spacing:0px;word-spacing:0px;text-anchor:start;fill:#000000;fill-opacity:1;stroke:none;stroke-width:0.26458332px;stroke-linecap:butt;stroke-linejoin:miter;stroke-opacity:1"
   x="65.547951"
   y="89.843185"
   id="text823-0-5-3-3-62"
   transform="scale(1,-1)"><tspan
     sodipodi:role="line"
     id="tspan4319"
     x="65.547951"
     y="89.843185"
     style="font-style:italic;font-size:12px;line-height:0">θ<tspan
   style="font-style:normal;font-size:51.99999809%;baseline-shift:sub"
   id="tspan4321" /></tspan></text>





<path
   style="fill:none;fill-rule:evenodd;stroke:#000000;stroke-width:0.80000001px;stroke-linecap:butt;stroke-linejoin:miter;stroke-opacity:1"
   d="M 95.532694,-91.165876 9.8754287,-52.623148 V -91.65545 Z"
   id="path4293"
   inkscape:connector-curvature="0"
   sodipodi:nodetypes="ccc" />



<rect
   style="opacity:1;fill:#e6e6e6;fill-opacity:1;stroke:#000000;stroke-width:0.42591467;stroke-miterlimit:4;stroke-dasharray:none;stroke-dashoffset:0;stroke-opacity:1"
   id="rect4216-6-1"
   width="15.058357"
   height="15.058357"
   x="28.043892"
   y="-75.635033"
   transform="matrix(-0.4223943,-0.90641219,-0.90641219,0.4223943,0,0)" /><text
   xml:space="preserve"
   style="font-style:normal;font-variant:normal;font-weight:normal;font-stretch:normal;line-height:0%;font-family:'Times New Roman';-inkscape-font-specification:'Times New Roman, ';text-align:start;letter-spacing:0px;word-spacing:0px;text-anchor:start;fill:#000000;fill-opacity:1;stroke:none;stroke-width:0.26458332px;stroke-linecap:butt;stroke-linejoin:miter;stroke-opacity:1"
   x="42.866898"
   y="63.046192"
   id="text823-0-5-3-3-6"
   transform="scale(1,-1)"><tspan
     sodipodi:role="line"
     x="42.866898"
     y="63.046192"
     style="font-style:normal;font-size:12px;line-height:125%;text-align:start;text-anchor:start;stroke-width:0.26458332px"
     id="tspan873-7-2-0-39"><tspan
       style="font-style:italic"
       id="tspan4223">m</tspan><tspan
       style="font-size:51.99999809%;baseline-shift:sub"
       id="tspan4221" /></tspan></text>
<g
   id="g943"
   transform="matrix(-0.73200242,0.52124112,0.52124112,0.73200242,153.83666,-128.02369)"><path
     d="m 130.26095,-8.3081768 c 0.63828,-0.440844 1.00587,-0.578328 1.11626,-0.418348 0.11036,0.159949 0.19744,0.44544 0.25489,0.877878 0.0641,0.428357 -0.13999,0.800837 -0.62411,1.134614 -0.47458,0.327882 -1.13174,0.549967 -1.99296,0.672544 -0.86125,0.121248 -1.64587,0.316997 -2.39585,0.599132 -0.74911,0.280894 -1.58871,0.744536 -2.54538,1.405016 -0.96245,0.664532 -1.50625,1.040005 -1.66668,1.150397 -0.15965,0.11006 -0.54912,0.379193 -1.18955,0.821216"
     style="fill:none;stroke:#231f20;stroke-width:0.53335154;stroke-linecap:butt;stroke-linejoin:miter;stroke-miterlimit:4;stroke-dasharray:none;stroke-opacity:1"
     id="path835"
     inkscape:connector-curvature="0" /><path
     d="m 128.53966,-5.7136068 c 0.22072,0.31999 0.0181,0.6912 -0.6225,1.133345 -0.63956,0.44169 -1.08415,0.632511 -1.35498,0.583347 -0.27303,-0.04838 -0.40202,-0.07378 -0.40202,-0.07378 0,0 -0.13274,-0.02419 -0.40299,-0.07408 -0.27212,-0.04778 -0.84661,0.118224 -1.75585,0.509541 -0.91168,0.392949 -1.66783,0.799264 -2.30784,1.241711"
     style="fill:none;stroke:#231f20;stroke-width:0.53335154;stroke-linecap:butt;stroke-linejoin:miter;stroke-miterlimit:4;stroke-dasharray:none;stroke-opacity:1"
     id="path837"
     inkscape:connector-curvature="0" /><path
     d="m 122.95845,6.5751492 c 0,0 -0.0242,0.130318 -0.0692,0.399995 -0.0505,0.270917 -0.0457,0.613342 0.0121,1.044571 0.0638,0.428387 0.0907,0.640857 0.0907,0.640857 0,0 0.13516,0.02116 0.40211,0.07317 0.27213,0.04838 0.53751,0.09615 0.80834,0.145436 0.26759,0.0508 0.48042,0.02117 0.63668,-0.08708 0.16086,-0.111572 0.24219,-0.167207 0.24219,-0.167207 0,0 0.0242,-0.133039 0.0729,-0.402989 0.0472,-0.267893 0.0181,-0.480423 -0.091,-0.640433 -0.11006,-0.159647 -0.19411,-0.447889 -0.25459,-0.878725 -0.0641,-0.42751 -0.0907,-0.639979 -0.0907,-0.639979 0,0 -0.0816,0.05624 -0.23796,0.164182 -0.16056,0.110362 -0.44789,0.194117 -0.87788,0.254891 -0.43084,0.06047 -0.64458,0.09283 -0.64458,0.09283 z"
     style="fill:none;stroke:#231f20;stroke-width:0.53335154;stroke-linecap:butt;stroke-linejoin:miter;stroke-miterlimit:4;stroke-dasharray:none;stroke-opacity:1"
     id="path839"
     inkscape:connector-curvature="0" /><path
     d="m 114.80963,-1.1573408 c 0.1022,-0.542498 0.25278,-0.992534 0.45962,-1.371727 0.21256,-0.382518 0.39256,-0.62208 0.5533,-0.732925 0.15722,-0.108548 0.39382,-0.272127 0.71381,-0.493335 0.31957,-0.220421 0.55327,-0.381641 0.7137,-0.492457 0.15662,-0.107944 0.23796,-0.164183 0.23796,-0.164183 0,0 0.23131,-0.159647 0.71584,-0.493757 0.47912,-0.331177 0.94367,-0.651621 1.42709,-0.985368 0.47958,-0.331329 0.86742,-0.599161 1.1904,-0.821246 0.31582,-0.218306 0.62867,-0.434646 0.95168,-0.657487 0.317,-0.218911 0.68746,-0.358813 1.11699,-0.419619 0.42712,-0.05926 0.87543,-0.252169 1.35501,-0.583377 0.47712,-0.329151 1.20917,-0.604996 2.2321,-0.838269 1.02165,-0.232517 1.80918,-0.429989 2.39455,-0.597982 0.59469,-0.17416 0.93303,-0.177788 1.04343,-0.01814 0.11096,0.160857 0.16448,0.238262 0.16448,0.238262 0,0 0.033,0.208025 0.0904,0.639979 0.0641,0.42872 -0.22133,0.855807 -0.86122,1.297497 -0.64001,0.441721 -1.1058,0.763737 -1.42666,0.984975 -0.3183,0.219515 -0.60706,0.304207 -0.87746,0.254589 -0.27333,-0.04656 -0.55925,0.03356 -0.87924,0.25459 -0.31956,0.220724 -0.55329,0.382518 -0.71369,0.493333 -0.16267,0.111875 -0.55042,0.379526 -1.1904,0.821247 -0.63959,0.44169 -1.03,0.711246 -1.1904,0.822062 -0.15995,0.110362 -0.3967,0.273638 -0.71424,0.492487 -0.32374,0.223748 -0.78294,0.886738 -1.4108,2.029244 -0.62963,1.14280799 -1.19381,1.99326299 -1.72715,2.597866 -0.52959,0.601701 -0.88414,1.422917 -1.08243,2.504949 -0.19834,1.081701 -0.13243,1.844168 0.19835,2.323836 0.33088,0.479153 1.22581,0.439574 2.72628,-0.124573 1.49954,-0.562999 2.60791,-0.635415 3.36919,-0.216795 0.76287,0.418349 1.29493,0.8575 1.62665,1.3375 0.33121,0.48 0.39126,0.899618 0.18112,1.28129 -0.20954,0.380797 -0.46794,0.674542 -0.78753,0.895025 -0.31999,0.221329 -0.95414,0.312431 -1.92457,0.273638 -0.97122,-0.0384 -1.65208,-0.03024 -2.08706,0.03447 -0.42624,0.05836 -1.60744,0.527138 -3.58377,1.4191968 -1.98039,0.895446 -3.44587,1.444989 -4.46626,1.677113 -1.0208,0.232516 -1.91289,0.617907 -2.70916,1.167904 -0.79999,0.552083 -1.42458,0.983343 -1.90416,1.313703 -0.4829,0.334171 -1.03042,0.71167 -1.67043,1.153391"
     style="fill:none;stroke:#231f20;stroke-width:0.53335154;stroke-linecap:butt;stroke-linejoin:miter;stroke-miterlimit:4;stroke-dasharray:none;stroke-opacity:1"
     id="path841"
     inkscape:connector-curvature="0" /><path
     d="m 102.76259,7.8617612 c 0.63626,-0.438728 1.47377,-0.902098 2.54543,-1.40535 1.06958,-0.501648 1.90458,-0.96254 2.54498,-1.405016 0.63917,-0.440844 1.10502,-0.762981 1.42791,-0.985792 0.31627,-0.218305 1.04128,-1.180059 2.19917,-2.924598 1.1575,-1.74378301 2.06129,-2.942922 2.74587,-3.652898 0.69247,-0.71424 1.18538,-1.170021 1.50208,-1.387964 0.32289,-0.22284 0.71082,-0.490885 1.1933,-0.824209 0.48,-0.331207 1.13546,-0.552415 1.99583,-0.67457"
     style="fill:none;stroke:#231f20;stroke-width:0.53335154;stroke-linecap:butt;stroke-linejoin:miter;stroke-miterlimit:4;stroke-dasharray:none;stroke-opacity:1"
     id="path843"
     inkscape:connector-curvature="0" /></g></g></svg>