<?xml version="1.0" encoding="UTF-8" standalone="no"?>
<!-- Generator: Adobe Illustrator 16.0.3, SVG Export Plug-In . SVG Version: 6.00 Build 0)  -->
<svg id="Ebene_1" xmlns:rdf="http://www.w3.org/1999/02/22-rdf-syntax-ns#" xmlns="http://www.w3.org/2000/svg" enable-background="new 0 0 647.633 541" xml:space="preserve" height="541px" viewBox="0 0 647.633 541" width="647.63px" version="1.1" y="0px" x="0px" xmlns:cc="http://creativecommons.org/ns#" xmlns:xlink="http://www.w3.org/1999/xlink" xmlns:dc="http://purl.org/dc/elements/1.1/"><metadata id="metadata4485"><rdf:RDF><cc:Work rdf:about=""><dc:format>image/svg+xml</dc:format><dc:type rdf:resource="http://purl.org/dc/dcmitype/StillImage"/><dc:title/></cc:Work></rdf:RDF></metadata>
<path id="path4137" d="m245.73 416.29c-0.922 4.503-4.907 7.894-9.683 7.894-5.458 0-9.885-4.423-9.885-9.884 0-0.738 0.081-1.457 0.232-2.146" stroke="#000" stroke-dasharray="5.6693" stroke-miterlimit="10" fill="none"/>
<polygon id="polygon4139" points="492.04 436.46 520.69 333.92 611.5 342.52" fill="#6f6"/>
<polyline id="polyline4141" opacity=".5" enable-background="new    " points="19.598 484.01 152.8 4.444 601.45 46.889 464.67 536.83" fill="#69f"/>
<polyline id="polyline4143" points="6.878 422.72 43.386 394.01 34.669 425.21" fill="#6f6"/>
<polyline id="polyline4145" points="34.717 425.04 43.386 394.01 492.04 436.46 454.9 465.66" fill="#6f6"/><g stroke-miterlimit="10" fill="none">
<line id="line4147" y2="93.468" x1="307.16" x2="415.26" stroke="#ff0" stroke-linecap="round" y1="285.31" stroke-width="3"/><g stroke="#000">
<line id="line4149" y2="476.9" x1="218.99" x2="199.21" y1="441.8" stroke-width="1.9843"/>
<line id="line4151" y2="443.83" x1="234.5" x2="217.82" stroke-dasharray="4.252" y1="414.23" stroke-width="1.9843"/>
<line id="line4153" y2="412.2" x1="307.16" x2="235.67" stroke-linecap="round" y1="285.31" stroke-width="2"/>
</g></g><g id="g4155" stroke="#000" stroke-width="2.126">
	<path id="path4157" d="m298.78 418.17c3.723-13.313 0.617-27.19-8.438-37.715-9.054-10.521-23.942-17.557-40.467-19.119-16.523-1.562-34.479 2.363-48.792 10.674-14.314 8.313-24.814 20.9-28.536 34.22" stroke-linecap="round" stroke-miterlimit="10" fill="none"/>
		<path id="path4159" opacity=".33" enable-background="new    " d="m191.13 452.83c-5.804-3.856-10.561-8.662-13.979-14.072" stroke-linecap="round" stroke-miterlimit="10" fill="none"/>
	<polygon id="polygon4161" opacity=".33" enable-background="new    " points="188.27 457.4 194.1 448.09 208.38 460.64"/>
</g>
<polygon id="polygon4163" stroke="#000" stroke-linecap="round" stroke-miterlimit="10" stroke-width="1.9843" points="477.61 493.76 488.04 487.96 494.61 494.62"/>
<polyline id="polyline4165" stroke="#000" stroke-linecap="round" stroke-miterlimit="10" stroke-width="1.9843" points="240.63 414.3 362.93 452.15 364.04 452.49 482.05 490.19"/>
<g id="g4167">
	<polygon id="polygon4169" points="333.24 421.77 326.21 429.82 316.24 428.37"/>
</g>
<g id="g4171" stroke="#000" stroke-width="1.9843">
	<polygon id="polygon4173" points="518.49 373.09 515.19 353.61 522.45 365.19" fill="#00f"/>
	<path id="path4175" d="m520.49 369.09c3.125 11.551 5.312 25.318 6.347 39.998" stroke-linecap="round" stroke-miterlimit="10" fill="none"/>
</g>
<polygon id="polygon4177" stroke="#00f" stroke-linecap="round" stroke-miterlimit="10" fill="#00f" points="454.61 311.47 465.94 292.66 464.37 312.4"/>
<path id="path4179" d="m374.86 425.37c37.936-33.313 69.875-78.57 88.429-125.29l10.178-30.372c13.508-49.463 10.789-97.16-7.455-130.8-18.246-33.644-51.83-52.893-92.104-52.789-40.273 0.104-86.826 19.56-127.67 53.355-40.842 33.795-75.558 81.589-95.203 131.07l-10.179 30.373c-9.995 36.602-11.29 72.334-3.694 101.97" stroke="#00f" stroke-linecap="round" stroke-miterlimit="10" stroke-width="3" fill="none"/>
<g id="g4181">
	<g id="g4183" stroke="#00f" stroke-linecap="round" stroke-miterlimit="10" stroke-width="2.8346" fill="none">
		<path id="path4185" d="m336.63 453.73c0.603-0.367 1.203-0.741 1.806-1.118"/>
			<path id="path4187" d="m341.76 450.48c10.237-6.634 20.294-14.141 30-22.43" stroke-dasharray="3.9454,3.9454"/>
		<path id="path4189" d="m373.26 426.77c0.534-0.464 1.068-0.93 1.603-1.396"/>
	</g>
</g>
<path id="path4191" d="m150.82 435.99c9.155 15.177 21.468 27.313 36.312 35.557 24.465 13.586 55.721 16.543 88.813 8.402 20.006-4.922 40.64-13.889 60.683-26.229" stroke="#00f" stroke-linecap="round" stroke-miterlimit="10" stroke-width="2.8346" fill="none"/>
<g id="g4193">
	<g id="g4195" stroke="#00f" stroke-linecap="round" stroke-miterlimit="10" stroke-width="2.8346" fill="none">
		<path id="path4197" d="m137.16 402.88c0.176 0.688 0.355 1.374 0.543 2.059"/>
			<path id="path4199" d="m138.97 409.29c2.531 8.187 5.771 15.849 9.662 22.908" stroke-dasharray="4.5267,4.5267"/>
		<path id="path4201" d="m149.74 434.17c0.354 0.614 0.714 1.224 1.079 1.828"/>
	</g>
</g>
<polygon id="polygon4203" stroke="#00f" stroke-linecap="round" stroke-miterlimit="10" fill="#00f" points="146.25 286.01 157.59 267.2 147.83 266.27"/>
<g id="g4229">
	<path id="path4231" d="m340.8 442.18h-7.301v-4.007h0.372c0.295 1.213 0.592 1.511 1.631 1.511h3.906l-0.049-0.691c-1.905-0.568-3.113-1.213-4.132-2.695-1.729-2.544-1.437-5.438-0.396-7.29 0.986-1.807 2.153-2.351 2.823-2.745 1.135-0.671 2.768-1.089 4.521-1.089 1.752 0 3.386 0.418 4.521 1.089 0.67 0.396 1.837 0.938 2.823 2.745 1.041 1.854 1.336 4.746-0.396 7.29-1.018 1.482-2.226 2.129-4.132 2.695l-0.049 0.691h3.905c1.04 0 1.339-0.298 1.632-1.511h0.372v4.007h-7.296l0.395-3.755c0.796-0.349 1.956-0.593 2.919-2.815 0.818-1.881 1.088-6.16-1.113-8.359-1.01-1.013-2.325-1.285-3.582-1.285-1.267 0-2.571 0.272-3.583 1.285-2.205 2.203-1.931 6.479-1.111 8.359 0.963 2.224 2.123 2.468 2.919 2.815l0.4 3.76z"/>
</g>
<g id="g4237">
	<path id="path4239" d="m218.28 347.59c-1.535 0.576-2.111 1.008-2.615 1.848-1.271 2.091-1.129 4.851-0.84 6.457 0.238 1.248 0.525 1.752 0.959 2.16 0.479 0.455 1.008 0.576 1.683 0.383 1.584-0.452 1.702-2.424 1.821-2.879-0.434-1.248-0.912-2.76-0.576-4.68 0.193-1.057 0.529-1.609 1.152-1.609 0.625 0 0.961 0.556 1.15 1.609 0.336 1.92-0.146 3.432-0.576 4.68 0.121 0.455 0.24 2.427 1.824 2.879 0.672 0.193 1.2 0.072 1.68-0.383 0.434-0.408 0.723-0.912 0.963-2.16 0.285-1.606 0.432-4.366-0.842-6.457-0.504-0.84-1.08-1.271-2.615-1.848v-0.408c0.84 0.052 2.256-0.119 3.527 0.84 1.514 1.152 2.328 2.689 2.521 4.777 0.168 1.729 0 2.81-0.526 4.08-0.435 1.031-1.347 2.016-2.16 2.375-0.672 0.313-1.896 0.625-3.07-0.072-0.842-0.479-1.227-0.84-1.873-1.967-0.646 1.127-1.031 1.486-1.871 1.967-1.178 0.697-2.399 0.388-3.072 0.072-0.815-0.359-1.729-1.344-2.159-2.375-0.527-1.273-0.695-2.354-0.527-4.08 0.191-2.088 1.01-3.625 2.521-4.777 1.271-0.959 2.688-0.788 3.527-0.84v0.408h0.02z"/>
</g>
<g id="g4241">
	<path id="path4243" d="m191.45 484.43c1.008-0.19 2.326-0.336 4.008-0.336 2.063 0 3.576 0.479 4.537 1.347 0.887 0.768 1.438 1.94 1.438 3.383 0 1.465-0.433 2.617-1.271 3.457-1.104 1.176-2.904 1.772-4.945 1.772-0.622 0-1.198-0.021-1.68-0.145v6.479h-2.088v-15.95zm2.09 7.78c0.457 0.119 1.058 0.168 1.729 0.168 2.544 0 4.059-1.248 4.059-3.432 0-2.16-1.515-3.191-3.815-3.191-0.912 0-1.608 0.096-1.97 0.168l-0.01 6.28z"/>
</g>
<path id="path4323" d="m402.32 435.15c-0.938 0-1.701-0.689-1.701-1.541 0-0.854 0.763-1.541 1.701-1.541l1.096-0.848c0.315-0.291 0.604-0.632 0.882-1.033 1.681-2.474 1.394-5.279 0.386-7.08-0.962-1.754-2.091-2.279-2.735-2.662-1.104-0.65-2.688-1.059-4.395-1.059-1.703 0-3.289 0.405-4.392 1.059-0.649 0.383-1.776 0.908-2.735 2.662-1.009 1.801-1.297 4.606 0.384 7.08 0.271 0.396 0.558 0.729 0.866 1.021l1.028 0.861c0.938 0 1.699 0.689 1.699 1.541s-0.763 1.541-1.699 1.541l-0.006 0.002c-0.938 0-1.699-0.689-1.699-1.541 0-0.854 0.763-1.541 1.699-1.541l-0.955-0.848c-1.035 0.399-1.763 1.367-1.763 2.496 0 1.487 1.269 2.694 2.83 2.694 1.563 0 2.828-1.207 2.828-2.694 0-0.896-0.457-1.688-1.162-2.181-0.475-0.328-1.086-1.09-1.491-2.024-0.791-1.822-1.056-5.978 1.079-8.109 0.983-0.984 2.257-1.248 3.479-1.248 1.223 0 2.496 0.264 3.479 1.248 2.14 2.135 1.873 6.287 1.082 8.109-0.396 0.912-0.959 1.698-1.429 2.022-0.702 0.488-1.161 1.283-1.161 2.181 0 1.487 1.269 2.694 2.827 2.694 1.563 0 2.83-1.207 2.83-2.694 0-1.13-0.728-2.097-1.761-2.498l-1.097 0.848c0.938 0 1.699 0.688 1.699 1.541-0.02 0.85-0.78 1.54-1.72 1.54z"/>
<path id="path4325" d="m113.46 391.69c0.938 0 1.698 0.688 1.698 1.541s-0.762 1.541-1.698 1.541l-1.098 0.846c-0.314 0.291-0.604 0.632-0.882 1.033-1.68 2.474-1.393 5.279-0.385 7.082 0.961 1.752 2.09 2.277 2.736 2.662 1.104 0.646 2.688 1.057 4.393 1.057 1.703 0 3.288-0.407 4.392-1.057 0.648-0.385 1.776-0.91 2.736-2.662 1.008-1.803 1.296-4.608-0.385-7.082-0.271-0.396-0.557-0.729-0.866-1.021l-1.028-0.863c-0.938 0-1.698-0.688-1.698-1.54 0-0.851 0.762-1.54 1.698-1.54h0.008c0.938 0 1.697 0.688 1.697 1.54 0 0.851-0.762 1.54-1.697 1.54l0.953 0.848c1.034-0.399 1.763-1.367 1.763-2.498 0-1.487-1.27-2.694-2.83-2.694-1.563 0-2.828 1.207-2.828 2.694 0 0.896 0.458 1.689 1.162 2.181 0.474 0.328 1.086 1.09 1.492 2.026 0.792 1.822 1.057 5.978-1.08 8.109-0.983 0.984-2.256 1.248-3.479 1.248s-2.496-0.264-3.479-1.248c-2.14-2.135-1.873-6.287-1.082-8.109 0.396-0.914 0.96-1.698 1.429-2.022 0.703-0.489 1.161-1.282 1.161-2.181 0-1.487-1.269-2.694-2.827-2.694-1.563 0-2.83 1.207-2.83 2.694 0 1.13 0.729 2.097 1.761 2.498l1.098-0.846c-0.938 0-1.699-0.688-1.699-1.541 0-0.86 0.76-1.55 1.7-1.55z"/>
<g id="g4327">
	<path id="path4329" d="m321.16 241.88c0.873 0.504 1.75 0.955 2.496 1.247l-0.945 1.642-1.365-0.565-0.034 0.063c0.479 0.996 0.549 2.506-0.279 3.94-1.176 2.037-3.211 2.248-4.666 1.408-2.432-1.404-2.514-4.333-0.248-8.208l-0.209-0.12c-0.828-0.48-2.479-1.127-3.646 0.942-0.554 0.956-0.849 2.089-0.777 3.072l-1.465-0.292c-0.041-1.131 0.313-2.562 1.047-3.83 1.787-3.097 4.317-2.633 6.334-1.469l3.76 2.18zm-3.76 0.22c-1.191 1.971-2.146 4.441-0.193 5.569 1.207 0.696 2.203 0.218 2.729-0.696 0.77-1.33 0.432-2.663-0.256-3.445-0.15-0.17-0.347-0.311-0.533-0.419l-1.75-1z"/>
</g>
<g id="g4337">
	<path id="path4339" d="m419.48 80.746l-1.682 5.088h-2.159l5.497-16.177h2.52l5.521 16.177h-2.232l-1.728-5.088h-5.74zm5.3-1.633l-1.605-4.656c-0.336-1.056-0.576-2.016-0.815-2.952h-0.072c-0.216 0.936-0.479 1.944-0.792 2.928l-1.582 4.68h4.86z"/>
</g>
<path id="path4341" d="m172.38 406.49c-2.104 9.054 0 26.677 4.527 32.174" stroke="#000" stroke-linecap="round" stroke-miterlimit="10" stroke-dasharray="4.252" stroke-width="2.126" fill="none"/>
<g id="g4343">
	<polyline id="polyline4345" stroke="#000" points="44.394 394.58 162.7 300.21 520.45 334.01" stroke-dasharray="9.9213" stroke-miterlimit="10" stroke-width=".9921" fill="none"/>
</g><g stroke="#000" stroke-width=".2835" stroke-miterlimit="10"><g stroke-dasharray="5.6693">
<circle id="circle4347" r="3.543" cy="402.92" cx="137"/>
<circle id="circle4349" r="3.543" cy="476.67" cx="199.67"/>
<circle id="circle4351" r="3.543" cy="93.333" cx="415.67"/>
<circle id="circle4353" r="3.543" cy="285.33" cx="307"/>
<circle id="circle4355" r="3.543" cy="425.43" cx="374.87"/>
</g><circle id="circle4357" r="3.543" cy="458.28" cx="382.2" fill="#6f6"/></g><g stroke="#000" stroke-miterlimit="10" fill="none">
<line id="line4359" y2="402.92" x1="227.2" x2="140.54" y1="411.46" stroke-width="1.4173"/>
<line id="line4361" y2="425.43" x1="244.36" x2="374.33" y1="413.01" stroke-width="1.4173"/>
<path id="path4363" d="m326.2 426.17c-6.524 4.153-16.021 6.922-23.532 8.504" stroke-width="2.126"/>
<path id="path4365" d="m177.25 439.25c3 3.5 5 7.25 13.5 13" stroke-linecap="round"/>
</g><polygon id="polygon4367" points="193.99 447.35 187.53 457.68 209.89 461.32"/>
<g id="g4369">
	<g id="g4371">
			<line id="line4373" y2="466.88" x1="250.59" x2="260.21" stroke="#000" stroke-miterlimit="10" y1="445.44" stroke-width="2.126" fill="none"/>
		<g id="g4375">
			<polygon id="polygon4377" points="253.74 465.72 267 482 263.65 461.27"/>
		</g>
	</g>
</g>
<line id="line4379" y2="446.09" x1="237.44" x2="250.96" stroke="#000" stroke-dasharray="4.252" y1="416.37" stroke-miterlimit="10" stroke-width="2.126" fill="none"/>
<g id="g4381">
	<path id="path4383" d="m226.88 463.17l4.016-0.461c0.218 0.699 0.377 1.404 0.48 2.121 0.146 1.049 0.228 2.283 0.244 3.705 0.004 0.715-0.042 2.221-0.139 4.52 1.258-1.143 2.009-1.852 2.256-2.131 1.354-1.508 2.137-2.393 2.346-2.656 0.347-0.451 0.597-0.854 0.749-1.205 0.126-0.262 0.201-0.516 0.226-0.762 0.022-0.234-0.162-0.527-0.554-0.877s-0.569-0.715-0.532-1.096c0.027-0.289 0.169-0.537 0.422-0.742 0.253-0.203 0.539-0.291 0.855-0.26 0.383 0.037 0.702 0.227 0.962 0.563 0.261 0.342 0.367 0.744 0.322 1.207-0.045 0.461-0.161 0.9-0.349 1.313-0.303 0.666-0.822 1.465-1.563 2.395-0.741 0.935-1.908 2.162-3.504 3.691-0.202 0.188-1.313 1.146-3.328 2.863l-0.503-0.052c0.34-5.764 0.232-9.391-0.316-10.881-0.183-0.483-0.536-0.754-1.063-0.805-0.229-0.021-0.556-0.014-0.979 0.027l-0.06-0.48z"/>
</g>
<g id="g4385">
	<path id="path4387" d="m268.66 468.16l2.603-12.445h1.875l-0.527 2.543c0.643-0.961 1.27-1.672 1.883-2.133 0.611-0.461 1.238-0.691 1.881-0.691 0.422 0 0.939 0.152 1.56 0.457l-0.867 1.972c-0.367-0.269-0.771-0.398-1.207-0.398-0.74 0-1.504 0.414-2.285 1.242-0.779 0.828-1.395 2.316-1.84 4.465l-1.055 4.992-2-0.01z"/>
</g>
<circle id="circle4389" cy="482" cx="266.5" r="5.669" fill="#00f"/>
<g id="g4391">
	<g id="g4393">
		<path id="path4395" d="m212.24 453.64c8.716 4.022 20.896 4.573 30.205 3.923" stroke="#000" stroke-miterlimit="10" stroke-width="1.9843" fill="none"/>
		<g id="g4397">
			<polygon id="polygon4399" points="240.26 461.89 254.76 455.57 239.04 453.79"/>
		</g>
	</g>
</g>
<g id="g4401">
	<path id="path4403" d="m512.91 399.88l2.604-12.445h2.121l-2.604 12.445h-2.12zm3.1-14.78l0.504-2.399h2.106l-0.504 2.399h-2.11z"/>
</g>
<g id="g4405">
	<g id="g4407">
		<path id="path4409" d="m268.91 343.55l-1.363-0.562-0.033 0.063c0.482 1.009 0.594 2.496-0.208 3.945-1.141 2.058-3.17 2.307-4.641 1.492-2.457-1.359-2.593-4.288-0.396-8.203l-0.21-0.116c-0.84-0.465-2.479-1.071-3.63 1.009-0.523 0.944-0.776 2.094-0.71 3.063l-1.45-0.254c-0.081-1.144 0.235-2.56 0.944-3.839 1.722-3.107 4.261-2.69 6.298-1.563l3.801 2.104c0.882 0.486 1.768 0.923 2.528 1.181l-0.93 1.68zm-5.34-2.6c-1.157 1.993-2.067 4.479-0.095 5.572 1.196 0.66 2.206 0.178 2.729-0.769 0.731-1.323 0.355-2.629-0.343-3.396-0.153-0.168-0.34-0.326-0.528-0.433l-1.77-0.97z"/>
	</g>
	<g id="g4411">
		<path id="path4413" d="m266.85 336.14c-0.775-0.43-1.032-1.257-0.625-1.992 0.405-0.732 1.23-0.937 2.008-0.506 0.757 0.418 1.057 1.215 0.626 1.992-0.4 0.73-1.25 0.92-2.01 0.51z"/>
	</g>
	<g id="g4415">
		<path id="path4417" d="m271.07 328.44c2.521 1.343 4.437 0.314 5.458-1.531 0.731-1.323 0.941-2.249 1.031-3.105l1.498 0.418c-0.065 0.813-0.348 2.113-1.241 3.729-1.73 3.129-4.824 3.856-7.891 2.162-3.066-1.697-4.48-4.841-2.844-7.802 1.836-3.316 5.244-2.586 7.113-1.551 0.377 0.209 0.647 0.414 0.824 0.54l-3.95 7.14zm1.68-6.16c-1.165-0.672-3.271-1.18-4.421 0.898-1.035 1.869 0.232 3.643 1.435 4.497l2.99-5.4z"/>
	</g>
</g>
<path id="path4419" d="m243.84 408.26c1.152 1.825 1.83 3.72 1.462 5.905-0.329 1.983-3.714 2.4-5.437 2.565-4.164 0.408-9.886 0.84-13.55-1.602-1.479-0.992-0.439-4.013 0.189-5.25 1.04-2.037 2.619-3.854 4.738-4.826 4.63-2.1 9.49-0.7 12.6 3.22z" fill="#F9D600"/>
<path id="path4421" d="m506.73 504.96c0.218-2.646 0.15-7.394-0.486-9.807-0.309-1.175-0.49-1.627-1.06-2.438-0.698-0.992-2.181-2.041-3.233-2.041-1.374 0-2.023 0.44-2.855 1.274l-0.318-1.481c0.459-0.364 1.359-0.865 2.312-1.03 0.881-0.157 1.805-0.012 2.468 0.262 0.867 0.482 1.289 0.595 2.229 1.535 0.738 0.74 1.427 2.047 1.677 3.314 0.021 0.099 0.04 0.197 0.059 0.301 0.017-0.104 0.035-0.202 0.06-0.301 0.247-1.269 0.936-2.574 1.676-3.314 0.941-0.94 1.36-1.053 2.23-1.535 0.659-0.272 1.582-0.419 2.463-0.262 0.952 0.165 1.854 0.665 2.313 1.03l-0.314 1.481c-0.837-0.834-1.482-1.274-2.859-1.274-1.049 0-2.534 1.049-3.232 2.041-0.569 0.813-0.748 1.265-1.06 2.438-0.635 2.413-0.702 7.16-0.487 9.807h-1.59z"/>
<g id="layer1"><g font-size="22.5px" font-family="&apos;Bitstream Vera Sans&apos;" fill="#000000"><text id="text4510" style="word-spacing:0px;letter-spacing:-1px" xml:space="preserve" line-height="89.99999762%" y="299.073" x="314.92801"><tspan id="tspan4512" x="314.92801" y="299.073">C</tspan></text>
<text id="text4514" style="word-spacing:0px;letter-spacing:-1px" xml:space="preserve" line-height="89.99999762%" y="402.82999" x="221.56"><tspan id="tspan4516" x="221.56" y="402.82999">F</tspan></text>
<text id="text4518" style="word-spacing:0px;letter-spacing:-1px" xml:space="preserve" line-height="89.99999762%" y="507.82401" x="261.517"><tspan id="tspan4520" x="261.517" y="507.82401">CB</tspan></text></g><g>
<g id="text4548"><path id="path4555" d="m197.9 167.75q-0.71527 0.81449-0.49251 1.8484 0.21725 1.0291 1.3234 2.0005 1.1062 0.97141 2.1554 1.0642 1.0485 0.0825 1.7686-0.73751 0.71044-0.80899 0.48768-1.8429t-1.3234-2.0005q-1.0952-0.96176-2.1492-1.0491-1.0595-0.0922-1.77 0.71684zm-0.85852-0.75394q1.1599-1.3208 2.6805-1.3208 1.5206-0.00003 3.0396 1.3339 1.5134 1.329 1.7153 2.8418 0.19642 1.5079-0.96349 2.8287-1.1647 1.3263-2.6854 1.3263-1.5213-0.0103-3.0347-1.3394-1.5189-1.3339-1.7202-2.8363-0.19642-1.5079 0.96832-2.8342z"/><path id="path4557" d="m204.77 160.62q-0.25053 0.0785-0.47669 0.23891-0.22662 0.15004-0.44416 0.3878-0.77128 0.84298-0.6354 1.8012 0.13542 0.94786 1.1621 1.8872l3.1882 2.917-0.91466 0.99969-6.0522-5.5374 0.91465-0.99969 0.94025 0.86027q-0.26443-0.81771-0.0694-1.5625 0.18961-0.74975 0.84717-1.4684 0.0939-0.10267 0.22387-0.21212 0.12452-0.1144 0.28997-0.24098l1.0262 0.92902z"/><path id="path4559" d="m211.26 157.9q-1.0794-1.0225-2.114-1.155-1.0349-0.14292-1.7702 0.63342-0.73537 0.77634-0.54165 1.8073 0.19345 1.0206 1.2729 2.043 1.0794 1.0225 2.1143 1.1654 1.0346 0.13257 1.77-0.64377 0.73538-0.77634 0.54193-1.7969-0.19373-1.0309-1.2732-2.0534zm-5.2321 1.3593q-0.23961-0.81209-0.0516-1.5218 0.18772-0.72006 0.80725-1.3741 1.0275-1.0848 2.5286-0.9441 1.5061 0.13534 2.9099 1.4651 1.4038 1.3297 1.6205 2.8263 0.22175 1.4913-0.80576 2.576-0.61953 0.65404-1.323 0.88552-0.70379 0.22112-1.5277 0.0258l0.89332 0.84619-0.93181 0.98372-8.2739-7.8373 0.93182-0.98371 3.2223 3.0523z"/><path id="path4561" d="m210.2 153.09 0.94067-0.96504 5.8742 5.7258-0.94067 0.96504-5.8742-5.7258zm-2.2867-2.229 0.94068-0.96504 1.222 1.1912-0.94068 0.96504-1.222-1.1912z"/><path id="path4563" d="m211.75 148.19 1.6517 1.6421 1.9571-1.9685 0.74274 0.73845-1.9571 1.9685 3.158 3.1397q0.71158 0.70746 1.1052 0.71668 0.3988 0.004 0.99266-0.59329l0.97598-0.98167 0.79988 0.79525-0.97599 0.98167q-1.0999 1.1063-1.9285 1.1191-0.8338 0.008-1.9245-1.0768l-3.158-3.1397-0.69713 0.70119-0.74275-0.73844 0.69714-0.7012-1.6517-1.6421 0.95533-0.96089z"/><path id="path4565" d="m221.71 143q-0.78419 0.74837-0.65331 1.7979 0.12582 1.0442 1.1422 2.1092t2.0533 1.2499q1.0372 0.17447 1.8267-0.57895 0.7789-0.74332 0.64802-1.7928t-1.1422-2.1092q-1.0063-1.0544-2.0485-1.2342-1.0473-0.18507-1.8262 0.55824zm-0.78882-0.82658q1.2717-1.2136 2.7864-1.0797 1.5147 0.13383 2.9104 1.5962 1.3906 1.4571 1.4585 2.9818 0.0629 1.5193-1.2088 2.7329-1.277 1.2186-2.7917 1.0848-1.5145-0.14419-2.905-1.6013-1.3956-1.4624-1.4638-2.9767-0.0629-1.5193 1.214-2.738z"/><path id="path4567" d="m225.68 133.64 0.7599 0.82359-0.94741 0.87413q-0.53291 0.4917-0.54418 0.90072-0.006 0.40405 0.51064 0.96388l0.4917 0.53292 1.631-1.5049 0.71023 0.76976-1.631 1.5049 4.8524 5.2592-0.99586 0.91883-4.8524-5.2592-0.94741 0.87413-0.71023-0.76977 0.94741-0.87413-0.3874-0.41987q-0.92877-1.0066-0.88261-1.8963 0.0412-0.89503 1.0586-1.8337l0.93664-0.86419z"/><path id="path4569" d="m230.37 130.63 1.537 1.7499 2.0856-1.8318 0.69117 0.78693-2.0856 1.8318 2.9387 3.3458q0.66217 0.75391 1.0543 0.78969 0.39762 0.0309 1.0305-0.52489l1.0401-0.91351 0.74434 0.84745-1.0401 0.91351q-1.1721 1.0295-1.9997 0.98628-0.83241-0.0487-1.8474-1.2044l-2.9387-3.3458-0.7429 0.65251-0.69118-0.78693 0.7429-0.6525-1.537-1.75 1.018-0.89417z"/><path id="path4571" d="m242.02 128.02 3.186 3.7899-1.0316 0.86719-3.1577-3.7563q-0.74937-0.89142-1.4693-1.0421-0.71993-0.1507-1.4151 0.43372-0.83536 0.70223-0.86977 1.6402-0.0344 0.93793 0.73851 1.8574l2.9833 3.5488-1.0372 0.87191-7.3334-8.7236 1.0372-0.8719 2.8749 3.4199q-0.10599-0.8773 0.15733-1.5771 0.26893-0.70449 0.92488-1.2559 1.082-0.90961 2.2026-0.70343 1.1159 0.20057 2.2093 1.5013z"/><path id="path4573" d="m249.28 122.9 0.40882 0.51708-4.8606 3.843q0.93202 1.0371 1.9723 1.1483 1.0415 0.10091 2.0929-0.73036 0.60901-0.48151 1.0597-1.0806 0.45644-0.60363 0.78328-1.3476l0.7904 0.9997q-0.37801 0.69102-0.8756 1.2898-0.49759 0.59882-1.1124 1.0849-1.5398 1.2174-3.1504 1.0343-1.6049-0.18766-2.8132-1.7159-1.2492-1.58-1.1302-3.1773 0.12018-1.6076 1.568-2.7523 1.2985-1.0266 2.7143-0.78284 1.417 0.23348 2.5527 1.6698zm-1.3024 0.52556q-0.69741-0.85847-1.5831-0.99853-0.87995-0.1446-1.6613 0.47318-0.8848 0.69954-1.0239 1.6218-0.13338 0.91777 0.5039 1.8891l3.7645-2.9856z"/><path id="path4575" d="m256.25 113.54 0.73221 1.0251q-0.64794 0.0758-1.2082 0.28691-0.55853 0.20093-1.0353 0.54149-1.0668 0.76201-1.1716 1.8629-0.109 1.0949 0.76369 2.3167 0.8727 1.2218 1.948 1.4798 1.0711 0.25204 2.1379-0.50997 0.4768-0.34057 0.85229-0.79777 0.37718-0.46743 0.65901-1.0558l0.7237 1.0132q-0.30567 0.54236-0.72373 1.003-0.41209 0.45636-0.96637 0.85226-1.5079 1.077-3.0728 0.76368-1.5649-0.31334-2.7143-1.9226-1.1664-1.633-0.94078-3.2073 0.23161-1.5785 1.7931-2.6939 0.5066-0.36185 1.066-0.59939 0.55513-0.2435 1.1571-0.35843z"/><path id="path4577" d="m265.38 111.62 0.36214 0.55079-5.1775 3.4041q0.83794 1.1145 1.8646 1.3161 1.0287 0.19143 2.1487-0.54491 0.64871-0.42651 1.15-0.98398 0.50738-0.56149 0.89791-1.274l0.70012 1.0649q-0.43688 0.65538-0.98483 1.2085-0.54796 0.5531-1.2028 0.98364-1.6402 1.0784-3.2287 0.75536-1.5824-0.32701-2.6527-1.9549-1.1065-1.683-0.84858-3.2638 0.26003-1.591 1.8023-2.6049 1.3831-0.90936 2.7723-0.54295 1.3913 0.35627 2.3972 1.8863zm-1.3434 0.40988q-0.61982-0.91607-1.4899-1.1329-0.86397-0.22086-1.6963 0.32637-0.94247 0.61965-1.1616 1.5263-0.21298 0.90262 0.33709 1.9259l4.0107-2.6457z"/><path id="path4579" d="m262.87 105.03 1.1465-0.70837 5.9904 9.6951-1.1465 0.70837-5.9904-9.6951z"/><path id="path4581" d="m275.37 105.68 0.33207 0.56943-5.3526 3.1215q0.77697 1.1578 1.7913 1.4142 1.017 0.24633 2.1748-0.42888 0.67066-0.39111 1.2011-0.92089 0.53676-0.53347 0.96494-1.2241l0.642 1.1009q-0.4714 0.63101-1.0482 1.1539-0.57683 0.52292-1.2538 0.91772-1.6956 0.98884-3.2646 0.58111-1.5626-0.41141-2.544-2.0944-1.0147-1.7399-0.67232-3.3046 0.34498-1.5747 1.9394-2.5045 1.4299-0.83387 2.7974-0.39348 1.3702 0.43036 2.2926 2.0121zm-1.3634 0.33725q-0.5698-0.94799-1.427-1.2112-0.85088-0.26687-1.7114 0.23493-0.97435 0.56821-1.2418 1.4618-0.26108 0.88989 0.23332 1.9412l4.1468-2.4268z"/><path id="path4583" d="m279.48 99.453 0.6075 1.1203q-0.64185 0.0148-1.2525 0.1793-0.61066 0.16451-1.1901 0.47874-0.88207 0.47833-1.1797 0.98965-0.29118 0.50783 0.002 1.0487 0.22345 0.41206 0.66812 0.4792 0.44118 0.0607 1.5093-0.24355l0.45451-0.12982q1.4086-0.4139 2.2054-0.20444 0.79974 0.19954 1.2781 1.0816 0.54467 1.0044 0.064 2.0232-0.47421 1.0153-1.8649 1.7695-0.57947 0.31423-1.2733 0.5405-0.68388 0.22921-1.5014 0.38094l-0.66337-1.2233q0.84177-0.0149 1.5734-0.18669 0.72819-0.17825 1.3527-0.51692 0.837-0.45389 1.1341-0.98158 0.29358-0.53413 0.0108-1.0556-0.26186-0.48289-0.72988-0.56236-0.46158-0.083-1.6917 0.27584l-0.46444 0.12687q-1.2267 0.36525-1.9744 0.15415-0.75118-0.21754-1.2051-1.0545-0.55164-1.0173-0.13079-1.962 0.42084-0.94475 1.7472-1.664 0.65673-0.35613 1.2886-0.57378 0.63184-0.21765 1.2259-0.28984z"/><path id="path4585" d="m281.06 95.744 1.0645 2.0716 2.469-1.2687 0.47869 0.93157-2.469 1.2687 2.0353 3.9608q0.4586 0.89249 0.83019 1.0227 0.3781 0.12686 1.1273-0.2581l1.2312-0.63267 0.51551 1.0032-1.2312 0.63267q-1.3876 0.71301-2.1797 0.46951-0.79547-0.25001-1.4984-1.6181l-2.0352-3.9608-0.87946 0.45191-0.47869-0.93157 0.87946-0.45191-1.0645-2.0716 1.2052-0.61928z"/><path id="path4587" d="m285.4 96.154 1.2074-0.59857 3.6434 7.3496-1.2074 0.59857-3.6435-7.3496zm-1.4183-2.8611 1.2074-0.59857 0.75797 1.529-1.2074 0.59857-0.75797-1.529z"/><path id="path4589" d="m293.49 96.775q-1.4771 0.6971-1.8873 1.3037-0.4102 0.60664-0.0257 1.4213 0.30635 0.64912 0.91157 0.83322 0.60872 0.17436 1.3439-0.17263 1.0134-0.47828 1.2852-1.4812 0.27526-1.0127-0.28742-2.2049l-0.12816-0.27157-1.2121 0.57206zm2.1933-1.6506 1.9975 4.2325-1.2187 0.57519-0.53142-1.126q-0.0984 0.87255-0.56788 1.491-0.47257 0.61177-1.3734 1.0369-1.1393 0.53767-2.115 0.22066-0.97221-0.32676-1.4786-1.3998-0.59082-1.2519-0.0563-2.2816 0.5411-1.0329 2.2036-1.8175l1.7089-0.80651-0.0563-0.11922q-0.397-0.8412-1.1691-1.0356-0.76858-0.20419-1.7688 0.26783-0.63586 0.3001-1.1667 0.73691-0.53085 0.43681-0.94344 1.0041l-0.53142-1.126q0.54707-0.57405 1.1169-0.99687 0.56672-0.42944 1.1628-0.71078 1.6095-0.75962 2.7982-0.30017t1.989 2.1551z"/><path id="path4591" d="m294.63 88.239 1.2292-0.55255 4.6726 10.395-1.2292 0.55255-4.6726-10.395z"/><path id="path4593" d="m309.52 89.793q-0.56924-1.3735-1.4601-1.9161-0.88687-0.55213-1.8747-0.14273-0.98786 0.4094-1.2309 1.4298-0.23912 1.0109 0.33012 2.3844t1.4561 1.9257q0.89083 0.54256 1.8787 0.13316 0.98786-0.4094 1.227-1.4203 0.24308-1.0204-0.32616-2.394zm-5.332-0.89019q0.11203-0.83926 0.57285-1.4108 0.46479-0.58111 1.297-0.92602 1.3803-0.57204 2.6939 0.16795 1.3203 0.73719 2.0606 2.5235 0.74029 1.7863 0.32849 3.2413-0.40504 1.4522-1.7853 2.0243-0.83224 0.34491-1.569 0.2697-0.73283-0.08478-1.4057-0.59876l0.4711 1.1367-1.2517 0.51876-4.3632-10.528 1.2517-0.51876 1.6993 4.1003z"/><path id="path4595" d="m313.89 84.674q-1.0114 0.38987-1.2936 1.4092-0.2848 1.0125 0.24468 2.3861 0.52948 1.3737 1.416 1.9425 0.89067 0.55938 1.909 0.16688 1.0046-0.38723 1.2868-1.4065 0.28216-1.0193-0.24468-2.3861-0.52422-1.36-1.4175-1.9262-0.89594-0.57305-1.9006-0.18581zm-0.41095-1.0661q1.6402-0.63222 2.9874 0.07301t2.0743 2.5914q0.72441 1.8794 0.20171 3.3132-0.52533 1.427-2.1655 2.0592-1.647 0.63485-2.9942-0.07038-1.343-0.7147-2.0674-2.5941-0.72705-1.8862-0.20856-3.3106 0.52534-1.427 2.1724-2.0619z"/><path id="path4597" d="m323.93 81.298-1.4892-4.1812 1.2695-0.45216 3.8237 10.736-1.2695 0.45216-0.41284-1.1591q-0.15444 0.8325-0.6481 1.3893-0.48922 0.54743-1.3448 0.85215-1.4006 0.49884-2.6819-0.30436-1.2744-0.80566-1.9231-2.6272-0.64875-1.8215-0.17058-3.2513 0.48506-1.4323 1.8857-1.9311 0.85556-0.30471 1.5831-0.18288 0.73203 0.11248 1.3779 0.65992zm-3.3653 4.2385q0.49885 1.4006 1.3566 1.997 0.86217 0.58704 1.8695 0.22827 1.0074-0.35878 1.3043-1.3587 0.29452-1.0068-0.20433-2.4074-0.49884-1.4006-1.361-1.9877-0.86463-0.59394-1.872-0.23517-1.0074 0.35878-1.3019 1.3656-0.29008 0.99742 0.20876 2.3981z"/><path id="path4599" d="m332.7 86.501q-0.0932 1.5695-0.47154 2.1613-0.37835 0.59179-1.2426 0.87106l-1.0245 0.33106-0.34683-1.0733 0.75269-0.24323q0.52968-0.17116 0.74131-0.51665 0.21164-0.34549 0.26529-1.3942l0.0408-0.65975-5.639-6.66 1.359-0.43917 4.4122 5.3169 0.4664-6.8934 1.359-0.43917-0.67231 9.6386z"/></g><g id="text4633" transform="matrix(.98713 .093311 -.27413 .98713 0 0)" display="none"><path id="path4650" d="m167.97 3.4409q-1.8799 0-2.9907 1.4014-1.1023 1.4014-1.1023 3.8196 0 2.4097 1.1023 3.811 1.1108 1.4014 2.9907 1.4014t2.9736-1.4014q1.1023-1.4014 1.1023-3.811 0-2.4182-1.1023-3.8196-1.0938-1.4014-2.9736-1.4014zm0-1.4014q2.6831 0 4.2896 1.803 1.6064 1.7944 1.6064 4.8193 0 3.0164-1.6064 4.8193-1.6064 1.7944-4.2896 1.7944-2.6916 0-4.3066-1.7944-1.6064-1.7944-1.6064-4.8193t1.6064-4.8193q1.615-1.803 4.3066-1.803z"/><path id="path4652" d="m181.03 6.9273q-0.26489-0.15381-0.58106-0.22217-0.30761-0.076904-0.68359-0.076904-1.333 0-2.0508 0.87158-0.70923 0.86304-0.70923 2.4866v5.0415h-1.5808v-9.5703h1.5808v1.4868q0.4956-0.87158 1.2903-1.2903 0.79468-0.42725 1.9312-0.42725 0.16235 0 0.35888 0.025635 0.19653 0.01709 0.43579 0.059815l0.009 1.615z"/><path id="path4654" d="m188.55 10.251q0-1.7346-0.71777-2.7173-0.70923-0.99121-1.9568-0.99121t-1.9653 0.99121q-0.70923 0.98267-0.70923 2.7173t0.70923 2.7258q0.71778 0.98267 1.9653 0.98267 1.2476 0 1.9568-0.98267 0.71777-0.99121 0.71777-2.7258zm-5.3491-3.3411q0.49561-0.85449 1.2476-1.2646 0.7605-0.4187 1.8115-0.4187 1.7432 0 2.8284 1.3843 1.0938 1.3843 1.0938 3.6401 0 2.2559-1.0938 3.6401-1.0852 1.3843-2.8284 1.3843-1.051 0-1.8115-0.41016-0.75195-0.4187-1.2476-1.2732v1.4355h-1.5808v-13.296h1.5808v5.1782z"/><path id="path4656" d="m191.77 5.4575h1.5723v9.5703h-1.5723v-9.5703zm0-3.7256h1.5723v1.991h-1.5723v-1.991z"/><path id="path4658" d="m197.17 2.7402v2.7173h3.2385v1.2219h-3.2385v5.1953q0 1.1707 0.31616 1.5039 0.3247 0.33325 1.3074 0.33325h1.615v1.3159h-1.615q-1.8201 0-2.5122-0.67505-0.69213-0.68359-0.69213-2.478v-5.1953h-1.1536v-1.2219h1.1536v-2.7173h1.5808z"/><path id="path4660" d="m205.82 10.217q-1.9055 0-2.6404 0.43579-0.73486 0.43579-0.73486 1.4868 0 0.8374 0.54687 1.333 0.55542 0.48706 1.5039 0.48706 1.3074 0 2.0935-0.92285 0.79467-0.9314 0.79467-2.4695v-0.35034h-1.5637zm3.136-0.64941v5.4602h-1.5723v-1.4526q-0.53833 0.87158-1.3416 1.2903-0.80322 0.41016-1.9653 0.41016-1.4697 0-2.3413-0.82031-0.86304-0.82886-0.86304-2.2131 0-1.615 1.0767-2.4353 1.0852-0.82031 3.23-0.82031h2.2046v-0.15381q0-1.0852-0.71777-1.6748-0.70923-0.59814-1.9995-0.59814-0.82031 0-1.5979 0.19653t-1.4954 0.5896v-1.4526q0.86303-0.33325 1.6748-0.49561 0.81177-0.1709 1.5808-0.1709 2.0764 0 3.1018 1.0767t1.0254 3.2642z"/><path id="path4662" d="m211.19 1.7319h1.5723v13.296h-1.5723v-13.296z"/><path id="path4664" d="m221.11 13.592v5.0757h-1.5808v-13.21h1.5808v1.4526q0.49561-0.85449 1.2476-1.2646 0.7605-0.4187 1.8115-0.4187 1.7432 0 2.8284 1.3843 1.0938 1.3843 1.0938 3.6401 0 2.2559-1.0938 3.6401-1.0852 1.3843-2.8284 1.3843-1.051 0-1.8115-0.41016-0.75195-0.4187-1.2476-1.2732zm5.3491-3.3411q0-1.7346-0.71777-2.7173-0.70923-0.99121-1.9568-0.99121t-1.9653 0.99121q-0.70923 0.98267-0.70923 2.7173t0.70923 2.7258q0.71777 0.98267 1.9653 0.98267 1.2476 0 1.9568-0.98267 0.71777-0.99121 0.71777-2.7258z"/><path id="path4666" d="m229.69 1.7319h1.5723v13.296h-1.5723v-13.296z"/><path id="path4668" d="m237.88 10.217q-1.9055 0-2.6404 0.43579-0.73486 0.43579-0.73486 1.4868 0 0.8374 0.54687 1.333 0.55542 0.48706 1.5039 0.48706 1.3074 0 2.0935-0.92285 0.79467-0.9314 0.79467-2.4695v-0.35034h-1.5637zm3.136-0.64941v5.4602h-1.5723v-1.4526q-0.53833 0.87158-1.3416 1.2903-0.80322 0.41016-1.9653 0.41016-1.4697 0-2.3413-0.82031-0.86304-0.82886-0.86304-2.2131 0-1.615 1.0767-2.4353 1.0852-0.82031 3.23-0.82031h2.2046v-0.15381q0-1.0852-0.71777-1.6748-0.70923-0.59814-1.9995-0.59814-0.82031 0-1.5979 0.19653t-1.4954 0.5896v-1.4526q0.86303-0.33325 1.6748-0.49561 0.81177-0.1709 1.5808-0.1709 2.0764 0 3.1018 1.0767t1.0254 3.2642z"/><path id="path4670" d="m251.2 9.2515v5.7764h-1.5723v-5.7251q0-1.3586-0.52979-2.0337-0.52978-0.67505-1.5894-0.67505-1.2732 0-2.0081 0.81177-0.73486 0.81177-0.73486 2.2131v5.4089h-1.5808v-9.5703h1.5808v1.4868q0.56396-0.86304 1.3245-1.2903 0.76904-0.42725 1.7688-0.42725 1.6492 0 2.4951 1.0254 0.84594 1.0168 0.84594 2.9993z"/><path id="path4672" d="m261.53 9.8496v0.76904h-7.229q0.10254 1.6235 0.97412 2.478 0.88013 0.84595 2.4438 0.84595 0.90576 0 1.7517-0.22217 0.85449-0.22217 1.6919-0.6665v1.4868q-0.84594 0.35889-1.7346 0.54688-0.88868 0.18799-1.803 0.18799-2.29 0-3.6316-1.333-1.333-1.333-1.333-3.606 0-2.3499 1.2646-3.7256 1.2732-1.3843 3.4265-1.3843 1.9312 0 3.0505 1.2476 1.1279 1.239 1.1279 3.3752zm-1.5723-0.46143q-0.0171-1.2903-0.72632-2.0593-0.70068-0.76904-1.8628-0.76904-1.3159 0-2.1106 0.74341-0.78613 0.74341-0.90576 2.0935l5.6055-0.00854z"/></g><g id="text4637" transform="matrix(1.1926 -.94453 .94453 .090449 0 0)" display="none"><path id="path4675" d="m-363.07 1008v-10.664h3.0396q1.4575 0 2.1899 0.71045 0.73975 0.71045 0.73975 2.1314 0 0.747-0.37354 1.3183-0.37353 0.5713-1.0107 0.8863 0.73242 0.2197 1.1572 0.9008 0.43212 0.6812 0.43212 1.6407 0 1.4355-0.79101 2.2558-0.78369 0.8203-2.2412 0.8203h-3.1421zm1.3403-4.9878v3.8379h1.831q0.76172 0 1.2085-0.498 0.44678-0.5054 0.44678-1.4136 0-1.9263-1.626-1.9263h-1.8604zm0-1.1279h1.7212q0.6958 0 1.1206-0.4687 0.43213-0.4688 0.43213-1.2452 0-0.87887-0.38819-1.2744-0.38818-0.40283-1.1865-0.40283h-1.6992v3.3911z"/><path id="path4677" d="m-352 1008q-0.11719-0.2563-0.16846-0.8642-0.68847 1.0107-1.7578 1.0107-1.0767 0-1.6846-0.6006-0.60059-0.6079-0.60059-1.7065 0-1.2085 0.82032-1.919 0.82031-0.7104 2.2485-0.7251h0.95215v-0.8422q0-0.7105-0.31494-1.0108t-0.95947-0.3003q-0.58594 0-0.95215 0.3516-0.36621 0.3442-0.36621 0.8789h-1.2964q0-0.6079 0.35889-1.1572 0.35888-0.5567 0.96679-0.8716 0.60791-0.31496 1.355-0.31496 1.2158 0 1.8457 0.60786 0.6372 0.6006 0.65185 1.7579v3.999q0.007 0.9155 0.24903 1.5893v0.1172h-1.3477zm-1.7285-1.0327q0.47608 0 0.90821-0.2637 0.43213-0.2636 0.62988-0.6591v-1.8897h-0.73242q-0.92285 0.015-1.4575 0.4175-0.53467 0.3955-0.53467 1.1133 0 0.6738 0.271 0.9814 0.27099 0.3003 0.91552 0.3003z"/><path id="path4679" d="m-346.05 1005.9q0-0.4175-0.31494-0.7178-0.31494-0.3002-1.2158-0.7031-1.0474-0.4321-1.4795-0.7397-0.4248-0.3076-0.63721-0.6958-0.2124-0.3955-0.2124-0.9375 0-0.9668 0.70313-1.604 0.71044-0.64456 1.8091-0.64456 1.1572 0 1.8604 0.67386 0.70312 0.6738 0.70312 1.7285h-1.2891q0-0.5347-0.35889-0.9082-0.35888-0.3809-0.91552-0.3809-0.57129 0-0.90088 0.3003-0.32227 0.293-0.32227 0.791 0 0.3955 0.23438 0.6372 0.2417 0.2417 1.1499 0.6372 1.4429 0.564 1.9629 1.106 0.52002 0.5347 0.52002 1.3623 0 1.0327-0.71045 1.6553-0.71045 0.6152-1.9043 0.6152-1.2378 0-2.0068-0.7104-0.76904-0.7105-0.76904-1.8018h1.3037q0.022 0.6592 0.40283 1.0327 0.38086 0.3736 1.0693 0.3736 0.64454 0 0.98145-0.2857 0.33691-0.293 0.33691-0.7837z"/><path id="path4681" d="m-342.67 1008h-1.2964v-7.9248h1.2964v7.9248zm0.10254-10.027q0 0.32959-0.1831 0.54932-0.18311 0.21972-0.55664 0.21972-0.36622 0-0.54932-0.21972-0.18311-0.21973-0.18311-0.54932t0.18311-0.55664q0.1831-0.22705 0.54932-0.22705 0.36621 0 0.54931 0.23437 0.19043 0.22706 0.19043 0.54932z"/><path id="path4683" d="m-338.89 1007q0.64453 0 1.0327-0.3956 0.38819-0.4028 0.42481-1.1425h1.2231q-0.0439 1.1425-0.81299 1.8969-0.76172 0.7471-1.8677 0.7471-1.4722 0-2.2485-0.9228-0.76904-0.9302-0.76904-2.7613v-0.8716q0-1.7944 0.76904-2.7246 0.76904-0.93746 2.2412-0.93746 1.2158 0 1.9263 0.76906 0.71778 0.769 0.76172 2.102h-1.2231q-0.0439-0.8789-0.42481-1.3183-0.37353-0.4395-1.04-0.4395-0.86425 0-1.2817 0.5713-0.41748 0.564-0.43212 1.8604v1.0107q0 1.3989 0.41015 1.9775 0.41748 0.5787 1.311 0.5787z"/><path id="path4685" d="m-330 1001.3q-0.271-0.051-0.58594-0.051-0.99609 0-1.3916 1.0913v5.6689h-1.2964v-7.9248h1.2598l0.022 0.8057q0.52002-0.95216 1.4722-0.95216 0.30762 0 0.5127 0.10254l0.007 1.2597z"/><path id="path4687" d="m-327.02 1008.1q-1.4795 0-2.2705-0.8789-0.79102-0.8862-0.80567-2.5928v-0.9594q0-1.7725 0.76905-2.7759 0.77636-1.0108 2.1606-1.0108 1.3916 0 2.0801 0.88626 0.68848 0.8862 0.70312 2.7612v0.8496h-4.4238v0.1831q0 1.2744 0.47607 1.853 0.4834 0.5787 1.3843 0.5787 0.57129 0 1.0034-0.2124 0.43945-0.2198 0.82031-0.6885l0.67383 0.8203q-0.84229 1.1865-2.5708 1.1865zm-0.14649-7.1045q-0.80566 0-1.1938 0.5567-0.38818 0.5493-0.43945 1.7138h3.1201v-0.1758q-0.0513-1.1279-0.41016-1.6113-0.35156-0.4834-1.0767-0.4834z"/><path id="path4689" d="m-323.25 1008v-6.8774h-1.0327v-1.0474h1.0327v-0.91551q0.022-1.2085 0.60791-1.8823 0.59326-0.68115 1.6699-0.68115 0.38819 0 0.7837 0.12451l-0.0659 1.0986q-0.27832-0.0659-0.59326-0.0659-1.106 0-1.106 1.5747v0.74703h1.355v1.0474h-1.355v6.8774h-1.2964z"/><path id="path4691" d="m-317.42 1008.1q-1.4795 0-2.2705-0.8789-0.79102-0.8862-0.80566-2.5928v-0.9594q0-1.7725 0.76904-2.7759 0.77637-1.0108 2.1606-1.0108 1.3916 0 2.0801 0.88626 0.68848 0.8862 0.70313 2.7612v0.8496h-4.4238v0.1831q0 1.2744 0.47607 1.853 0.4834 0.5787 1.3843 0.5787 0.57129 0 1.0034-0.2124 0.43945-0.2198 0.82031-0.6885l0.67383 0.8203q-0.84229 1.1865-2.5708 1.1865zm-0.14649-7.1045q-0.80566 0-1.1938 0.5567-0.38819 0.5493-0.43946 1.7138h3.1201v-0.1758q-0.0513-1.1279-0.41016-1.6113-0.35156-0.4834-1.0767-0.4834z"/><path id="path4693" d="m-310.94 1001.3q-0.271-0.051-0.58594-0.051-0.99609 0-1.3916 1.0913v5.6689h-1.2964v-7.9248h1.2598l0.022 0.8057q0.52002-0.95216 1.4722-0.95216 0.30762 0 0.5127 0.10254l0.007 1.2597z"/><path id="path4695" d="m-307.96 1008.1q-1.4795 0-2.2705-0.8789-0.79102-0.8862-0.80567-2.5928v-0.9594q0-1.7725 0.76905-2.7759 0.77636-1.0108 2.1606-1.0108 1.3916 0 2.0801 0.88626 0.68848 0.8862 0.70312 2.7612v0.8496h-4.4238v0.1831q0 1.2744 0.47607 1.853 0.4834 0.5787 1.3843 0.5787 0.57129 0 1.0034-0.2124 0.43945-0.2198 0.82031-0.6885l0.67383 0.8203q-0.84229 1.1865-2.5708 1.1865zm-0.14649-7.1045q-0.80566 0-1.1938 0.5567-0.38818 0.5493-0.43945 1.7138h3.1201v-0.1758q-0.0513-1.1279-0.41016-1.6113-0.35156-0.4834-1.0767-0.4834z"/><path id="path4697" d="m-303.54 1e3 0.0366 0.857q0.75439-1.0035 1.9263-1.0035 2.102 0 2.1314 2.8052v5.2661h-1.2891v-5.2075q0-0.9302-0.31494-1.3184-0.30761-0.3955-0.93017-0.3955-0.4834 0-0.87159 0.3223-0.38085 0.3223-0.61523 0.8423v5.7568h-1.2964v-7.9248h1.2232z"/><path id="path4699" d="m-295.74 1007q0.64454 0 1.0327-0.3956 0.38818-0.4028 0.4248-1.1425h1.2232q-0.0439 1.1425-0.81299 1.8969-0.76172 0.7471-1.8677 0.7471-1.4722 0-2.2485-0.9228-0.76904-0.9302-0.76904-2.7613v-0.8716q0-1.7944 0.76904-2.7246 0.76904-0.93746 2.2412-0.93746 1.2158 0 1.9263 0.76906 0.71777 0.769 0.76172 2.102h-1.2232q-0.0439-0.8789-0.4248-1.3183-0.37354-0.4395-1.04-0.4395-0.86426 0-1.2817 0.5713-0.41748 0.564-0.43213 1.8604v1.0107q0 1.3989 0.41016 1.9775 0.41748 0.5787 1.311 0.5787z"/><path id="path4701" d="m-289.72 1008.1q-1.4795 0-2.2705-0.8789-0.79101-0.8862-0.80566-2.5928v-0.9594q0-1.7725 0.76904-2.7759 0.77637-1.0108 2.1606-1.0108 1.3916 0 2.0801 0.88626 0.68848 0.8862 0.70313 2.7612v0.8496h-4.4238v0.1831q0 1.2744 0.47608 1.853 0.48339 0.5787 1.3843 0.5787 0.57129 0 1.0034-0.2124 0.43945-0.2198 0.82031-0.6885l0.67383 0.8203q-0.84228 1.1865-2.5708 1.1865zm-0.14648-7.1045q-0.80567 0-1.1938 0.5567-0.38819 0.5493-0.43945 1.7138h3.1201v-0.1758q-0.0513-1.1279-0.41015-1.6113-0.35157-0.4834-1.0767-0.4834z"/><path id="path4703" d="m-278.37 1004.4q0 1.8823-0.68115 2.8052-0.67383 0.9228-1.9116 0.9228-1.1938 0-1.8384-0.9009v3.8013h-1.2891v-10.972h1.1719l0.0659 0.8789q0.65185-1.0254 1.8677-1.0254 1.3037 0 1.9482 0.90816 0.64453 0.9082 0.6665 2.7173v0.8643zm-1.2891-0.7398q0-1.333-0.41016-1.9629-0.41015-0.6372-1.3184-0.6372-0.93017 0-1.4136 0.9302v4.1236q0.47607 0.9082 1.4282 0.9082 0.87891 0 1.2891-0.6299 0.41748-0.6372 0.42481-1.9409v-0.7911z"/><path id="path4705" d="m-276.28 1008h-1.2964v-11.25h1.2964v11.25z"/><path id="path4707" d="m-271.18 1008q-0.11719-0.2563-0.16846-0.8642-0.68848 1.0107-1.7578 1.0107-1.0767 0-1.6846-0.6006-0.60059-0.6079-0.60059-1.7065 0-1.2085 0.82031-1.919 0.82031-0.7104 2.2485-0.7251h0.95215v-0.8422q0-0.7105-0.31495-1.0108-0.31494-0.3003-0.95947-0.3003-0.58594 0-0.95215 0.3516-0.36621 0.3442-0.36621 0.8789h-1.2964q0-0.6079 0.35888-1.1572 0.35889-0.5567 0.9668-0.8716 0.60791-0.31496 1.355-0.31496 1.2158 0 1.8457 0.60786 0.63721 0.6006 0.65186 1.7579v3.999q0.007 0.9155 0.24902 1.5893v0.1172h-1.3476zm-1.7285-1.0327q0.47607 0 0.9082-0.2637 0.43213-0.2636 0.62989-0.6591v-1.8897h-0.73243q-0.92285 0.015-1.4575 0.4175-0.53466 0.3955-0.53466 1.1133 0 0.6738 0.27099 0.9814 0.271 0.3003 0.91553 0.3003z"/><path id="path4709" d="m-267.85 1e3 0.0366 0.857q0.75439-1.0035 1.9263-1.0035 2.102 0 2.1313 2.8052v5.2661h-1.2891v-5.2075q0-0.9302-0.31494-1.3184-0.30762-0.3955-0.93018-0.3955-0.4834 0-0.87158 0.3223-0.38086 0.3223-0.61523 0.8423v5.7568h-1.2964v-7.9248h1.2231z"/><path id="path4711" d="m-259.98 1008.1q-1.4795 0-2.2705-0.8789-0.79102-0.8862-0.80566-2.5928v-0.9594q0-1.7725 0.76904-2.7759 0.77637-1.0108 2.1606-1.0108 1.3916 0 2.0801 0.88626 0.68848 0.8862 0.70313 2.7612v0.8496h-4.4238v0.1831q0 1.2744 0.47607 1.853 0.4834 0.5787 1.3843 0.5787 0.57129 0 1.0034-0.2124 0.43945-0.2198 0.82031-0.6885l0.67383 0.8203q-0.84229 1.1865-2.5708 1.1865zm-0.14649-7.1045q-0.80566 0-1.1938 0.5567-0.38819 0.5493-0.43946 1.7138h3.1201v-0.1758q-0.0513-1.1279-0.41016-1.6113-0.35156-0.4834-1.0767-0.4834z"/></g><g id="text4641" transform="matrix(1.1926 -.94453 .94453 .090449 0 0)" display="none"><path id="path4714" d="m-361.2 1025.4q-1.4795 0-2.2705-0.8789-0.79101-0.8862-0.80566-2.5928v-0.9595q0-1.7724 0.76904-2.7758 0.77637-1.0108 2.1606-1.0108 1.3916 0 2.0801 0.8863 0.68848 0.8862 0.70313 2.7612v0.8496h-4.4238v0.1831q0 1.2744 0.47607 1.853 0.4834 0.5786 1.3843 0.5786 0.57129 0 1.0034-0.2124 0.43945-0.2197 0.82031-0.6884l0.67383 0.8203q-0.84228 1.1865-2.5708 1.1865zm-0.14648-7.1045q-0.80567 0-1.1938 0.5566-0.38819 0.5494-0.43946 1.7139h3.1201v-0.1758q-0.0513-1.1279-0.41015-1.6113-0.35157-0.4834-1.0767-0.4834z"/><path id="path4716" d="m-355.25 1024.3q0.64453 0 1.0327-0.3955 0.38818-0.4028 0.4248-1.1425h1.2232q-0.0439 1.1425-0.81299 1.8969-0.76172 0.7471-1.8677 0.7471-1.4722 0-2.2485-0.9229-0.76904-0.9301-0.76904-2.7612v-0.8716q0-1.7944 0.76904-2.7246 0.76904-0.9375 2.2412-0.9375 1.2158 0 1.9263 0.7691 0.71777 0.769 0.76172 2.102h-1.2232q-0.0439-0.8789-0.4248-1.3183-0.37354-0.4395-1.04-0.4395-0.86426 0-1.2817 0.5713-0.41748 0.564-0.43213 1.8603v1.0108q0 1.3989 0.41016 1.9775 0.41748 0.5786 1.311 0.5786z"/><path id="path4718" d="m-350.67 1025.2h-1.2964v-11.25h1.2964v11.25z"/><path id="path4720" d="m-348.24 1025.2h-1.2964v-7.9248h1.2964v7.9248zm0.10254-10.027q0 0.3296-0.18311 0.5493t-0.55664 0.2197q-0.36621 0-0.54932-0.2197-0.1831-0.2197-0.1831-0.5493t0.1831-0.5567q0.18311-0.227 0.54932-0.227t0.54932 0.2343q0.19043 0.2271 0.19043 0.5494z"/><path id="path4722" d="m-341.48 1021.7q0 1.8823-0.68115 2.8051-0.67383 0.9229-1.9116 0.9229-1.1938 0-1.8384-0.9009v3.8013h-1.2891v-10.972h1.1719l0.0659 0.8789q0.65186-1.0254 1.8677-1.0254 1.3037 0 1.9482 0.9082 0.64453 0.9082 0.6665 2.7173v0.8643zm-1.2891-0.7398q0-1.333-0.41015-1.9629-0.41016-0.6372-1.3184-0.6372-0.93018 0-1.4136 0.9302v4.1235q0.47608 0.9082 1.4282 0.9082 0.87891 0 1.2891-0.6298 0.41748-0.6372 0.4248-1.941v-0.791z"/><path id="path4724" d="m-339.1 1015.4v1.9189h1.1938v1.0474h-1.1938v4.9145q0 0.4688 0.15381 0.7105t0.52735 0.2417q0.25634 0 0.52002-0.088l-0.0147 1.0986q-0.43946 0.1465-0.90088 0.1465-0.76905 0-1.1719-0.5493-0.40283-0.5493-0.40283-1.5528v-4.9218h-1.2085v-1.0474h1.2085v-1.9189h1.2891z"/><path id="path4726" d="m-335.97 1025.2h-1.2964v-7.9248h1.2964v7.9248zm0.10254-10.027q0 0.3296-0.18311 0.5493-0.1831 0.2197-0.55664 0.2197-0.36621 0-0.54932-0.2197-0.1831-0.2197-0.1831-0.5493t0.1831-0.5567q0.18311-0.227 0.54932-0.227t0.54932 0.2343q0.19043 0.2271 0.19043 0.5494z"/><path id="path4728" d="m-332.19 1024.3q0.64453 0 1.0327-0.3955 0.38818-0.4028 0.4248-1.1425h1.2232q-0.0439 1.1425-0.81299 1.8969-0.76172 0.7471-1.8677 0.7471-1.4722 0-2.2485-0.9229-0.76904-0.9301-0.76904-2.7612v-0.8716q0-1.7944 0.76904-2.7246 0.76904-0.9375 2.2412-0.9375 1.2158 0 1.9263 0.7691 0.71777 0.769 0.76172 2.102h-1.2232q-0.0439-0.8789-0.4248-1.3183-0.37354-0.4395-1.04-0.4395-0.86426 0-1.2817 0.5713-0.41748 0.564-0.43213 1.8603v1.0108q0 1.3989 0.41016 1.9775 0.41748 0.5786 1.311 0.5786z"/><path id="path4730" d="m-326.22 1026.2h-1.0986l3.7427-11.58h1.0913l-3.7354 11.58z"/><path id="path4732" d="m-316.75 1025.4q-1.4795 0-2.2705-0.8789-0.79102-0.8862-0.80567-2.5928v-0.9595q0-1.7724 0.76905-2.7758 0.77636-1.0108 2.1606-1.0108 1.3916 0 2.0801 0.8863 0.68847 0.8862 0.70312 2.7612v0.8496h-4.4238v0.1831q0 1.2744 0.47608 1.853 0.4834 0.5786 1.3843 0.5786 0.57129 0 1.0034-0.2124 0.43946-0.2197 0.82032-0.6884l0.67382 0.8203q-0.84228 1.1865-2.5708 1.1865zm-0.14648-7.1045q-0.80566 0-1.1938 0.5566-0.38818 0.5494-0.43945 1.7139h3.1201v-0.1758q-0.0513-1.1279-0.41016-1.6113-0.35156-0.4834-1.0767-0.4834z"/><path id="path4734" d="m-313.82 1020.9q0-1.853 0.67382-2.7978 0.67383-0.9522 2.0068-0.9522 1.1499 0 1.7871 0.9229l0.0586-0.7764h1.1865v10.972h-1.2964v-3.7427q-0.62988 0.8423-1.7432 0.8423-1.2817 0-1.9702-0.9302-0.68848-0.9375-0.70312-2.7246v-0.813zm1.2964 0.7398q0 1.333 0.41016 1.9775 0.41015 0.6445 1.3037 0.6445 0.9082 0 1.4062-0.8715v-4.2481q-0.52734-0.8789-1.3989-0.8789-0.89355 0-1.3037 0.6445-0.41015 0.6446-0.41748 1.941v0.791z"/><path id="path4736" d="m-303.01 1024.5q-0.64453 0.8423-1.8823 0.8423-1.0767 0-1.626-0.7397-0.54932-0.7471-0.55664-2.168v-5.1636h1.2891v5.0684q0 1.853 1.1133 1.853 1.1792 0 1.626-1.0547v-5.8667h1.2964v7.9248h-1.2305l-0.0293-0.6958z"/><path id="path4738" d="m-296.7 1025.2q-0.11719-0.2563-0.16846-0.8642-0.68848 1.0107-1.7578 1.0107-1.0767 0-1.6846-0.6006-0.60059-0.6079-0.60059-1.7065 0-1.2085 0.82031-1.919 0.82032-0.7104 2.2485-0.7251h0.95215v-0.8423q0-0.7104-0.31494-1.0107-0.31495-0.3003-0.95948-0.3003-0.58594 0-0.95215 0.3516-0.36621 0.3442-0.36621 0.8789h-1.2964q0-0.6079 0.35888-1.1572 0.35889-0.5567 0.9668-0.8716 0.60791-0.315 1.355-0.315 1.2158 0 1.8457 0.6079 0.63721 0.6006 0.65186 1.7578v3.9991q0.007 0.9155 0.24902 1.5893v0.1172h-1.3476zm-1.7285-1.0327q0.47607 0 0.9082-0.2637 0.43213-0.2636 0.62989-0.6592v-1.8896h-0.73243q-0.92285 0.015-1.4575 0.4175-0.53467 0.3955-0.53467 1.1133 0 0.6738 0.27099 0.9814 0.271 0.3003 0.91553 0.3003z"/><path id="path4740" d="m-292.91 1015.4v1.9189h1.1938v1.0474h-1.1938v4.9145q0 0.4688 0.15381 0.7105t0.52734 0.2417q0.25635 0 0.52002-0.088l-0.0147 1.0986q-0.43945 0.1465-0.90088 0.1465-0.76904 0-1.1719-0.5493-0.40283-0.5493-0.40283-1.5528v-4.9218h-1.2085v-1.0474h1.2085v-1.9189h1.2891z"/><path id="path4742" d="m-291.6 1020.9q0-1.7285 0.83496-2.7319 0.84228-1.0108 2.2192-1.0108 1.377 0 2.2119 0.9815 0.84229 0.9814 0.86426 2.6733v0.835q0 1.7212-0.83496 2.7246t-2.2266 1.0034q-1.377 0-2.2119-0.9741-0.82763-0.9741-0.85693-2.6367v-0.8643zm1.2964 0.7471q0 1.2231 0.47607 1.9262 0.4834 0.6958 1.2964 0.6958 1.7139 0 1.7651-2.4755v-0.8936q0-1.2158-0.4834-1.9189-0.48339-0.7105-1.2964-0.7105-0.79834 0-1.2817 0.7105-0.47607 0.7031-0.47607 1.9116v0.7544z"/><path id="path4744" d="m-281.52 1018.5q-0.271-0.051-0.58594-0.051-0.99609 0-1.3916 1.0913v5.6689h-1.2964v-7.9248h1.2598l0.022 0.8057q0.52002-0.9522 1.4722-0.9522 0.30761 0 0.51269 0.1026l0.007 1.2597z"/></g><g id="text4645" transform="matrix(.49090 -.87121 .87121 .49090 0 0)" display="none"><path id="path4747" d="m-38.257 390.92q-0.98144 1.6846-1.4575 3.3325-0.47607 1.648-0.47607 3.3398 0 1.6919 0.47607 3.3545 0.4834 1.6553 1.4575 3.3325h-1.1719q-1.0986-1.7212-1.6479-3.3838-0.54199-1.6626-0.54199-3.3032 0-1.6333 0.54199-3.2886t1.6479-3.3838h1.1719z"/><path id="path4749" d="m-31.405 394.34v1.2744q-0.57129-0.29297-1.1865-0.43945-0.61523-0.14649-1.2744-0.14649-1.0034 0-1.5088 0.30762-0.49805 0.30762-0.49805 0.92285 0 0.46875 0.35889 0.73975 0.35889 0.26367 1.4429 0.50537l0.46143 0.10254q1.4355 0.30761 2.0361 0.87158 0.60791 0.55664 0.60791 1.5601 0 1.1426-0.9082 1.8091-0.90088 0.6665-2.4829 0.6665-0.65918 0-1.377-0.13183-0.71045-0.12451-1.5015-0.38086v-1.3916q0.74707 0.38818 1.4722 0.58593 0.7251 0.19043 1.4355 0.19043 0.95215 0 1.4648-0.32226 0.5127-0.32959 0.5127-0.92285 0-0.54932-0.37354-0.84229-0.36621-0.29297-1.6187-0.56396l-0.46875-0.10987q-1.2524-0.26367-1.8091-0.80566-0.55664-0.54932-0.55664-1.5015 0-1.1572 0.82031-1.7871 0.82031-0.62988 2.3291-0.62988 0.74707 0 1.4062 0.10986 0.65918 0.10987 1.2158 0.32959z"/><path id="path4751" d="m-22.796 397.86v0.65918h-6.1963q0.08789 1.3916 0.83496 2.124 0.7544 0.72509 2.0947 0.72509 0.77637 0 1.5015-0.19042 0.73242-0.19043 1.4502-0.57129v1.2744q-0.7251 0.30762-1.4868 0.46875-0.76172 0.16113-1.5454 0.16113-1.9629 0-3.1128-1.1426-1.1426-1.1426-1.1426-3.0908 0-2.0142 1.084-3.1934 1.0913-1.1865 2.937-1.1865 1.6553 0 2.6147 1.0693 0.9668 1.062 0.9668 2.8931zm-1.3477-0.3955q-0.01465-1.106-0.62256-1.7651-0.60059-0.65918-1.5967-0.65918-1.1279 0-1.8091 0.63721-0.67383 0.6372-0.77637 1.7944l4.8047-0.007z"/><path id="path4753" d="m-15.197 395.67q0.50537-0.9082 1.2085-1.3403 0.70312-0.43213 1.6553-0.43213 1.2817 0 1.9775 0.90088 0.6958 0.89356 0.6958 2.5488v4.9512h-1.355v-4.9072q0-1.1792-0.41748-1.7505-0.41748-0.57129-1.2744-0.57129-1.0474 0-1.6553 0.6958-0.60791 0.6958-0.60791 1.897v4.6362h-1.355v-4.9072q0-1.1865-0.41748-1.7505-0.41748-0.57129-1.2891-0.57129-1.0327 0-1.6406 0.70312-0.60791 0.6958-0.60791 1.8896v4.6362h-1.355v-8.2031h1.355v1.2744q0.46143-0.75439 1.106-1.1133 0.64453-0.35889 1.5308-0.35889 0.89356 0 1.5161 0.4541 0.62988 0.4541 0.93018 1.3184z"/><path id="path4755" d="m-7.9645 394.09h1.3477v8.2031h-1.3477v-8.2031zm0-3.1934h1.3477v1.7065h-1.3477v-1.7065z"/><path id="path4757" d="m1.5824 395.67q0.50537-0.9082 1.2085-1.3403 0.70312-0.43213 1.6553-0.43213 1.2817 0 1.9775 0.90088 0.6958 0.89356 0.6958 2.5488v4.9512h-1.355v-4.9072q0-1.1792-0.41748-1.7505-0.41748-0.57129-1.2744-0.57129-1.0474 0-1.6553 0.6958-0.60791 0.6958-0.60791 1.897v4.6362h-1.355v-4.9072q0-1.1865-0.41748-1.7505-0.41748-0.57129-1.2891-0.57129-1.0327 0-1.6406 0.70312-0.60791 0.6958-0.60791 1.8896v4.6362h-1.355v-8.2031h1.355v1.2744q0.46143-0.75439 1.106-1.1133 0.64453-0.35889 1.5308-0.35889 0.89355 0 1.5161 0.4541 0.62988 0.4541 0.93018 1.3184z"/><path id="path4759" d="m12.543 398.17q-1.6333 0-2.2632 0.37353-0.62988 0.37354-0.62988 1.2744 0 0.71778 0.46875 1.1426 0.47607 0.41748 1.2891 0.41748 1.1206 0 1.7944-0.79101 0.68115-0.79834 0.68115-2.1167v-0.30029h-1.3403zm2.688-0.55665v4.6802h-1.3477v-1.2451q-0.46142 0.74707-1.1499 1.106-0.68848 0.35156-1.6846 0.35156-1.2598 0-2.0068-0.70312-0.73975-0.71045-0.73975-1.897 0-1.3843 0.92285-2.0874 0.93018-0.70312 2.7686-0.70312h1.8896v-0.13184q0-0.93017-0.61523-1.4355-0.60791-0.5127-1.7139-0.5127-0.70312 0-1.3696 0.16846-0.6665 0.16845-1.2817 0.50537v-1.2451q0.73975-0.28564 1.4355-0.4248 0.6958-0.14649 1.355-0.14649 1.7798 0 2.6587 0.92285 0.87891 0.92285 0.87891 2.7978z"/><path id="path4761" d="m17.014 394.09h1.3477v8.3496q0 1.5674-0.60059 2.2705-0.59326 0.70313-1.9189 0.70313h-0.5127v-1.1426h0.35889q0.76904 0 1.0474-0.35889 0.27832-0.35156 0.27832-1.4722v-8.3496zm0-3.1934h1.3477v1.7065h-1.3477v-1.7065z"/><path id="path4763" d="m23.353 395.04q-1.084 0-1.7139 0.84961-0.62988 0.84228-0.62988 2.3144 0 1.4722 0.62256 2.3218 0.62988 0.84228 1.7212 0.84228 1.0767 0 1.7065-0.8496 0.62988-0.84961 0.62988-2.3145 0-1.4575-0.62988-2.3071-0.62988-0.85693-1.7065-0.85693zm0-1.1426q1.7578 0 2.7612 1.1426t1.0034 3.1641q0 2.0142-1.0034 3.1641-1.0034 1.1426-2.7612 1.1426-1.7651 0-2.7686-1.1426-0.99609-1.1499-0.99609-3.1641 0-2.0215 0.99609-3.1641 1.0034-1.1426 2.7686-1.1426z"/><path id="path4765" d="m33.098 395.35q-0.22705-0.13183-0.49805-0.19043-0.26367-0.0659-0.58594-0.0659-1.1426 0-1.7578 0.74707-0.60791 0.73975-0.60791 2.1314v4.3213h-1.355v-8.2031h1.355v1.2744q0.4248-0.74707 1.106-1.106 0.68115-0.36621 1.6553-0.36621 0.13916 0 0.30762 0.022 0.16846 0.0147 0.37354 0.0513l0.0073 1.3843z"/><path id="path4767" d="m41.029 398.17q-1.6333 0-2.2632 0.37353-0.62988 0.37354-0.62988 1.2744 0 0.71778 0.46875 1.1426 0.47607 0.41748 1.2891 0.41748 1.1206 0 1.7944-0.79101 0.68115-0.79834 0.68115-2.1167v-0.30029h-1.3403zm2.688-0.55665v4.6802h-1.3477v-1.2451q-0.46143 0.74707-1.1499 1.106-0.68848 0.35156-1.6846 0.35156-1.2598 0-2.0068-0.70312-0.73975-0.71045-0.73975-1.897 0-1.3843 0.92285-2.0874 0.93018-0.70312 2.7686-0.70312h1.8896v-0.13184q0-0.93017-0.61524-1.4355-0.60791-0.5127-1.7139-0.5127-0.70312 0-1.3696 0.16846-0.6665 0.16845-1.2817 0.50537v-1.2451q0.73975-0.28564 1.4355-0.4248 0.6958-0.14649 1.355-0.14649 1.7798 0 2.6587 0.92285 0.87891 0.92285 0.87891 2.7978z"/><path id="path4769" d="m52.319 394.09-2.9663 3.9917 3.1201 4.2114h-1.5894l-2.3877-3.2227-2.3877 3.2227h-1.5894l3.186-4.292-2.915-3.9111h1.5894l2.1753 2.9224 2.1753-2.9224h1.5894z"/><path id="path4771" d="m53.377 394.09h1.3477v8.2031h-1.3477v-8.2031zm0-3.1934h1.3477v1.7065h-1.3477v-1.7065z"/><path id="path4773" d="m61.767 394.34v1.2744q-0.57129-0.29297-1.1865-0.43945-0.61523-0.14649-1.2744-0.14649-1.0034 0-1.5088 0.30762-0.49805 0.30762-0.49805 0.92285 0 0.46875 0.35889 0.73975 0.35889 0.26367 1.4429 0.50537l0.46143 0.10254q1.4355 0.30761 2.0361 0.87158 0.60791 0.55664 0.60791 1.5601 0 1.1426-0.9082 1.8091-0.90088 0.6665-2.4829 0.6665-0.65918 0-1.377-0.13183-0.71045-0.12451-1.5015-0.38086v-1.3916q0.74707 0.38818 1.4722 0.58593 0.7251 0.19043 1.4355 0.19043 0.95215 0 1.4648-0.32226 0.5127-0.32959 0.5127-0.92285 0-0.54932-0.37354-0.84229-0.36621-0.29297-1.6187-0.56396l-0.46875-0.10987q-1.2524-0.26367-1.8091-0.80566-0.55664-0.54932-0.55664-1.5015 0-1.1572 0.82031-1.7871 0.82031-0.62988 2.3291-0.62988 0.74707 0 1.4062 0.10986 0.65918 0.10987 1.2158 0.32959z"/><path id="path4775" d="m63.147 390.92h1.1719q1.0986 1.7285 1.6406 3.3838 0.54932 1.6553 0.54932 3.2886 0 1.6406-0.54932 3.3032-0.54199 1.6626-1.6406 3.3838h-1.1719q0.97412-1.6772 1.4502-3.3325 0.4834-1.6626 0.4834-3.3545t-0.4834-3.3398q-0.47607-1.648-1.4502-3.3325z"/></g><g id="text4843" transform="matrix(.98713 .093311 -.27413 .98713 0 0)"><path id="path4868" d="m167.97 3.4409q-1.8799 0-2.9907 1.4014-1.1023 1.4014-1.1023 3.8196 0 2.4097 1.1023 3.811 1.1108 1.4014 2.9907 1.4014t2.9736-1.4014q1.1023-1.4014 1.1023-3.811 0-2.4182-1.1023-3.8196-1.0938-1.4014-2.9736-1.4014zm0-1.4014q2.6831 0 4.2896 1.803 1.6064 1.7944 1.6064 4.8193 0 3.0164-1.6064 4.8193-1.6064 1.7944-4.2896 1.7944-2.6916 0-4.3066-1.7944-1.6064-1.7944-1.6064-4.8193t1.6064-4.8193q1.615-1.803 4.3066-1.803z"/><path id="path4870" d="m181.03 6.9273q-0.26489-0.15381-0.58106-0.22217-0.30761-0.076904-0.68359-0.076904-1.333 0-2.0508 0.87158-0.70923 0.86304-0.70923 2.4866v5.0415h-1.5808v-9.5703h1.5808v1.4868q0.4956-0.87158 1.2903-1.2903 0.79468-0.42725 1.9312-0.42725 0.16235 0 0.35888 0.025635 0.19653 0.01709 0.43579 0.059815l0.009 1.615z"/><path id="path4872" d="m188.55 10.251q0-1.7346-0.71777-2.7173-0.70923-0.99121-1.9568-0.99121t-1.9653 0.99121q-0.70923 0.98267-0.70923 2.7173t0.70923 2.7258q0.71778 0.98267 1.9653 0.98267 1.2476 0 1.9568-0.98267 0.71777-0.99121 0.71777-2.7258zm-5.3491-3.3411q0.49561-0.85449 1.2476-1.2646 0.7605-0.4187 1.8115-0.4187 1.7432 0 2.8284 1.3843 1.0938 1.3843 1.0938 3.6401 0 2.2559-1.0938 3.6401-1.0852 1.3843-2.8284 1.3843-1.051 0-1.8115-0.41016-0.75195-0.4187-1.2476-1.2732v1.4355h-1.5808v-13.296h1.5808v5.1782z"/><path id="path4874" d="m191.77 5.4575h1.5723v9.5703h-1.5723v-9.5703zm0-3.7256h1.5723v1.991h-1.5723v-1.991z"/><path id="path4876" d="m197.17 2.7402v2.7173h3.2385v1.2219h-3.2385v5.1953q0 1.1707 0.31616 1.5039 0.3247 0.33325 1.3074 0.33325h1.615v1.3159h-1.615q-1.8201 0-2.5122-0.67505-0.69213-0.68359-0.69213-2.478v-5.1953h-1.1536v-1.2219h1.1536v-2.7173h1.5808z"/><path id="path4878" d="m205.82 10.217q-1.9055 0-2.6404 0.43579-0.73486 0.43579-0.73486 1.4868 0 0.8374 0.54687 1.333 0.55542 0.48706 1.5039 0.48706 1.3074 0 2.0935-0.92285 0.79467-0.9314 0.79467-2.4695v-0.35034h-1.5637zm3.136-0.64941v5.4602h-1.5723v-1.4526q-0.53833 0.87158-1.3416 1.2903-0.80322 0.41016-1.9653 0.41016-1.4697 0-2.3413-0.82031-0.86304-0.82886-0.86304-2.2131 0-1.615 1.0767-2.4353 1.0852-0.82031 3.23-0.82031h2.2046v-0.15381q0-1.0852-0.71777-1.6748-0.70923-0.59814-1.9995-0.59814-0.82031 0-1.5979 0.19653t-1.4954 0.5896v-1.4526q0.86303-0.33325 1.6748-0.49561 0.81177-0.1709 1.5808-0.1709 2.0764 0 3.1018 1.0767t1.0254 3.2642z"/><path id="path4880" d="m211.19 1.7319h1.5723v13.296h-1.5723v-13.296z"/><path id="path4882" d="m221.11 13.592v5.0757h-1.5808v-13.21h1.5808v1.4526q0.49561-0.85449 1.2476-1.2646 0.7605-0.4187 1.8115-0.4187 1.7432 0 2.8284 1.3843 1.0938 1.3843 1.0938 3.6401 0 2.2559-1.0938 3.6401-1.0852 1.3843-2.8284 1.3843-1.051 0-1.8115-0.41016-0.75195-0.4187-1.2476-1.2732zm5.3491-3.3411q0-1.7346-0.71777-2.7173-0.70923-0.99121-1.9568-0.99121t-1.9653 0.99121q-0.70923 0.98267-0.70923 2.7173t0.70923 2.7258q0.71777 0.98267 1.9653 0.98267 1.2476 0 1.9568-0.98267 0.71777-0.99121 0.71777-2.7258z"/><path id="path4884" d="m229.69 1.7319h1.5723v13.296h-1.5723v-13.296z"/><path id="path4886" d="m237.88 10.217q-1.9055 0-2.6404 0.43579-0.73486 0.43579-0.73486 1.4868 0 0.8374 0.54687 1.333 0.55542 0.48706 1.5039 0.48706 1.3074 0 2.0935-0.92285 0.79467-0.9314 0.79467-2.4695v-0.35034h-1.5637zm3.136-0.64941v5.4602h-1.5723v-1.4526q-0.53833 0.87158-1.3416 1.2903-0.80322 0.41016-1.9653 0.41016-1.4697 0-2.3413-0.82031-0.86304-0.82886-0.86304-2.2131 0-1.615 1.0767-2.4353 1.0852-0.82031 3.23-0.82031h2.2046v-0.15381q0-1.0852-0.71777-1.6748-0.70923-0.59814-1.9995-0.59814-0.82031 0-1.5979 0.19653t-1.4954 0.5896v-1.4526q0.86303-0.33325 1.6748-0.49561 0.81177-0.1709 1.5808-0.1709 2.0764 0 3.1018 1.0767t1.0254 3.2642z"/><path id="path4888" d="m251.2 9.2515v5.7764h-1.5723v-5.7251q0-1.3586-0.52979-2.0337-0.52978-0.67505-1.5894-0.67505-1.2732 0-2.0081 0.81177-0.73486 0.81177-0.73486 2.2131v5.4089h-1.5808v-9.5703h1.5808v1.4868q0.56396-0.86304 1.3245-1.2903 0.76904-0.42725 1.7688-0.42725 1.6492 0 2.4951 1.0254 0.84594 1.0168 0.84594 2.9993z"/><path id="path4890" d="m261.53 9.8496v0.76904h-7.229q0.10254 1.6235 0.97412 2.478 0.88013 0.84595 2.4438 0.84595 0.90576 0 1.7517-0.22217 0.85449-0.22217 1.6919-0.6665v1.4868q-0.84594 0.35889-1.7346 0.54688-0.88868 0.18799-1.803 0.18799-2.29 0-3.6316-1.333-1.333-1.333-1.333-3.606 0-2.3499 1.2646-3.7256 1.2732-1.3843 3.4265-1.3843 1.9312 0 3.0505 1.2476 1.1279 1.239 1.1279 3.3752zm-1.5723-0.46143q-0.0171-1.2903-0.72632-2.0593-0.70068-0.76904-1.8628-0.76904-1.3159 0-2.1106 0.74341-0.78613 0.74341-0.90576 2.0935l5.6055-0.00854z"/></g><g id="text4855" transform="matrix(.49090 -.87121 .87121 .49090 0 0)"><path id="path4965" d="m-38.257 390.92q-0.98144 1.6846-1.4575 3.3325-0.47607 1.648-0.47607 3.3398 0 1.6919 0.47607 3.3545 0.4834 1.6553 1.4575 3.3325h-1.1719q-1.0986-1.7212-1.6479-3.3838-0.54199-1.6626-0.54199-3.3032 0-1.6333 0.54199-3.2886t1.6479-3.3838h1.1719z"/><path id="path4967" d="m-31.405 394.34v1.2744q-0.57129-0.29297-1.1865-0.43945-0.61523-0.14649-1.2744-0.14649-1.0034 0-1.5088 0.30762-0.49805 0.30762-0.49805 0.92285 0 0.46875 0.35889 0.73975 0.35889 0.26367 1.4429 0.50537l0.46143 0.10254q1.4355 0.30761 2.0361 0.87158 0.60791 0.55664 0.60791 1.5601 0 1.1426-0.9082 1.8091-0.90088 0.6665-2.4829 0.6665-0.65918 0-1.377-0.13183-0.71045-0.12451-1.5015-0.38086v-1.3916q0.74707 0.38818 1.4722 0.58593 0.7251 0.19043 1.4355 0.19043 0.95215 0 1.4648-0.32226 0.5127-0.32959 0.5127-0.92285 0-0.54932-0.37354-0.84229-0.36621-0.29297-1.6187-0.56396l-0.46875-0.10987q-1.2524-0.26367-1.8091-0.80566-0.55664-0.54932-0.55664-1.5015 0-1.1572 0.82031-1.7871 0.82031-0.62988 2.3291-0.62988 0.74707 0 1.4062 0.10986 0.65918 0.10987 1.2158 0.32959z"/><path id="path4969" d="m-22.796 397.86v0.65918h-6.1963q0.08789 1.3916 0.83496 2.124 0.7544 0.72509 2.0947 0.72509 0.77637 0 1.5015-0.19042 0.73242-0.19043 1.4502-0.57129v1.2744q-0.7251 0.30762-1.4868 0.46875-0.76172 0.16113-1.5454 0.16113-1.9629 0-3.1128-1.1426-1.1426-1.1426-1.1426-3.0908 0-2.0142 1.084-3.1934 1.0913-1.1865 2.937-1.1865 1.6553 0 2.6147 1.0693 0.9668 1.062 0.9668 2.8931zm-1.3477-0.3955q-0.01465-1.106-0.62256-1.7651-0.60059-0.65918-1.5967-0.65918-1.1279 0-1.8091 0.63721-0.67383 0.6372-0.77637 1.7944l4.8047-0.007z"/><path id="path4971" d="m-15.197 395.67q0.50537-0.9082 1.2085-1.3403 0.70312-0.43213 1.6553-0.43213 1.2817 0 1.9775 0.90088 0.6958 0.89356 0.6958 2.5488v4.9512h-1.355v-4.9072q0-1.1792-0.41748-1.7505-0.41748-0.57129-1.2744-0.57129-1.0474 0-1.6553 0.6958-0.60791 0.6958-0.60791 1.897v4.6362h-1.355v-4.9072q0-1.1865-0.41748-1.7505-0.41748-0.57129-1.2891-0.57129-1.0327 0-1.6406 0.70312-0.60791 0.6958-0.60791 1.8896v4.6362h-1.355v-8.2031h1.355v1.2744q0.46143-0.75439 1.106-1.1133 0.64453-0.35889 1.5308-0.35889 0.89356 0 1.5161 0.4541 0.62988 0.4541 0.93018 1.3184z"/><path id="path4973" d="m-7.9645 394.09h1.3477v8.2031h-1.3477v-8.2031zm0-3.1934h1.3477v1.7065h-1.3477v-1.7065z"/><path id="path4975" d="m1.5824 395.67q0.50537-0.9082 1.2085-1.3403 0.70312-0.43213 1.6553-0.43213 1.2817 0 1.9775 0.90088 0.6958 0.89356 0.6958 2.5488v4.9512h-1.355v-4.9072q0-1.1792-0.41748-1.7505-0.41748-0.57129-1.2744-0.57129-1.0474 0-1.6553 0.6958-0.60791 0.6958-0.60791 1.897v4.6362h-1.355v-4.9072q0-1.1865-0.41748-1.7505-0.41748-0.57129-1.2891-0.57129-1.0327 0-1.6406 0.70312-0.60791 0.6958-0.60791 1.8896v4.6362h-1.355v-8.2031h1.355v1.2744q0.46143-0.75439 1.106-1.1133 0.64453-0.35889 1.5308-0.35889 0.89355 0 1.5161 0.4541 0.62988 0.4541 0.93018 1.3184z"/><path id="path4977" d="m12.543 398.17q-1.6333 0-2.2632 0.37353-0.62988 0.37354-0.62988 1.2744 0 0.71778 0.46875 1.1426 0.47607 0.41748 1.2891 0.41748 1.1206 0 1.7944-0.79101 0.68115-0.79834 0.68115-2.1167v-0.30029h-1.3403zm2.688-0.55665v4.6802h-1.3477v-1.2451q-0.46142 0.74707-1.1499 1.106-0.68848 0.35156-1.6846 0.35156-1.2598 0-2.0068-0.70312-0.73975-0.71045-0.73975-1.897 0-1.3843 0.92285-2.0874 0.93018-0.70312 2.7686-0.70312h1.8896v-0.13184q0-0.93017-0.61523-1.4355-0.60791-0.5127-1.7139-0.5127-0.70312 0-1.3696 0.16846-0.6665 0.16845-1.2817 0.50537v-1.2451q0.73975-0.28564 1.4355-0.4248 0.6958-0.14649 1.355-0.14649 1.7798 0 2.6587 0.92285 0.87891 0.92285 0.87891 2.7978z"/><path id="path4979" d="m17.014 394.09h1.3477v8.3496q0 1.5674-0.60059 2.2705-0.59326 0.70313-1.9189 0.70313h-0.5127v-1.1426h0.35889q0.76904 0 1.0474-0.35889 0.27832-0.35156 0.27832-1.4722v-8.3496zm0-3.1934h1.3477v1.7065h-1.3477v-1.7065z"/><path id="path4981" d="m23.353 395.04q-1.084 0-1.7139 0.84961-0.62988 0.84228-0.62988 2.3144 0 1.4722 0.62256 2.3218 0.62988 0.84228 1.7212 0.84228 1.0767 0 1.7065-0.8496 0.62988-0.84961 0.62988-2.3145 0-1.4575-0.62988-2.3071-0.62988-0.85693-1.7065-0.85693zm0-1.1426q1.7578 0 2.7612 1.1426t1.0034 3.1641q0 2.0142-1.0034 3.1641-1.0034 1.1426-2.7612 1.1426-1.7651 0-2.7686-1.1426-0.99609-1.1499-0.99609-3.1641 0-2.0215 0.99609-3.1641 1.0034-1.1426 2.7686-1.1426z"/><path id="path4983" d="m33.098 395.35q-0.22705-0.13183-0.49805-0.19043-0.26367-0.0659-0.58594-0.0659-1.1426 0-1.7578 0.74707-0.60791 0.73975-0.60791 2.1314v4.3213h-1.355v-8.2031h1.355v1.2744q0.4248-0.74707 1.106-1.106 0.68115-0.36621 1.6553-0.36621 0.13916 0 0.30762 0.022 0.16846 0.0147 0.37354 0.0513l0.0073 1.3843z"/><path id="path4985" d="m41.029 398.17q-1.6333 0-2.2632 0.37353-0.62988 0.37354-0.62988 1.2744 0 0.71778 0.46875 1.1426 0.47607 0.41748 1.2891 0.41748 1.1206 0 1.7944-0.79101 0.68115-0.79834 0.68115-2.1167v-0.30029h-1.3403zm2.688-0.55665v4.6802h-1.3477v-1.2451q-0.46143 0.74707-1.1499 1.106-0.68848 0.35156-1.6846 0.35156-1.2598 0-2.0068-0.70312-0.73975-0.71045-0.73975-1.897 0-1.3843 0.92285-2.0874 0.93018-0.70312 2.7686-0.70312h1.8896v-0.13184q0-0.93017-0.61524-1.4355-0.60791-0.5127-1.7139-0.5127-0.70312 0-1.3696 0.16846-0.6665 0.16845-1.2817 0.50537v-1.2451q0.73975-0.28564 1.4355-0.4248 0.6958-0.14649 1.355-0.14649 1.7798 0 2.6587 0.92285 0.87891 0.92285 0.87891 2.7978z"/><path id="path4987" d="m52.319 394.09-2.9663 3.9917 3.1201 4.2114h-1.5894l-2.3877-3.2227-2.3877 3.2227h-1.5894l3.186-4.292-2.915-3.9111h1.5894l2.1753 2.9224 2.1753-2.9224h1.5894z"/><path id="path4989" d="m53.377 394.09h1.3477v8.2031h-1.3477v-8.2031zm0-3.1934h1.3477v1.7065h-1.3477v-1.7065z"/><path id="path4991" d="m61.767 394.34v1.2744q-0.57129-0.29297-1.1865-0.43945-0.61523-0.14649-1.2744-0.14649-1.0034 0-1.5088 0.30762-0.49805 0.30762-0.49805 0.92285 0 0.46875 0.35889 0.73975 0.35889 0.26367 1.4429 0.50537l0.46143 0.10254q1.4355 0.30761 2.0361 0.87158 0.60791 0.55664 0.60791 1.5601 0 1.1426-0.9082 1.8091-0.90088 0.6665-2.4829 0.6665-0.65918 0-1.377-0.13183-0.71045-0.12451-1.5015-0.38086v-1.3916q0.74707 0.38818 1.4722 0.58593 0.7251 0.19043 1.4355 0.19043 0.95215 0 1.4648-0.32226 0.5127-0.32959 0.5127-0.92285 0-0.54932-0.37354-0.84229-0.36621-0.29297-1.6187-0.56396l-0.46875-0.10987q-1.2524-0.26367-1.8091-0.80566-0.55664-0.54932-0.55664-1.5015 0-1.1572 0.82031-1.7871 0.82031-0.62988 2.3291-0.62988 0.74707 0 1.4062 0.10986 0.65918 0.10987 1.2158 0.32959z"/><path id="path4993" d="m63.147 390.92h1.1719q1.0986 1.7285 1.6406 3.3838 0.54932 1.6553 0.54932 3.2886 0 1.6406-0.54932 3.3032-0.54199 1.6626-1.6406 3.3838h-1.1719q0.97412-1.6772 1.4502-3.3325 0.4834-1.6626 0.4834-3.3545t-0.4834-3.3398q-0.47607-1.648-1.4502-3.3325z"/></g><g id="text5802" transform="matrix(1.1926 -.94453 .94453 .090449 0 0)"><path id="path5811" d="m-408 1010.1v-14.219h4.0527q1.9434 0 2.9199 0.94727 0.98633 0.94726 0.98633 2.8418 0 0.99612-0.49805 1.7578-0.49805 0.7617-1.3477 1.1816 0.97657 0.293 1.543 1.2012 0.57618 0.9082 0.57618 2.1875 0 1.9141-1.0547 3.0078-1.0449 1.0938-2.9883 1.0938h-4.1895zm1.7871-6.6504v5.1172h2.4414q1.0156 0 1.6113-0.6641 0.5957-0.6738 0.5957-1.8848 0-2.5683-2.168-2.5683h-2.4805zm0-1.5039h2.2949q0.92774 0 1.4942-0.625 0.57617-0.625 0.57617-1.6602 0-1.1719-0.51758-1.6992-0.51758-0.53711-1.582-0.53711h-2.2656v4.5215z"/><path id="path5813" d="m-392.91 1010.1q-0.15625-0.3418-0.22461-1.1524-0.91796 1.3477-2.3438 1.3477-1.4355 0-2.2461-0.8008-0.80078-0.8105-0.80078-2.2754 0-1.6113 1.0938-2.5586 1.0938-0.9472 2.998-0.9668h1.2695v-1.123q0-0.9473-0.41992-1.3477-0.41993-0.4004-1.2793-0.4004-0.78125 0-1.2695 0.4688-0.48828 0.459-0.48828 1.1719h-1.7285q0-0.8106 0.47852-1.543 0.47851-0.7422 1.2891-1.1621 0.81055-0.41993 1.8066-0.41993 1.6211 0 2.4609 0.81055 0.84961 0.8008 0.86914 2.3438v5.332q0.01 1.2207 0.33203 2.1191v0.1563h-1.7969zm-2.3047-1.377q0.63476 0 1.2109-0.3515 0.57618-0.3516 0.83985-0.8789v-2.5196h-0.97657q-1.2305 0.02-1.9434 0.5567-0.7129 0.5273-0.7129 1.4843 0 0.8985 0.36133 1.3086 0.36133 0.4004 1.2207 0.4004z"/><path id="path5815" d="m-384.64 1007.4q0-0.5566-0.41992-0.957t-1.6211-0.9375q-1.3965-0.5762-1.9727-0.9864-0.56641-0.4101-0.84961-0.9277-0.2832-0.5273-0.2832-1.25 0-1.2891 0.9375-2.1387 0.94726-0.85935 2.4121-0.85935 1.543 0 2.4805 0.89845 0.9375 0.8984 0.9375 2.3047h-1.7188q0-0.7129-0.47852-1.211-0.47852-0.5078-1.2207-0.5078-0.76172 0-1.2012 0.4004-0.42968 0.3906-0.42968 1.0547 0 0.5274 0.3125 0.8496 0.32226 0.3223 1.5332 0.8496 1.9238 0.752 2.6172 1.4746 0.69336 0.7129 0.69336 1.8164 0 1.377-0.94727 2.2071-0.94726 0.8203-2.5391 0.8203-1.6504 0-2.6758-0.9473-1.0254-0.9472-1.0254-2.4023h1.7383q0.0293 0.8789 0.53711 1.3769 0.50781 0.4981 1.4258 0.4981 0.85937 0 1.3086-0.3809 0.44922-0.3906 0.44922-1.0449z"/><path id="path5817" d="m-379.81 1010.1h-1.7285v-10.566h1.7285v10.566zm0.13672-13.369q0 0.43945-0.24414 0.73242t-0.74219 0.29297q-0.48828 0-0.73242-0.29297t-0.24414-0.73242 0.24414-0.74219q0.24414-0.30273 0.73242-0.30273t0.73242 0.3125q0.25391 0.30273 0.25391 0.73242z"/><path id="path5819" d="m-374.43 1008.8q0.85938 0 1.377-0.5274 0.51757-0.5371 0.5664-1.5234h1.6309q-0.0586 1.5234-1.084 2.5293-1.0156 0.9961-2.4902 0.9961-1.9629 0-2.998-1.2305-1.0254-1.2402-1.0254-3.6816v-1.1621q0-2.3926 1.0254-3.6328 1.0254-1.25 2.9883-1.25 1.6211 0 2.5684 1.0254 0.95703 1.0254 1.0156 2.8028h-1.6309q-0.0586-1.1719-0.5664-1.7578-0.49805-0.586-1.3867-0.586-1.1524 0-1.709 0.7617-0.55664 0.752-0.57617 2.4805v1.3477q0 1.8652 0.54688 2.6367 0.55664 0.7715 1.748 0.7715z"/><path id="path5821" d="m-361.91 1001.2q-0.36133-0.068-0.78125-0.068-1.3281 0-1.8555 1.4551v7.5586h-1.7285v-10.566h1.6797l0.0293 1.0742q0.69336-1.2696 1.9629-1.2696 0.41015 0 0.68359 0.13672l0.01 1.6797z"/><path id="path5823" d="m-357.6 1010.3q-1.9727 0-3.0274-1.1719-1.0547-1.1816-1.0742-3.457v-1.2793q0-2.3633 1.0254-3.7012 1.0352-1.3476 2.8808-1.3476 1.8555 0 2.7734 1.1816 0.91797 1.1816 0.9375 3.6816v1.1328h-5.8984v0.2442q0 1.6992 0.63477 2.4707 0.64453 0.7715 1.8457 0.7715 0.76172 0 1.3379-0.2832 0.58594-0.293 1.0938-0.918l0.89844 1.0938q-1.123 1.582-3.4277 1.582zm-0.19532-9.4727q-1.0742 0-1.5918 0.7422-0.51758 0.7324-0.58594 2.2852h4.1602v-0.2344q-0.0684-1.5039-0.54688-2.1484-0.46875-0.6446-1.4356-0.6446z"/><path id="path5825" d="m-352.24 1010.1v-9.1699h-1.377v-1.3965h1.377v-1.2207q0.0293-1.6113 0.81055-2.5098 0.79101-0.90821 2.2266-0.90821 0.51758 0 1.0449 0.16602l-0.0879 1.4648q-0.37109-0.0879-0.79102-0.0879-1.4746 0-1.4746 2.0996v0.9961h1.8066v1.3965h-1.8066v9.1699h-1.7285z"/><path id="path5827" d="m-344.13 1010.3q-1.9727 0-3.0274-1.1719-1.0547-1.1816-1.0742-3.457v-1.2793q0-2.3633 1.0254-3.7012 1.0352-1.3476 2.8808-1.3476 1.8555 0 2.7734 1.1816 0.91797 1.1816 0.9375 3.6816v1.1328h-5.8984v0.2442q0 1.6992 0.63477 2.4707 0.64453 0.7715 1.8457 0.7715 0.76172 0 1.3379-0.2832 0.58594-0.293 1.0938-0.918l0.89844 1.0938q-1.123 1.582-3.4277 1.582zm-0.19532-9.4727q-1.0742 0-1.5918 0.7422-0.51758 0.7324-0.58594 2.2852h4.1602v-0.2344q-0.0684-1.5039-0.54688-2.1484-0.46875-0.6446-1.4356-0.6446z"/><path id="path5829" d="m-335.17 1001.2q-0.36132-0.068-0.78125-0.068-1.3281 0-1.8555 1.4551v7.5586h-1.7285v-10.566h1.6797l0.0293 1.0742q0.69336-1.2696 1.9629-1.2696 0.41015 0 0.68359 0.13672l0.01 1.6797z"/><path id="path5831" d="m-330.86 1010.3q-1.9726 0-3.0273-1.1719-1.0547-1.1816-1.0742-3.457v-1.2793q0-2.3633 1.0254-3.7012 1.0352-1.3476 2.8809-1.3476 1.8555 0 2.7734 1.1816 0.91797 1.1816 0.9375 3.6816v1.1328h-5.8984v0.2442q0 1.6992 0.63477 2.4707 0.64453 0.7715 1.8457 0.7715 0.76172 0 1.3379-0.2832 0.58594-0.293 1.0938-0.918l0.89844 1.0938q-1.123 1.582-3.4277 1.582zm-0.19531-9.4727q-1.0742 0-1.5918 0.7422-0.51758 0.7324-0.58594 2.2852h4.1602v-0.2344q-0.0684-1.5039-0.54687-2.1484-0.46875-0.6446-1.4356-0.6446z"/><path id="path5833" d="m-324.63 999.56 0.0488 1.1425q1.0058-1.3378 2.5684-1.3378 2.8027 0 2.8418 3.7402v7.0215h-1.7188v-6.9434q0-1.2402-0.41992-1.7578-0.41016-0.5273-1.2402-0.5273-0.64454 0-1.1621 0.4296-0.50782 0.4297-0.82032 1.1231v7.6758h-1.7285v-10.566h1.6309z"/><path id="path5835" d="m-313.9 1008.8q0.85938 0 1.377-0.5274 0.51757-0.5371 0.5664-1.5234h1.6309q-0.0586 1.5234-1.084 2.5293-1.0156 0.9961-2.4902 0.9961-1.9629 0-2.998-1.2305-1.0254-1.2402-1.0254-3.6816v-1.1621q0-2.3926 1.0254-3.6328 1.0254-1.25 2.9883-1.25 1.6211 0 2.5684 1.0254 0.95703 1.0254 1.0156 2.8028h-1.6309q-0.0586-1.1719-0.5664-1.7578-0.49805-0.586-1.3867-0.586-1.1524 0-1.709 0.7617-0.55664 0.752-0.57617 2.4805v1.3477q0 1.8652 0.54688 2.6367 0.55664 0.7715 1.748 0.7715z"/><path id="path5837" d="m-305.54 1010.3q-1.9727 0-3.0274-1.1719-1.0547-1.1816-1.0742-3.457v-1.2793q0-2.3633 1.0254-3.7012 1.0352-1.3476 2.8808-1.3476 1.8555 0 2.7734 1.1816 0.91797 1.1816 0.9375 3.6816v1.1328h-5.8984v0.2442q0 1.6992 0.63477 2.4707 0.64453 0.7715 1.8457 0.7715 0.76172 0 1.3379-0.2832 0.58594-0.293 1.0938-0.918l0.89844 1.0938q-1.123 1.582-3.4277 1.582zm-0.19532-9.4727q-1.0742 0-1.5918 0.7422-0.51758 0.7324-0.58594 2.2852h4.1602v-0.2344q-0.0684-1.5039-0.54688-2.1484-0.46875-0.6446-1.4356-0.6446z"/><path id="path5839" d="m-289.74 1005.4q0 2.5097-0.9082 3.7402-0.89844 1.2305-2.5488 1.2305-1.5918 0-2.4512-1.2012v5.0684h-1.7188v-14.629h1.5625l0.0879 1.1718q0.86914-1.3672 2.4902-1.3672 1.7383 0 2.5977 1.211 0.85937 1.2109 0.88867 3.623v1.1524zm-1.7188-0.9863q0-1.7774-0.54687-2.6172-0.54688-0.8496-1.7578-0.8496-1.2402 0-1.8848 1.2402v5.498q0.63476 1.211 1.9043 1.211 1.1719 0 1.7188-0.8399 0.55664-0.8496 0.5664-2.5879v-1.0546z"/><path id="path5841" d="m-286.62 1010.1h-1.7285v-15h1.7285v15z"/><path id="path5843" d="m-279.48 1010.1q-0.15625-0.3418-0.22461-1.1524-0.91797 1.3477-2.3438 1.3477-1.4356 0-2.2461-0.8008-0.80078-0.8105-0.80078-2.2754 0-1.6113 1.0938-2.5586 1.0938-0.9472 2.998-0.9668h1.2695v-1.123q0-0.9473-0.41992-1.3477t-1.2793-0.4004q-0.78125 0-1.2695 0.4688-0.48828 0.459-0.48828 1.1719h-1.7285q0-0.8106 0.47851-1.543 0.47852-0.7422 1.2891-1.1621 0.81054-0.41993 1.8066-0.41993 1.6211 0 2.4609 0.81055 0.84961 0.8008 0.86914 2.3438v5.332q0.01 1.2207 0.33204 2.1191v0.1563h-1.7969zm-2.3047-1.377q0.63477 0 1.2109-0.3515 0.57617-0.3516 0.83984-0.8789v-2.5196h-0.97656q-1.2305 0.02-1.9434 0.5567-0.71289 0.5273-0.71289 1.4843 0 0.8985 0.36133 1.3086 0.36133 0.4004 1.2207 0.4004z"/><path id="path5845" d="m-274.72 999.56 0.0488 1.1425q1.0059-1.3378 2.5684-1.3378 2.8027 0 2.8418 3.7402v7.0215h-1.7188v-6.9434q0-1.2402-0.41992-1.7578-0.41015-0.5273-1.2402-0.5273-0.64453 0-1.1621 0.4296-0.50781 0.4297-0.82031 1.1231v7.6758h-1.7285v-10.566h1.6309z"/><path id="path5847" d="m-263.88 1010.3q-1.9727 0-3.0274-1.1719-1.0547-1.1816-1.0742-3.457v-1.2793q0-2.3633 1.0254-3.7012 1.0352-1.3476 2.8808-1.3476 1.8555 0 2.7734 1.1816 0.91797 1.1816 0.9375 3.6816v1.1328h-5.8984v0.2442q0 1.6992 0.63477 2.4707 0.64453 0.7715 1.8457 0.7715 0.76172 0 1.3379-0.2832 0.58594-0.293 1.0938-0.918l0.89844 1.0938q-1.123 1.582-3.4277 1.582zm-0.19532-9.4727q-1.0742 0-1.5918 0.7422-0.51758 0.7324-0.58594 2.2852h4.1602v-0.2344q-0.0684-1.5039-0.54688-2.1484-0.46875-0.6446-1.4356-0.6446z"/></g><g id="text5806" transform="matrix(1.1926 -.94453 .94453 .090449 0 0)"><path id="path5850" d="m-392.7 1037.1q-1.9726 0-3.0273-1.1719-1.0547-1.1816-1.0742-3.457v-1.2793q0-2.3633 1.0254-3.7012 1.0352-1.3476 2.8809-1.3476 1.8555 0 2.7734 1.1816 0.91797 1.1816 0.9375 3.6816v1.1329h-5.8984v0.2441q0 1.6992 0.63477 2.4707 0.64453 0.7715 1.8457 0.7715 0.76172 0 1.3379-0.2832 0.58594-0.293 1.0938-0.918l0.89844 1.0938q-1.123 1.582-3.4277 1.582zm-0.19531-9.4727q-1.0742 0-1.5918 0.7422-0.51757 0.7324-0.58593 2.2852h4.1602v-0.2344q-0.0684-1.5039-0.54687-2.1484-0.46875-0.6446-1.4356-0.6446z"/><path id="path5852" d="m-384.43 1035.7q0.85938 0 1.377-0.5274 0.51758-0.5371 0.56641-1.5234h1.6309q-0.0586 1.5234-1.084 2.5293-1.0156 0.9961-2.4902 0.9961-1.9629 0-2.998-1.2305-1.0254-1.2402-1.0254-3.6816v-1.1621q0-2.3926 1.0254-3.6328 1.0254-1.25 2.9883-1.25 1.6211 0 2.5684 1.0254 0.95704 1.0253 1.0156 2.8027h-1.6309q-0.0586-1.1719-0.56641-1.7578-0.49804-0.586-1.3867-0.586-1.1524 0-1.709 0.7618-0.55664 0.7519-0.57617 2.4804v1.3477q0 1.8652 0.54687 2.6367 0.55664 0.7715 1.748 0.7715z"/><path id="path5854" d="m-377.98 1037h-1.7285v-15h1.7285v15z"/><path id="path5856" d="m-374.41 1037h-1.7285v-10.566h1.7285v10.566zm0.13671-13.369q0 0.4395-0.24414 0.7325-0.24414 0.2929-0.74218 0.2929-0.48829 0-0.73243-0.2929-0.24414-0.293-0.24414-0.7325 0-0.4394 0.24414-0.7421 0.24414-0.3028 0.73243-0.3028 0.48828 0 0.73242 0.3125 0.2539 0.3028 0.2539 0.7324z"/><path id="path5858" d="m-365.06 1032.2q0 2.5098-0.9082 3.7402-0.89844 1.2305-2.5488 1.2305-1.5918 0-2.4512-1.2012v5.0684h-1.7188v-14.629h1.5625l0.0879 1.1719q0.86914-1.3672 2.4902-1.3672 1.7383 0 2.5977 1.2109 0.85938 1.2109 0.88867 3.623v1.1524zm-1.7188-0.9863q0-1.7774-0.54687-2.6172-0.54688-0.8496-1.7578-0.8496-1.2402 0-1.8848 1.2402v5.498q0.63476 1.211 1.9043 1.211 1.1719 0 1.7188-0.8399 0.55664-0.8496 0.5664-2.5878v-1.0547z"/><path id="path5860" d="m-361.55 1023.8v2.5586h1.5918v1.3965h-1.5918v6.5527q0 0.625 0.20508 0.9473 0.20508 0.3222 0.70312 0.3222 0.3418 0 0.69336-0.1172l-0.0195 1.4649q-0.58594 0.1953-1.2012 0.1953-1.0254 0-1.5625-0.7324-0.53711-0.7324-0.53711-2.0703v-6.5625h-1.6113v-1.3965h1.6113v-2.5586h1.7188z"/><path id="path5862" d="m-357.05 1037h-1.7285v-10.566h1.7285v10.566zm0.13672-13.369q0 0.4395-0.24414 0.7325-0.24414 0.2929-0.74219 0.2929-0.48828 0-0.73242-0.2929-0.24414-0.293-0.24414-0.7325 0-0.4394 0.24414-0.7421 0.24414-0.3028 0.73242-0.3028t0.73242 0.3125q0.25391 0.3028 0.25391 0.7324z"/><path id="path5864" d="m-351.68 1035.7q0.85938 0 1.377-0.5274 0.51758-0.5371 0.56641-1.5234h1.6309q-0.0586 1.5234-1.084 2.5293-1.0156 0.9961-2.4902 0.9961-1.9629 0-2.998-1.2305-1.0254-1.2402-1.0254-3.6816v-1.1621q0-2.3926 1.0254-3.6328 1.0254-1.25 2.9883-1.25 1.6211 0 2.5684 1.0254 0.95704 1.0253 1.0156 2.8027h-1.6309q-0.0586-1.1719-0.56641-1.7578-0.49804-0.586-1.3867-0.586-1.1524 0-1.709 0.7618-0.55664 0.7519-0.57617 2.4804v1.3477q0 1.8652 0.54687 2.6367 0.55664 0.7715 1.748 0.7715z"/><path id="path5866" d="m-343.04 1038.2h-1.4648l4.9902-15.44h1.4551l-4.9805 15.44z"/><path id="path5868" d="m-329.75 1037.1q-1.9727 0-3.0274-1.1719-1.0547-1.1816-1.0742-3.457v-1.2793q0-2.3633 1.0254-3.7012 1.0352-1.3476 2.8809-1.3476 1.8555 0 2.7734 1.1816 0.91797 1.1816 0.9375 3.6816v1.1329h-5.8984v0.2441q0 1.6992 0.63477 2.4707 0.64453 0.7715 1.8457 0.7715 0.76172 0 1.3379-0.2832 0.58594-0.293 1.0938-0.918l0.89844 1.0938q-1.123 1.582-3.4277 1.582zm-0.19532-9.4727q-1.0742 0-1.5918 0.7422-0.51758 0.7324-0.58594 2.2852h4.1602v-0.2344q-0.0684-1.5039-0.54687-2.1484-0.46875-0.6446-1.4356-0.6446z"/><path id="path5870" d="m-325.52 1031.2q0-2.4707 0.89844-3.7305 0.89844-1.2695 2.6758-1.2695 1.5332 0 2.3828 1.2304l0.0781-1.0351h1.582v14.629h-1.7285v-4.9903q-0.83984 1.1231-2.3242 1.1231-1.709 0-2.627-1.2402-0.91797-1.25-0.9375-3.6329v-1.0839zm1.7285 0.9863q0 1.7773 0.54687 2.6367 0.54688 0.8594 1.7383 0.8594 1.2109 0 1.875-1.1621v-5.6641q-0.70312-1.1719-1.8652-1.1719-1.1914 0-1.7383 0.8594-0.54688 0.8594-0.55664 2.5879v1.0547z"/><path id="path5872" d="m-310.76 1036q-0.85937 1.1231-2.5098 1.1231-1.4356 0-2.168-0.9863-0.73242-0.9961-0.74219-2.8907v-6.8847h1.7188v6.7578q0 2.4707 1.4844 2.4707 1.5723 0 2.168-1.4063v-7.8222h1.7285v10.566h-1.6406l-0.0391-0.9278z"/><path id="path5874" d="m-302.03 1037q-0.15625-0.3418-0.22461-1.1524-0.91797 1.3477-2.3438 1.3477-1.4355 0-2.2461-0.8008-0.80078-0.8105-0.80078-2.2754 0-1.6113 1.0938-2.5586 1.0938-0.9472 2.998-0.9668h1.2695v-1.123q0-0.9473-0.41993-1.3477-0.41992-0.4004-1.2793-0.4004-0.78125 0-1.2695 0.4688-0.48829 0.459-0.48829 1.1719h-1.7285q0-0.8106 0.47851-1.543 0.47852-0.7422 1.2891-1.1621 0.81054-0.4199 1.8066-0.4199 1.6211 0 2.4609 0.8105 0.84961 0.8008 0.86915 2.3438v5.332q0.01 1.2207 0.33203 2.1191v0.1563h-1.7969zm-2.3047-1.377q0.63477 0 1.2109-0.3515 0.57617-0.3516 0.83985-0.8789v-2.5196h-0.97657q-1.2305 0.02-1.9434 0.5567-0.71289 0.5273-0.71289 1.4843 0 0.8985 0.36133 1.3086 0.36133 0.4004 1.2207 0.4004z"/><path id="path5876" d="m-296.63 1023.8v2.5586h1.5918v1.3965h-1.5918v6.5527q0 0.625 0.20507 0.9473 0.20508 0.3222 0.70313 0.3222 0.3418 0 0.69336-0.1172l-0.0195 1.4649q-0.58594 0.1953-1.2012 0.1953-1.0254 0-1.5625-0.7324-0.53711-0.7324-0.53711-2.0703v-6.5625h-1.6113v-1.3965h1.6113v-2.5586h1.7188z"/><path id="path5878" d="m-294.55 1031.2q0-2.3047 1.1133-3.6426 1.123-1.3476 2.959-1.3476 1.8359 0 2.9492 1.3086 1.123 1.3086 1.1524 3.5644v1.1133q0 2.2949-1.1133 3.6328t-2.9688 1.3379q-1.8359 0-2.9492-1.2988-1.1035-1.2989-1.1426-3.5157v-1.1523zm1.7285 0.9961q0 1.6309 0.63477 2.5684 0.64453 0.9277 1.7285 0.9277 2.2852 0 2.3535-3.3008v-1.1914q0-1.6211-0.64453-2.5586-0.64453-0.9473-1.7285-0.9473-1.0644 0-1.709 0.9473-0.63477 0.9375-0.63477 2.5488v1.0059z"/><path id="path5880" d="m-280.79 1028q-0.36133-0.068-0.78125-0.068-1.3281 0-1.8555 1.4551v7.5586h-1.7285v-10.566h1.6797l0.0293 1.0742q0.69336-1.2695 1.9629-1.2695 0.41016 0 0.6836 0.1367l0.01 1.6797z"/></g></g></g><g id="layer2" display="none"><path id="path4534" d="m200.26 176.12s28.835-34.569 61.89-57.039 73.361-34.253 73.361-34.253" stroke="#000" stroke-width="1px" fill="none"/><g fill="#000000"><text id="text4536" style="word-spacing:0px;letter-spacing:-1px;text-anchor:middle;text-align:center" xml:space="preserve" font-size="15px" line-height="89.99999762%" font-family="&apos;Bitstream Vera Sans&apos;"><textPath id="textPath4540" xlink:href="#path4534" startOffset="50%"><tspan id="tspan4538" font-size="15px">orbit of the celestial body</tspan></textPath></text>
<text id="text4488" style="word-spacing:0px;letter-spacing:-1.013px" xml:space="preserve" transform="matrix(.98713 .093311 -.27413 .98713 0 0)" line-height="89.99999762%" font-size="17.5px" y="15.027846" x="161.06987" font-family="&apos;Bitstream Vera Sans&apos;"><tspan id="tspan4490" x="161.06987" y="15.027846">Orbital plane</tspan></text>
<text id="text4494" style="word-spacing:0px;letter-spacing:-1px" xml:space="preserve" transform="matrix(1.1926 -.94453 .94453 .090449 0 0)" line-height="89.99999762%" font-size="20px" y="1010.1293" x="-409.53653" font-family="&apos;Roboto Condensed&apos;"><tspan id="tspan4496" x="-409.53653" y="1010.1293">Basic reference plane</tspan></text>
<text id="text4498" style="word-spacing:0px;letter-spacing:-1px" xml:space="preserve" transform="matrix(1.1926 -.94453 .94453 .090449 0 0)" line-height="89.99999762%" font-size="20px" y="1036.9518" x="-397.76337" font-family="&apos;Roboto Condensed&apos;"><tspan id="tspan4500" x="-397.76337" y="1036.9518">ecliptic / equator</tspan></text>
<text id="text4506" style="word-spacing:0px;letter-spacing:-1px" xml:space="preserve" transform="matrix(.49090 -.87121 .87121 .49090 0 0)" line-height="89.99999762%" font-size="15px" y="402.29779" x="-42.907383" font-family="&apos;Bitstream Vera Sans&apos;"><tspan id="tspan4508" x="-42.907383" y="402.29779">(semimajor axis)</tspan></text>
</g></g></svg>
