<?xml version="1.0" encoding="UTF-8" standalone="no"?>
<!-- Created with Inkscape (http://www.inkscape.org/) -->

<svg
   xmlns:dc="http://purl.org/dc/elements/1.1/"
   xmlns:cc="http://creativecommons.org/ns#"
   xmlns:rdf="http://www.w3.org/1999/02/22-rdf-syntax-ns#"
   xmlns:svg="http://www.w3.org/2000/svg"
   xmlns="http://www.w3.org/2000/svg"
   xmlns:sodipodi="http://sodipodi.sourceforge.net/DTD/sodipodi-0.dtd"
   xmlns:inkscape="http://www.inkscape.org/namespaces/inkscape"
   width="48.457962mm"
   height="17.745131mm"
   viewBox="0 0 48.457962 17.745131"
   version="1.1"
   id="svg8"
   inkscape:version="0.92.4 (5da689c313, 2019-01-14)"
   sodipodi:docname="drawing.svg">
  <defs
     id="defs2">
    <clipPath
       id="clipPath833"
       clipPathUnits="userSpaceOnUse">
      <path
         inkscape:connector-curvature="0"
         id="path831"
         d="M 0,516.73 V 0 h 1376.97 v 516.73 z" />
    </clipPath>
    <clipPath
       id="clipPath875"
       clipPathUnits="userSpaceOnUse">
      <path
         inkscape:connector-curvature="0"
         id="path873"
         d="M 1359.32,0 H 74.9609 V 71.9922 H 1359.32 Z" />
    </clipPath>
    <linearGradient
       id="linearGradient881"
       spreadMethod="pad"
       gradientTransform="matrix(-3.1e-6,71.006,71.006,3.1e-6,717.173,0.997002)"
       gradientUnits="userSpaceOnUse"
       y2="0"
       x2="1"
       y1="0"
       x1="0">
      <stop
         id="stop877"
         offset="0"
         style="stop-opacity:1;stop-color:#ffffff" />
      <stop
         id="stop879"
         offset="1"
         style="stop-opacity:1;stop-color:#a8a6a7" />
    </linearGradient>
    <clipPath
       id="clipPath891"
       clipPathUnits="userSpaceOnUse">
      <path
         inkscape:connector-curvature="0"
         id="path889"
         d="M 0,516.73 V 0 h 1376.97 v 516.73 z" />
    </clipPath>
  </defs>
  <sodipodi:namedview
     id="base"
     pagecolor="#ffffff"
     bordercolor="#666666"
     borderopacity="1.0"
     inkscape:pageopacity="0.0"
     inkscape:pageshadow="2"
     inkscape:zoom="0.35"
     inkscape:cx="-1301.2831"
     inkscape:cy="696.39124"
     inkscape:document-units="mm"
     inkscape:current-layer="layer1"
     showgrid="false"
     fit-margin-top="0"
     fit-margin-left="0"
     fit-margin-right="0"
     fit-margin-bottom="0"
     inkscape:window-width="1920"
     inkscape:window-height="1018"
     inkscape:window-x="-8"
     inkscape:window-y="-8"
     inkscape:window-maximized="1" />
  <metadata
     id="metadata5">
    <rdf:RDF>
      <cc:Work
         rdf:about="">
        <dc:format>image/svg+xml</dc:format>
        <dc:type
           rdf:resource="http://purl.org/dc/dcmitype/StillImage" />
        <dc:title></dc:title>
      </cc:Work>
    </rdf:RDF>
  </metadata>
  <g
     inkscape:label="Layer 1"
     inkscape:groupmode="layer"
     id="layer1"
     transform="translate(-327.28888,-315.34172)">
    <g
       transform="matrix(0.35277777,0,0,-0.35277777,327.28888,333.08685)"
       inkscape:label="ink_ext_XXXXXX"
       id="g823">
      <g
         transform="scale(0.1)"
         id="g825">
        <g
           id="g827">
          <g
             clip-path="url(#clipPath833)"
             id="g829">
            <path
               inkscape:connector-curvature="0"
               id="path835"
               style="fill:none;stroke:#231f20;stroke-width:5.00017023;stroke-linecap:butt;stroke-linejoin:miter;stroke-miterlimit:4;stroke-dasharray:none;stroke-opacity:1"
               d="m 259.215,140.012 c 5.984,-4.133 9.43,-5.422 10.465,-3.922 1.035,1.5 1.851,4.176 2.39,8.23 0.602,4.016 -1.312,7.508 -5.851,10.637 -4.449,3.074 -10.61,5.156 -18.684,6.305 -8.074,1.136 -15.43,2.972 -22.461,5.617 -7.023,2.633 -14.894,6.98 -23.863,13.172 -9.023,6.23 -14.121,9.75 -15.625,10.785 -1.496,1.031 -5.148,3.555 -11.152,7.699" />
            <path
               inkscape:connector-curvature="0"
               id="path837"
               style="fill:none;stroke:#231f20;stroke-width:5.00017023;stroke-linecap:butt;stroke-linejoin:miter;stroke-miterlimit:4;stroke-dasharray:none;stroke-opacity:1"
               d="m 243.078,164.336 c 2.07,3 0.172,6.48 -5.836,10.625 -5.996,4.141 -10.164,5.93 -12.703,5.469 -2.559,-0.453 -3.769,-0.692 -3.769,-0.692 0,0 -1.243,-0.226 -3.778,-0.695 -2.551,-0.449 -7.937,1.109 -16.461,4.777 -8.547,3.684 -15.636,7.493 -21.636,11.641" />
            <path
               inkscape:connector-curvature="0"
               id="path839"
               style="fill:none;stroke:#231f20;stroke-width:5.00017023;stroke-linecap:butt;stroke-linejoin:miter;stroke-miterlimit:4;stroke-dasharray:none;stroke-opacity:1"
               d="m 190.754,279.543 c 0,0 -0.215,1.223 -0.649,3.75 -0.472,2.539 -0.429,5.75 0.122,9.793 0.597,4.016 0.851,6.008 0.851,6.008 0,0 1.266,0.207 3.77,0.687 2.55,0.453 5.039,0.903 7.578,1.364 2.508,0.476 4.504,0.195 5.969,-0.817 1.507,-1.047 2.269,-1.566 2.269,-1.566 0,0 0.223,-1.246 0.684,-3.778 0.441,-2.511 0.183,-4.504 -0.852,-6.004 -1.031,-1.496 -1.82,-4.199 -2.387,-8.238 -0.601,-4.008 -0.851,-6 -0.851,-6 0,0 -0.766,0.528 -2.231,1.539 -1.504,1.035 -4.199,1.821 -8.23,2.391 -4.039,0.566 -6.043,0.871 -6.043,0.871 z" />
            <path
               inkscape:connector-curvature="0"
               id="path841"
               style="fill:none;stroke:#231f20;stroke-width:5.00017023;stroke-linecap:butt;stroke-linejoin:miter;stroke-miterlimit:4;stroke-dasharray:none;stroke-opacity:1"
               d="m 114.359,207.051 c 0.957,-5.086 2.371,-9.305 4.309,-12.86 1.992,-3.586 3.68,-5.832 5.187,-6.871 1.473,-1.019 3.692,-2.55 6.692,-4.625 2.996,-2.066 5.187,-3.578 6.691,-4.617 1.469,-1.012 2.231,-1.539 2.231,-1.539 0,0 2.168,-1.496 6.711,-4.629 4.492,-3.105 8.847,-6.109 13.379,-9.238 4.496,-3.106 8.132,-5.617 11.16,-7.699 2.961,-2.047 5.894,-4.075 8.922,-6.164 2.972,-2.051 6.445,-3.364 10.472,-3.934 4.004,-0.555 8.207,-2.363 12.703,-5.469 4.473,-3.086 11.336,-5.672 20.926,-7.859 9.578,-2.18 16.961,-4.031 22.449,-5.606 5.575,-1.632 8.747,-1.668 9.782,-0.168 1.039,1.508 1.543,2.235 1.543,2.235 0,0 0.308,1.949 0.847,6 0.602,4.019 -2.074,8.023 -8.074,12.164 -6,4.141 -10.367,7.16 -13.375,9.234 -2.984,2.059 -5.691,2.852 -8.226,2.387 -2.563,-0.438 -5.243,0.316 -8.243,2.387 -2.996,2.07 -5.187,3.586 -6.691,4.625 -1.524,1.05 -5.16,3.558 -11.16,7.699 -5.996,4.141 -9.656,6.668 -11.16,7.707 -1.5,1.035 -3.719,2.566 -6.696,4.617 -3.035,2.098 -7.34,8.313 -13.226,19.024 -5.903,10.714 -11.192,18.687 -16.192,24.355 -4.965,5.641 -8.289,13.34 -10.148,23.484 -1.859,10.141 -1.242,17.289 1.859,21.786 3.102,4.492 11.492,4.121 25.559,-1.168 14.058,-5.278 24.449,-5.957 31.586,-2.032 7.152,3.922 12.14,8.039 15.25,12.539 3.105,4.5 3.668,8.434 1.699,12.012 -1.965,3.57 -4.387,6.324 -7.383,8.391 -3,2.074 -8.945,2.929 -18.043,2.566 -9.105,-0.359 -15.488,-0.273 -19.566,0.324 -3.996,0.547 -15.07,4.942 -33.598,13.305 -18.566,8.395 -32.305,13.547 -41.871,15.723 -9.5702,2.179 -17.9335,5.793 -25.3984,10.949 -7.5,5.176 -13.3554,9.219 -17.8515,12.316 -4.5274,3.133 -9.6602,6.672 -15.6602,10.813" />
            <path
               inkscape:connector-curvature="0"
               id="path843"
               style="fill:none;stroke:#231f20;stroke-width:5.00017023;stroke-linecap:butt;stroke-linejoin:miter;stroke-miterlimit:4;stroke-dasharray:none;stroke-opacity:1"
               d="m 1.41797,291.605 c 5.96484,-4.113 13.81643,-8.457 23.86333,-13.175 10.0273,-4.703 17.8554,-9.024 23.8593,-13.172 5.9922,-4.133 10.3594,-7.153 13.3867,-9.242 2.9649,-2.047 9.7618,-11.063 20.6172,-27.418 10.8516,-16.348 19.3245,-27.59 25.7425,-34.246 6.492,-6.696 11.113,-10.969 14.082,-13.012 3.027,-2.09 6.664,-4.602 11.187,-7.727 4.5,-3.105 10.645,-5.179 18.711,-6.324" />
            <path
               inkscape:connector-curvature="0"
               id="path845"
               style="fill:#ffffff;fill-opacity:1;fill-rule:nonzero;stroke:none"
               d="m 261.156,231.992 h 450 v 160 h -450 z" />
            <path
               inkscape:connector-curvature="0"
               id="path847"
               style="fill:none;stroke:#231f20;stroke-width:7.5;stroke-linecap:butt;stroke-linejoin:miter;stroke-miterlimit:4;stroke-dasharray:none;stroke-opacity:1"
               d="m 261.156,231.992 h 450 v 160 h -450 z" />
            <path
               inkscape:connector-curvature="0"
               id="path849"
               style="fill:#ffffff;fill-opacity:1;fill-rule:nonzero;stroke:none"
               d="m 261.156,71.9922 h 450 v 160 h -450 z" />
            <path
               inkscape:connector-curvature="0"
               id="path851"
               style="fill:none;stroke:#231f20;stroke-width:7.5;stroke-linecap:butt;stroke-linejoin:miter;stroke-miterlimit:4;stroke-dasharray:none;stroke-opacity:1"
               d="m 261.156,71.9922 h 450 v 160 h -450 z" />
            <path
               inkscape:connector-curvature="0"
               id="path853"
               style="fill:#ffffff;fill-opacity:1;fill-rule:nonzero;stroke:none"
               d="m 711.156,71.9922 h 450.004 v 160 H 711.156 Z" />
            <path
               inkscape:connector-curvature="0"
               id="path855"
               style="fill:none;stroke:#231f20;stroke-width:7.5;stroke-linecap:butt;stroke-linejoin:miter;stroke-miterlimit:4;stroke-dasharray:none;stroke-opacity:1"
               d="m 711.156,71.9922 h 450.004 v 160 H 711.156 Z" />
            <g
               transform="scale(10)"
               id="g857">
              <text
                 id="text863"
                 style="font-variant:normal;font-weight:normal;font-size:10px;font-family:'Times New Roman';-inkscape-font-specification:TimesNewRomanPSMT;writing-mode:lr-tb;fill:#231f20;fill-opacity:1;fill-rule:nonzero;stroke:none"
                 transform="matrix(1,0,0,-1,45.0621,43.3578)">
                <tspan
                   id="tspan859"
                   y="0"
                   x="0">A</tspan>
                <tspan
                   id="tspan861"
                   y="16.000799"
                   x="45.2188">B</tspan>
              </text>
              <text
                 id="text867"
                 style="font-style:italic;font-variant:normal;font-size:10px;font-family:'Times New Roman';-inkscape-font-specification:TimesNewRomanPS-ItalicMT;writing-mode:lr-tb;fill:#231f20;fill-opacity:1;fill-rule:nonzero;stroke:none"
                 transform="matrix(1,0,0,-1,75.561,43.3578)">
                <tspan
                   id="tspan865"
                   sodipodi:role="line"
                   y="0"
                   x="0 6.6700001 11.67 16.67 20.559999 23.34 28.34 33.34 36.119999 38.619999 42.509998 47.509998 51.950001 56.389999">Constant speed</tspan>
              </text>
            </g>
          </g>
        </g>
        <g
           id="g869">
          <g
             clip-path="url(#clipPath875)"
             id="g871">
            <path
               inkscape:connector-curvature="0"
               id="path883"
               style="fill:url(#linearGradient881);fill-opacity:1;fill-rule:nonzero;stroke:none"
               d="m 74.9609,0 h 1284.36 V 71.9922 H 74.9609 Z" />
          </g>
        </g>
        <g
           id="g885">
          <g
             clip-path="url(#clipPath891)"
             id="g887">
            <path
               inkscape:connector-curvature="0"
               id="path893"
               style="fill:none;stroke:#231f20;stroke-width:5;stroke-linecap:butt;stroke-linejoin:miter;stroke-miterlimit:10;stroke-dasharray:none;stroke-opacity:1"
               d="M 74.9609,71.9922 H 1359.32" />
          </g>
        </g>
      </g>
    </g>
  </g>
</svg>
