<?xml version="1.0" encoding="UTF-8" standalone="no"?>
<!-- Created with Inkscape (http://www.inkscape.org/) -->

<svg
   xmlns:dc="http://purl.org/dc/elements/1.1/"
   xmlns:cc="http://creativecommons.org/ns#"
   xmlns:rdf="http://www.w3.org/1999/02/22-rdf-syntax-ns#"
   xmlns:svg="http://www.w3.org/2000/svg"
   xmlns="http://www.w3.org/2000/svg"
   xmlns:sodipodi="http://sodipodi.sourceforge.net/DTD/sodipodi-0.dtd"
   xmlns:inkscape="http://www.inkscape.org/namespaces/inkscape"
   width="165.31831mm"
   height="72.633652mm"
   viewBox="0 0 165.31831 72.633649"
   version="1.1"
   id="svg8"
   inkscape:version="0.92.4 (5da689c313, 2019-01-14)"
   sodipodi:docname="Pulleys.svg">
  <defs
     id="defs2">
    <marker
       inkscape:stockid="Arrow1Mend"
       orient="auto"
       refY="0"
       refX="0"
       id="Arrow1Mend"
       style="overflow:visible"
       inkscape:isstock="true">
      <path
         id="path1023"
         d="M 0,0 5,-5 -12.5,0 5,5 Z"
         style="fill:#000000;fill-opacity:1;fill-rule:evenodd;stroke:#000000;stroke-width:1.00000003pt;stroke-opacity:1"
         transform="matrix(-0.4,0,0,-0.4,-4,0)"
         inkscape:connector-curvature="0" />
    </marker>
    <clipPath
       id="clipPath833"
       clipPathUnits="userSpaceOnUse">
      <path
         inkscape:connector-curvature="0"
         id="path831"
         d="M 0,1386.53 V 0 h 3981.82 v 1386.53 z" />
    </clipPath>
    <clipPath
       id="clipPath1007"
       clipPathUnits="userSpaceOnUse">
      <path
         inkscape:connector-curvature="0"
         id="path1005"
         d="M 3507.3,0 H 0 v 71.9883 h 3507.3 z" />
    </clipPath>
    <linearGradient
       id="linearGradient1013"
       spreadMethod="pad"
       gradientTransform="matrix(-3.1e-6,71.006,71.006,3.1e-6,1753.67,1.00009)"
       gradientUnits="userSpaceOnUse"
       y2="0"
       x2="1"
       y1="0"
       x1="0">
      <stop
         id="stop1009"
         offset="0"
         style="stop-opacity:1;stop-color:#ffffff" />
      <stop
         id="stop1011"
         offset="1"
         style="stop-opacity:1;stop-color:#a7a5a6" />
    </linearGradient>
    <clipPath
       id="clipPath1023"
       clipPathUnits="userSpaceOnUse">
      <path
         inkscape:connector-curvature="0"
         id="path1021"
         d="M 0,1386.53 V 0 h 3981.82 v 1386.53 z" />
    </clipPath>
    <clipPath
       id="clipPath1217"
       clipPathUnits="userSpaceOnUse">
      <path
         inkscape:connector-curvature="0"
         id="path1215"
         d="M 0,0 H 50.4453 V 84.6875 H 0 Z" />
    </clipPath>
    <pattern
       id="pattern1229"
       height="8.46875"
       width="5.04492"
       y="0"
       x="0"
       patternUnits="userSpaceOnUse"
       patternTransform="matrix(-9.68745,2.48146,-2.48146,-9.68745,-25.1133,53.0391)">
      <g
         id="g1227"
         transform="scale(0.1)">
        <g
           id="g1225">
          <g
             id="g1223"
             clip-path="url(#clipPath1217)">
            <path
               id="path1219"
               style="fill:#ffffff;fill-opacity:1;fill-rule:nonzero;stroke:none"
               d="m 35.5273,44.1406 c 5,16.5235 9.5899,27.2657 14.9219,40.5469 L 0,84.6875 C 2.24609,79.9219 9.92188,60.6641 14.9023,44.1406 20.2539,26.4453 23.9258,10.3906 25.2148,0 c 1.3086,10.3906 4.961,26.4453 10.3125,44.1406" />
            <path
               id="path1221"
               style="fill:#231f20;fill-opacity:1;fill-rule:nonzero;stroke:none"
               d="m 30.3828,56.25 c 2.5,8.2617 4.793,13.6328 7.461,20.2734 l -25.2266,0 C 13.7383,74.1406 17.5781,64.5117 20.0703,56.25 22.7422,47.4023 24.582,39.375 25.2227,34.1797 25.8789,39.375 27.707,47.4023 30.3828,56.25" />
          </g>
        </g>
      </g>
    </pattern>
    <clipPath
       id="clipPath1251"
       clipPathUnits="userSpaceOnUse">
      <path
         inkscape:connector-curvature="0"
         id="path1249"
         d="M 0,0 H 50.4453 V 84.6875 H 0 Z" />
    </clipPath>
    <pattern
       id="pattern1263"
       height="8.46875"
       width="5.04492"
       y="0"
       x="0"
       patternUnits="userSpaceOnUse"
       patternTransform="matrix(9.68745,2.48146,2.48146,-9.68745,33,36.0391)">
      <g
         id="g1261"
         transform="scale(0.1)">
        <g
           id="g1259">
          <g
             id="g1257"
             clip-path="url(#clipPath1251)">
            <path
               id="path1253"
               style="fill:#ffffff;fill-opacity:1;fill-rule:nonzero;stroke:none"
               d="m 35.5273,44.1406 c 5,16.5235 9.5899,27.2657 14.9219,40.5469 L 0,84.6875 C 2.24609,79.9219 9.92188,60.6641 14.9023,44.1406 20.2539,26.4453 23.9258,10.3906 25.2148,0 c 1.3086,10.3906 4.961,26.4453 10.3125,44.1406" />
            <path
               id="path1255"
               style="fill:#231f20;fill-opacity:1;fill-rule:nonzero;stroke:none"
               d="m 30.3828,56.25 c 2.5,8.2617 4.793,13.6328 7.461,20.2734 l -25.2266,0 C 13.7383,74.1406 17.5781,64.5117 20.0703,56.25 22.7422,47.4023 24.582,39.375 25.2227,34.1797 25.8789,39.375 27.707,47.4023 30.3828,56.25" />
          </g>
        </g>
      </g>
    </pattern>
    <clipPath
       id="clipPath1353"
       clipPathUnits="userSpaceOnUse">
      <path
         inkscape:connector-curvature="0"
         id="path1351"
         d="M 0,0 H 50.4453 V 84.6875 H 0 Z" />
    </clipPath>
    <pattern
       id="pattern1365"
       height="8.46875"
       width="5.04492"
       y="0"
       x="0"
       patternUnits="userSpaceOnUse"
       patternTransform="matrix(-9.68745,2.48146,-2.48146,-9.68745,-25.1133,53.0391)">
      <g
         id="g1363"
         transform="scale(0.1)">
        <g
           id="g1361">
          <g
             id="g1359"
             clip-path="url(#clipPath1353)">
            <path
               id="path1355"
               style="fill:#ffffff;fill-opacity:1;fill-rule:nonzero;stroke:none"
               d="m 35.5273,44.1406 c 5,16.5235 9.5899,27.2657 14.9219,40.5469 L 0,84.6875 C 2.24609,79.9219 9.92188,60.6641 14.9023,44.1406 20.2539,26.4453 23.9258,10.3906 25.2148,0 c 1.3086,10.3906 4.961,26.4453 10.3125,44.1406" />
            <path
               id="path1357"
               style="fill:#231f20;fill-opacity:1;fill-rule:nonzero;stroke:none"
               d="m 30.3828,56.25 c 2.5,8.2617 4.793,13.6328 7.461,20.2734 l -25.2266,0 C 13.7383,74.1406 17.5781,64.5117 20.0703,56.25 22.7422,47.4023 24.582,39.375 25.2227,34.1797 25.8789,39.375 27.707,47.4023 30.3828,56.25" />
          </g>
        </g>
      </g>
    </pattern>
    <clipPath
       id="clipPath1387"
       clipPathUnits="userSpaceOnUse">
      <path
         inkscape:connector-curvature="0"
         id="path1385"
         d="M 0,0 H 50.4453 V 84.6875 H 0 Z" />
    </clipPath>
    <pattern
       id="pattern1399"
       height="8.46875"
       width="5.04492"
       y="0"
       x="0"
       patternUnits="userSpaceOnUse"
       patternTransform="matrix(9.68745,2.48146,2.48146,-9.68745,33,36.0391)">
      <g
         id="g1397"
         transform="scale(0.1)">
        <g
           id="g1395">
          <g
             id="g1393"
             clip-path="url(#clipPath1387)">
            <path
               id="path1389"
               style="fill:#ffffff;fill-opacity:1;fill-rule:nonzero;stroke:none"
               d="m 35.5273,44.1406 c 5,16.5235 9.5899,27.2657 14.9219,40.5469 L 0,84.6875 C 2.24609,79.9219 9.92188,60.6641 14.9023,44.1406 20.2539,26.4453 23.9258,10.3906 25.2148,0 c 1.3086,10.3906 4.961,26.4453 10.3125,44.1406" />
            <path
               id="path1391"
               style="fill:#231f20;fill-opacity:1;fill-rule:nonzero;stroke:none"
               d="m 30.3828,56.25 c 2.5,8.2617 4.793,13.6328 7.461,20.2734 l -25.2266,0 C 13.7383,74.1406 17.5781,64.5117 20.0703,56.25 22.7422,47.4023 24.582,39.375 25.2227,34.1797 25.8789,39.375 27.707,47.4023 30.3828,56.25" />
          </g>
        </g>
      </g>
    </pattern>
    <clipPath
       id="clipPath1537"
       clipPathUnits="userSpaceOnUse">
      <path
         inkscape:connector-curvature="0"
         id="path1535"
         d="M 0,1015.75 V 0 h 3588.54 v 1015.75 z" />
    </clipPath>
    <clipPath
       id="clipPath1707"
       clipPathUnits="userSpaceOnUse">
      <path
         inkscape:connector-curvature="0"
         id="path1705"
         d="M 3588.54,0 H 81.2344 V 71.9883 H 3588.54 Z" />
    </clipPath>
    <linearGradient
       id="linearGradient1713"
       spreadMethod="pad"
       gradientTransform="matrix(-1.0936112e-7,-2.504934,2.504934,-1.0936112e-7,73.24882,288.93749)"
       gradientUnits="userSpaceOnUse"
       y2="0"
       x2="1"
       y1="0"
       x1="0">
      <stop
         id="stop1709"
         offset="0"
         style="stop-opacity:1;stop-color:#ffffff" />
      <stop
         id="stop1711"
         offset="1"
         style="stop-opacity:1;stop-color:#a7a5a6" />
    </linearGradient>
    <clipPath
       id="clipPath1723"
       clipPathUnits="userSpaceOnUse">
      <path
         inkscape:connector-curvature="0"
         id="path1721"
         d="M 0,1015.75 V 0 h 3588.54 v 1015.75 z" />
    </clipPath>
    <marker
       inkscape:stockid="Arrow1Mend"
       orient="auto"
       refY="0"
       refX="0"
       id="Arrow1Mend-3"
       style="overflow:visible"
       inkscape:isstock="true">
      <path
         inkscape:connector-curvature="0"
         id="path1023-1"
         d="M 0,0 5,-5 -12.5,0 5,5 Z"
         style="fill:#000000;fill-opacity:1;fill-rule:evenodd;stroke:#000000;stroke-width:1.00000003pt;stroke-opacity:1"
         transform="matrix(-0.4,0,0,-0.4,-4,0)" />
    </marker>
    <marker
       inkscape:stockid="Arrow1Mend"
       orient="auto"
       refY="0"
       refX="0"
       id="Arrow1Mend-1"
       style="overflow:visible"
       inkscape:isstock="true">
      <path
         inkscape:connector-curvature="0"
         id="path1023-5"
         d="M 0,0 5,-5 -12.5,0 5,5 Z"
         style="fill:#000000;fill-opacity:1;fill-rule:evenodd;stroke:#000000;stroke-width:1.00000003pt;stroke-opacity:1"
         transform="matrix(-0.4,0,0,-0.4,-4,0)" />
    </marker>
    <marker
       inkscape:stockid="Arrow1Mend"
       orient="auto"
       refY="0"
       refX="0"
       id="Arrow1Mend-3-9"
       style="overflow:visible"
       inkscape:isstock="true">
      <path
         inkscape:connector-curvature="0"
         id="path1023-1-6"
         d="M 0,0 5,-5 -12.5,0 5,5 Z"
         style="fill:#000000;fill-opacity:1;fill-rule:evenodd;stroke:#000000;stroke-width:1.00000003pt;stroke-opacity:1"
         transform="matrix(-0.4,0,0,-0.4,-4,0)" />
    </marker>
    <marker
       inkscape:stockid="Arrow1Mend"
       orient="auto"
       refY="0"
       refX="0"
       id="Arrow1Mend-1-6"
       style="overflow:visible"
       inkscape:isstock="true">
      <path
         inkscape:connector-curvature="0"
         id="path1023-5-7"
         d="M 0,0 5,-5 -12.5,0 5,5 Z"
         style="fill:#000000;fill-opacity:1;fill-rule:evenodd;stroke:#000000;stroke-width:1.00000003pt;stroke-opacity:1"
         transform="matrix(-0.4,0,0,-0.4,-4,0)" />
    </marker>
    <marker
       inkscape:stockid="Arrow1Mend"
       orient="auto"
       refY="0"
       refX="0"
       id="Arrow1Mend-0"
       style="overflow:visible"
       inkscape:isstock="true">
      <path
         id="path1023-0"
         d="M 0,0 5,-5 -12.5,0 5,5 Z"
         style="fill:#000000;fill-opacity:1;fill-rule:evenodd;stroke:#000000;stroke-width:1.00000003pt;stroke-opacity:1"
         transform="matrix(-0.4,0,0,-0.4,-4,0)"
         inkscape:connector-curvature="0" />
    </marker>
    <marker
       inkscape:stockid="Arrow1Mend"
       orient="auto"
       refY="0"
       refX="0"
       id="Arrow1Mend-4"
       style="overflow:visible"
       inkscape:isstock="true">
      <path
         id="path1023-6"
         d="M 0,0 5,-5 -12.5,0 5,5 Z"
         style="fill:#000000;fill-opacity:1;fill-rule:evenodd;stroke:#000000;stroke-width:1.00000003pt;stroke-opacity:1"
         transform="matrix(-0.4,0,0,-0.4,-4,0)"
         inkscape:connector-curvature="0" />
    </marker>
    <marker
       inkscape:stockid="Arrow1Mend"
       orient="auto"
       refY="0"
       refX="0"
       id="Arrow1Mend-8"
       style="overflow:visible"
       inkscape:isstock="true">
      <path
         id="path1023-55"
         d="M 0,0 5,-5 -12.5,0 5,5 Z"
         style="fill:#000000;fill-opacity:1;fill-rule:evenodd;stroke:#000000;stroke-width:1.00000003pt;stroke-opacity:1"
         transform="matrix(-0.4,0,0,-0.4,-4,0)"
         inkscape:connector-curvature="0" />
    </marker>
    <marker
       inkscape:stockid="Arrow1Mend"
       orient="auto"
       refY="0"
       refX="0"
       id="Arrow1Mend-18"
       style="overflow:visible"
       inkscape:isstock="true">
      <path
         id="path1023-4"
         d="M 0,0 5,-5 -12.5,0 5,5 Z"
         style="fill:#000000;fill-opacity:1;fill-rule:evenodd;stroke:#000000;stroke-width:1.00000003pt;stroke-opacity:1"
         transform="matrix(-0.4,0,0,-0.4,-4,0)"
         inkscape:connector-curvature="0" />
    </marker>
  </defs>
  <sodipodi:namedview
     id="base"
     pagecolor="#ffffff"
     bordercolor="#666666"
     borderopacity="1.0"
     inkscape:pageopacity="0.0"
     inkscape:pageshadow="2"
     inkscape:zoom="1.4142136"
     inkscape:cx="168.06323"
     inkscape:cy="225.8317"
     inkscape:document-units="mm"
     inkscape:current-layer="layer1"
     showgrid="false"
     inkscape:window-width="1920"
     inkscape:window-height="1058"
     inkscape:window-x="1912"
     inkscape:window-y="-8"
     inkscape:window-maximized="1"
     fit-margin-top="0"
     fit-margin-left="0"
     fit-margin-right="0"
     fit-margin-bottom="0" />
  <metadata
     id="metadata5">
    <rdf:RDF>
      <cc:Work
         rdf:about="">
        <dc:format>image/svg+xml</dc:format>
        <dc:type
           rdf:resource="http://purl.org/dc/dcmitype/StillImage" />
        <dc:title></dc:title>
      </cc:Work>
    </rdf:RDF>
  </metadata>
  <g
     inkscape:label="Layer 1"
     inkscape:groupmode="layer"
     id="layer1"
     transform="translate(32.661587,-229.07521)">
    <circle
       style="opacity:1;fill:none;fill-opacity:1;fill-rule:nonzero;stroke:#000000;stroke-width:1.25;stroke-miterlimit:4;stroke-dasharray:none;stroke-dashoffset:0;stroke-opacity:1"
       id="path971-4-67"
       cx="24.22287"
       cy="245.05222"
       r="4.6302085" />
    <rect
       style="opacity:1;fill:#ececec;fill-opacity:1;fill-rule:nonzero;stroke:#000000;stroke-width:1;stroke-miterlimit:4;stroke-dasharray:none;stroke-dashoffset:0;stroke-opacity:1"
       id="rect942"
       width="53.247395"
       height="42.994789"
       x="-32.161587"
       y="248.57326" />
    <text
       xml:space="preserve"
       style="font-style:normal;font-variant:normal;font-weight:normal;font-stretch:normal;font-size:7.9375px;line-height:125%;font-family:'Times New Roman';-inkscape-font-specification:'Times New Roman, ';letter-spacing:0px;word-spacing:0px;fill:#000000;fill-opacity:1;stroke:none;stroke-width:0.66145831px;stroke-linecap:butt;stroke-linejoin:miter;stroke-opacity:1"
       x="-25.508648"
       y="241.21121"
       id="text1616"><tspan
         sodipodi:role="line"
         id="tspan1614"
         x="-25.508648"
         y="241.21121"
         style="font-style:normal;stroke-width:0.66145831px">A</tspan></text>
    <rect
       style="opacity:1;fill:none;fill-opacity:1;fill-rule:nonzero;stroke:#000000;stroke-width:1;stroke-miterlimit:4;stroke-dasharray:none;stroke-dashoffset:0;stroke-opacity:1"
       id="rect1113"
       width="18.99806"
       height="18.99806"
       x="-32.161587"
       y="229.57521" />
    <rect
       style="opacity:1;fill:none;fill-opacity:1;fill-rule:nonzero;stroke:#000000;stroke-width:1;stroke-miterlimit:4;stroke-dasharray:none;stroke-dashoffset:0;stroke-opacity:1"
       id="rect1113-6"
       width="10.822327"
       height="10.822327"
       x="23.541977"
       y="270.00739" />
    <path
       style="fill:none;fill-rule:evenodd;stroke:#000000;stroke-width:0.26458332px;stroke-linecap:butt;stroke-linejoin:miter;stroke-opacity:1"
       d="m -13.206009,240.24599 h 37.230645 c 0,0 0,0 3.180508,1.30962 1.683798,3.92886 1.683798,3.92886 1.683798,3.92886 v 24.50862"
       id="path1130"
       inkscape:connector-curvature="0"
       sodipodi:nodetypes="ccccc" />
    <text
       xml:space="preserve"
       style="font-style:normal;font-variant:normal;font-weight:normal;font-stretch:normal;font-size:7.9375px;line-height:125%;font-family:'Times New Roman';-inkscape-font-specification:'Times New Roman, ';letter-spacing:0px;word-spacing:0px;fill:#000000;fill-opacity:1;stroke:none;stroke-width:0.66145831px;stroke-linecap:butt;stroke-linejoin:miter;stroke-opacity:1"
       x="-10.071711"
       y="299.99579"
       id="text1616-6"><tspan
         sodipodi:role="line"
         id="tspan1614-4"
         x="-10.071711"
         y="299.99579"
         style="font-style:normal;stroke-width:0.66145831px">weight = 10 N</tspan></text>
    <circle
       style="opacity:1;fill:none;fill-opacity:1;fill-rule:nonzero;stroke:#000000;stroke-width:1.25;stroke-miterlimit:4;stroke-dasharray:none;stroke-dashoffset:0;stroke-opacity:1"
       id="path971-4-67-3"
       cx="117.95429"
       cy="245.05222"
       r="4.6302085" />
    <rect
       style="opacity:1;fill:#ececec;fill-opacity:1;fill-rule:nonzero;stroke:#000000;stroke-width:1;stroke-miterlimit:4;stroke-dasharray:none;stroke-dashoffset:0;stroke-opacity:1"
       id="rect942-0"
       width="53.247395"
       height="42.994789"
       x="61.569836"
       y="248.57326" />
    <text
       xml:space="preserve"
       style="font-style:normal;font-variant:normal;font-weight:normal;font-stretch:normal;font-size:7.9375px;line-height:125%;font-family:'Times New Roman';-inkscape-font-specification:'Times New Roman, ';letter-spacing:0px;word-spacing:0px;fill:#000000;fill-opacity:1;stroke:none;stroke-width:0.66145831px;stroke-linecap:butt;stroke-linejoin:miter;stroke-opacity:1"
       x="68.222778"
       y="241.21121"
       id="text1616-2"><tspan
         sodipodi:role="line"
         id="tspan1614-6"
         x="68.222778"
         y="241.21121"
         style="font-style:normal;stroke-width:0.66145831px">A</tspan></text>
    <rect
       style="opacity:1;fill:none;fill-opacity:1;fill-rule:nonzero;stroke:#000000;stroke-width:1;stroke-miterlimit:4;stroke-dasharray:none;stroke-dashoffset:0;stroke-opacity:1"
       id="rect1113-4"
       width="18.99806"
       height="18.99806"
       x="61.569836"
       y="229.57521" />
    <path
       style="fill:none;fill-rule:evenodd;stroke:#000000;stroke-width:0.26458332px;stroke-linecap:butt;stroke-linejoin:miter;stroke-opacity:1"
       d="m 80.525416,240.24599 h 37.230644 l 3.18051,1.30962 1.6838,3.92886 v 40.41116"
       id="path1130-5"
       inkscape:connector-curvature="0"
       sodipodi:nodetypes="ccccc" />
    <text
       xml:space="preserve"
       style="font-style:normal;font-variant:normal;font-weight:normal;font-stretch:normal;font-size:7.9375px;line-height:125%;font-family:'Times New Roman';-inkscape-font-specification:'Times New Roman, ';letter-spacing:0px;word-spacing:0px;fill:#000000;fill-opacity:1;stroke:none;stroke-width:0.66145831px;stroke-linecap:butt;stroke-linejoin:miter;stroke-opacity:1"
       x="83.659714"
       y="299.99579"
       id="text1616-6-5"><tspan
         sodipodi:role="line"
         id="tspan1614-4-6"
         x="83.659714"
         y="299.99579"
         style="font-style:normal;stroke-width:0.66145831px">Tension = 10 N</tspan></text>
    <g
       id="g1214"
       transform="rotate(-150,120.90585,240.34486)">
      <path
         d="m 98.856811,206.64055 c 0.2111,0.1458 0.33267,0.19127 0.36918,0.13836 0.0365,-0.0529 0.0653,-0.14732 0.0843,-0.29034 0.0212,-0.14167 -0.0463,-0.26486 -0.20641,-0.37525 -0.15696,-0.10844 -0.3743,-0.18189 -0.65913,-0.22243 -0.28484,-0.0401 -0.54434,-0.10484 -0.79238,-0.19815 -0.24775,-0.0929 -0.52543,-0.24624 -0.84183,-0.46468 -0.31831,-0.21978 -0.49816,-0.34396 -0.55122,-0.38047 -0.0528,-0.0364 -0.18161,-0.12541 -0.39342,-0.2716"
         style="fill:none;stroke:#231f20;stroke-width:0.17639492;stroke-linecap:butt;stroke-linejoin:miter;stroke-miterlimit:4;stroke-dasharray:none;stroke-opacity:1"
         id="path835"
         inkscape:connector-curvature="0" />
      <path
         d="m 98.287531,205.78245 c 0.073,-0.10583 0.006,-0.2286 -0.20588,-0.37483 -0.21152,-0.14608 -0.35856,-0.20919 -0.44813,-0.19293 -0.0903,0.016 -0.13296,0.0244 -0.13296,0.0244 0,0 -0.0439,0.008 -0.13328,0.0245 -0.09,0.0158 -0.28,-0.0391 -0.58071,-0.16852 -0.30152,-0.12996 -0.5516,-0.26434 -0.76327,-0.41067"
         style="fill:none;stroke:#231f20;stroke-width:0.17639492;stroke-linecap:butt;stroke-linejoin:miter;stroke-miterlimit:4;stroke-dasharray:none;stroke-opacity:1"
         id="path837"
         inkscape:connector-curvature="0" />
      <path
         d="m 96.441661,201.7182 c 0,0 -0.008,-0.0431 -0.0229,-0.13229 -0.0167,-0.0896 -0.0151,-0.20285 0.004,-0.34547 0.0211,-0.14168 0.03,-0.21195 0.03,-0.21195 0,0 0.0447,-0.007 0.13299,-0.0242 0.09,-0.016 0.17777,-0.0318 0.26734,-0.0481 0.0885,-0.0168 0.15889,-0.007 0.21057,0.0288 0.0532,0.0369 0.0801,0.0553 0.0801,0.0553 0,0 0.008,0.044 0.0241,0.13328 0.0156,0.0886 0.006,0.15889 -0.0301,0.21181 -0.0364,0.0528 -0.0642,0.14813 -0.0842,0.29062 -0.0212,0.14139 -0.03,0.21166 -0.03,0.21166 0,0 -0.027,-0.0186 -0.0787,-0.0543 -0.0531,-0.0365 -0.14813,-0.0642 -0.29034,-0.0843 -0.14249,-0.02 -0.213181,-0.0307 -0.213181,-0.0307 z"
         style="fill:none;stroke:#231f20;stroke-width:0.17639492;stroke-linecap:butt;stroke-linejoin:miter;stroke-miterlimit:4;stroke-dasharray:none;stroke-opacity:1"
         id="path839"
         inkscape:connector-curvature="0" />
      <path
         d="m 93.746611,204.27556 c 0.0338,0.17942 0.0836,0.32826 0.15201,0.45367 0.0703,0.12651 0.12983,0.20574 0.18299,0.2424 0.052,0.0359 0.13025,0.09 0.23608,0.16316 0.10569,0.0729 0.18298,0.12622 0.23604,0.16287 0.0518,0.0357 0.0787,0.0543 0.0787,0.0543 0,0 0.0765,0.0528 0.23675,0.1633 0.15846,0.10953 0.3121,0.21551 0.47198,0.32589 0.15861,0.10958 0.28688,0.19816 0.3937,0.27161 0.10445,0.0722 0.20792,0.14375 0.31475,0.21745 0.10484,0.0724 0.22736,0.11867 0.36942,0.13878 0.14126,0.0196 0.28953,0.0834 0.44814,0.19294 0.1578,0.10886 0.39991,0.20009 0.73822,0.27724 0.33789,0.0769 0.59835,0.14221 0.79195,0.19777 0.19668,0.0576 0.30858,0.0588 0.34509,0.006 0.0367,-0.0532 0.0544,-0.0788 0.0544,-0.0788 0,0 0.0109,-0.0688 0.0299,-0.21166 0.0212,-0.14179 -0.0732,-0.28304 -0.28483,-0.42912 -0.21167,-0.14609 -0.36572,-0.25259 -0.47184,-0.32576 -0.10527,-0.0726 -0.20077,-0.10061 -0.2902,-0.0842 -0.0904,0.0154 -0.18496,-0.0111 -0.29079,-0.0842 -0.10569,-0.073 -0.18299,-0.12651 -0.23604,-0.16316 -0.0538,-0.037 -0.18204,-0.12552 -0.3937,-0.27161 -0.21153,-0.14608 -0.34065,-0.23523 -0.3937,-0.27188 -0.0529,-0.0365 -0.1312,-0.0905 -0.23622,-0.16288 -0.10707,-0.074 -0.25894,-0.29327 -0.46659,-0.67113 -0.20824,-0.37796 -0.39483,-0.65923 -0.57122,-0.85919 -0.17515,-0.199 -0.29241,-0.4706 -0.35799,-0.82846 -0.0656,-0.35775 -0.0438,-0.60992 0.0656,-0.76856 0.10943,-0.15847 0.40541,-0.14538 0.90166,0.0412 0.49594,0.1862 0.86251,0.21015 1.11429,0.0717 0.2523,-0.13836 0.42827,-0.2836 0.53798,-0.44235 0.10954,-0.15875 0.1294,-0.29753 0.0599,-0.42376 -0.0693,-0.12594 -0.15476,-0.22309 -0.26046,-0.29601 -0.10583,-0.0732 -0.31556,-0.10333 -0.63651,-0.0905 -0.32121,0.0127 -0.54639,0.01 -0.69025,-0.0114 -0.14097,-0.0193 -0.53163,-0.17434 -1.18526,-0.46937 -0.65497,-0.29615 -1.13965,-0.4779 -1.47712,-0.55467 -0.33761,-0.0769 -0.63265,-0.20436 -0.896,-0.38626 -0.26458,-0.18259 -0.47115,-0.32522 -0.62976,-0.43448 -0.15971,-0.11052 -0.34079,-0.23537 -0.55246,-0.38146"
         style="fill:none;stroke:#231f20;stroke-width:0.17639492;stroke-linecap:butt;stroke-linejoin:miter;stroke-miterlimit:4;stroke-dasharray:none;stroke-opacity:1"
         id="path841"
         inkscape:connector-curvature="0" />
      <path
         d="m 89.762301,201.29268 c 0.21043,0.1451 0.48742,0.29835 0.84185,0.46479 0.35374,0.16591 0.6299,0.31834 0.8417,0.46468 0.21139,0.1458 0.36546,0.25234 0.47225,0.32603 0.1046,0.0722 0.34438,0.39028 0.72733,0.96725 0.38282,0.57672 0.68173,0.97331 0.90814,1.20812 0.22902,0.23622 0.39204,0.38696 0.49678,0.45904 0.10679,0.0737 0.23509,0.16235 0.39466,0.27259 0.15875,0.10954 0.37553,0.1827 0.66008,0.2231"
         style="fill:none;stroke:#231f20;stroke-width:0.17639492;stroke-linecap:butt;stroke-linejoin:miter;stroke-miterlimit:4;stroke-dasharray:none;stroke-opacity:1"
         id="path843"
         inkscape:connector-curvature="0" />
    </g>
  </g>
</svg>
