<?xml version="1.0" encoding="UTF-8" standalone="no"?>
<!-- Created with Inkscape (http://www.inkscape.org/) -->

<svg
   xmlns:dc="http://purl.org/dc/elements/1.1/"
   xmlns:cc="http://creativecommons.org/ns#"
   xmlns:rdf="http://www.w3.org/1999/02/22-rdf-syntax-ns#"
   xmlns:svg="http://www.w3.org/2000/svg"
   xmlns="http://www.w3.org/2000/svg"
   xmlns:sodipodi="http://sodipodi.sourceforge.net/DTD/sodipodi-0.dtd"
   xmlns:inkscape="http://www.inkscape.org/namespaces/inkscape"
   id="svg2"
   version="1.1"
   inkscape:version="0.92.4 (5da689c313, 2019-01-14)"
   width="162.8765"
   height="149.30031"
   xml:space="preserve"
   sodipodi:docname="Jumper.svg"><metadata
     id="metadata8"><rdf:RDF><cc:Work
         rdf:about=""><dc:format>image/svg+xml</dc:format><dc:type
           rdf:resource="http://purl.org/dc/dcmitype/StillImage" /><dc:title></dc:title></cc:Work></rdf:RDF></metadata><defs
     id="defs6"><marker
   inkscape:stockid="Arrow1Mend"
   orient="auto"
   refY="0"
   refX="0"
   id="marker1139"
   style="overflow:visible"
   inkscape:isstock="true"><path
     id="path1137"
     d="M 0,0 5,-5 -12.5,0 5,5 Z"
     style="fill:#000000;fill-opacity:1;fill-rule:evenodd;stroke:#000000;stroke-width:1.00000003pt;stroke-opacity:1"
     transform="matrix(-0.4,0,0,-0.4,-4,0)"
     inkscape:connector-curvature="0" /></marker><marker
   inkscape:stockid="Arrow1Mend"
   orient="auto"
   refY="0"
   refX="0"
   id="Arrow1Mend"
   style="overflow:visible"
   inkscape:isstock="true"><path
     id="path836"
     d="M 0,0 5,-5 -12.5,0 5,5 Z"
     style="fill:#000000;fill-opacity:1;fill-rule:evenodd;stroke:#000000;stroke-width:1.00000003pt;stroke-opacity:1"
     transform="matrix(-0.4,0,0,-0.4,-4,0)"
     inkscape:connector-curvature="0" /></marker><clipPath
   clipPathUnits="userSpaceOnUse"
   id="clipPath18"><path
     d="M 0,0 H 1677 V 937.891 H 0 Z"
     id="path20"
     inkscape:connector-curvature="0" /></clipPath>
</defs><sodipodi:namedview
     pagecolor="#ffffff"
     bordercolor="#666666"
     borderopacity="1"
     objecttolerance="10"
     gridtolerance="10"
     guidetolerance="10"
     inkscape:pageopacity="0"
     inkscape:pageshadow="2"
     inkscape:window-width="1920"
     inkscape:window-height="1018"
     id="namedview4"
     showgrid="false"
     fit-margin-top="2"
     fit-margin-left="2"
     fit-margin-right="2"
     fit-margin-bottom="2"
     inkscape:zoom="1"
     inkscape:cx="17.457682"
     inkscape:cy="74.372354"
     inkscape:window-x="-8"
     inkscape:window-y="-8"
     inkscape:window-maximized="1"
     inkscape:current-layer="g10" /><g
     id="g10"
     inkscape:groupmode="layer"
     inkscape:label="ink_ext_XXXXXX"
     transform="matrix(1.25,0,0,-1.25,-113.83524,33.723623)">



<path
   style="fill:none;fill-rule:evenodd;stroke:#000000;stroke-width:0.80000001px;stroke-linecap:butt;stroke-linejoin:miter;stroke-opacity:1"
   d="M 97.747032,-90.461348 H 219.36939 v 70.144994 h -36.20386"
   id="path909"
   inkscape:connector-curvature="0" /><path
   style="display:inline;fill:#4d4d4d;fill-opacity:1;fill-rule:evenodd;stroke:none;stroke-width:1.16187227;stroke-linecap:butt;stroke-linejoin:miter;stroke-miterlimit:4;stroke-dasharray:none;stroke-opacity:1"
   d="m 183.68808,-5.9660421 v -0.007 c -1.72218,-0.12943 -2.1534,-2.40461 -2.18107,-3.01343 -2.27899,-0.68369 -5.01377,-1.5952999 -4.78587,-3.1051299 0.2279,-1.50983 1.68075,-1.19645 1.93714,-1.19645 0.25638,0 1.02555,-0.0284 1.19648,-0.31338 0.17091,-0.28489 -1.93715,-4.01673 -2.13657,-4.500998 -0.1994,-0.484315 -0.56974,-1.424363 -0.31336,-1.794721 0.25639,-0.370312 4.15916,-0.313334 4.41555,-0.170935 0.25102,0.139472 1.64619,2.621045 1.94515,2.751732 0.29898,-0.130687 1.69412,-2.61226 1.94515,-2.751732 0.25638,-0.142399 4.15916,-0.199377 4.41555,0.170935 0.25638,0.370358 -0.11395,1.310406 -0.31337,1.794721 -0.1994,0.484268 -2.30747,4.216108 -2.13654,4.500998 0.17091,0.28485 0.94008,0.31338 1.19647,0.31338 0.25638,0 1.70923,-0.31338 1.93713,1.19645 0.2279,1.50983 -2.50688,2.4214399 -4.78587,3.1051299 -0.0277,0.60882 -0.45888,2.884 -2.18107,3.01343 v 0.007 c -0.0264,0 -0.0516,0 -0.0775,-0.005 -0.0259,0 -0.051,0.005 -0.0775,0.005 z"
   id="path4637-6-8"
   inkscape:connector-curvature="0" /><text
   xml:space="preserve"
   style="font-style:normal;font-variant:normal;font-weight:normal;font-stretch:normal;line-height:0%;font-family:'Times New Roman';-inkscape-font-specification:'Times New Roman, ';text-align:start;letter-spacing:0px;word-spacing:0px;text-anchor:start;fill:#000000;fill-opacity:1;stroke:none;stroke-width:0.26458332px;stroke-linecap:butt;stroke-linejoin:miter;stroke-opacity:1"
   x="186.04787"
   y="7.7042699"
   id="text823-0-5-3-3-62-5"
   transform="scale(1,-1)"><tspan
     sodipodi:role="line"
     x="186.04787"
     y="7.7042699"
     style="font-style:normal;font-size:12px;line-height:125%;text-align:start;text-anchor:start;stroke-width:0.26458332px"
     id="tspan873-7-2-0-87-9">1</tspan></text>
<path
   style="fill:none;fill-rule:evenodd;stroke:#000000;stroke-width:0.80000001;stroke-linecap:butt;stroke-linejoin:miter;stroke-miterlimit:4;stroke-dasharray:1.6, 1.6;stroke-dashoffset:0;stroke-opacity:1"
   d="m 183.16553,-20.316354 c -24.56719,36.00404 -53.68157,52.032811 -80.48157,-70.08157"
   id="path948"
   inkscape:connector-curvature="0"
   sodipodi:nodetypes="cc" /><path
   style="display:inline;fill:#4d4d4d;fill-opacity:1;fill-rule:evenodd;stroke:none;stroke-width:1.16187227;stroke-linecap:butt;stroke-linejoin:miter;stroke-miterlimit:4;stroke-dasharray:none;stroke-opacity:1"
   d="m 150.52089,19.007753 v -0.007 c -1.72218,-0.12943 -2.1534,-2.404611 -2.18107,-3.013431 -2.27899,-0.683689 -5.01377,-1.595299 -4.78587,-3.105129 0.2279,-1.50983 1.68075,-1.19645 1.93714,-1.19645 0.25638,0 1.02555,-0.0284 1.19648,-0.31338 0.17091,-0.28489 -1.93715,-4.01673 -2.13657,-4.500998 -0.1994,-0.484315 -0.56974,-1.424363 -0.31336,-1.794721 0.25639,-0.370312 4.15916,-0.313334 4.41555,-0.170935 0.25102,0.139472 1.64619,2.621045 1.94515,2.751732 0.29898,-0.130687 1.69412,-2.61226 1.94515,-2.751732 0.25638,-0.142399 4.15916,-0.199377 4.41555,0.170935 0.25638,0.370358 -0.11395,1.310406 -0.31337,1.794721 -0.1994,0.484268 -2.30747,4.216108 -2.13654,4.500998 0.17091,0.28485 0.94008,0.31338 1.19647,0.31338 0.25638,0 1.70923,-0.31338 1.93713,1.19645 0.2279,1.50983 -2.50688,2.42144 -4.78587,3.105129 -0.0277,0.60882 -0.45888,2.884001 -2.18107,3.013431 v 0.007 c -0.0264,0 -0.0516,0 -0.0775,-0.005 -0.0259,0 -0.051,0.005 -0.0775,0.005 z"
   id="path4637-6-8-6"
   inkscape:connector-curvature="0" /><text
   xml:space="preserve"
   style="font-style:normal;font-variant:normal;font-weight:normal;font-stretch:normal;font-size:12px;line-height:0%;font-family:'Times New Roman';-inkscape-font-specification:'Times New Roman, ';text-align:start;letter-spacing:0px;word-spacing:0px;text-anchor:start;fill:#000000;fill-opacity:1;stroke:none;stroke-width:0.26458332px;stroke-linecap:butt;stroke-linejoin:miter;stroke-opacity:1"
   x="152.88068"
   y="-17.269524"
   id="text823-0-5-3-3-62-5-7"
   transform="scale(1,-1)"><tspan
     sodipodi:role="line"
     x="152.88068"
     y="-17.269524"
     style="font-style:normal;font-size:12px;line-height:125%;text-align:start;text-anchor:start;stroke-width:0.26458332px"
     id="tspan873-7-2-0-87-9-0">2</tspan></text>
<path
   style="display:inline;fill:#4d4d4d;fill-opacity:1;fill-rule:evenodd;stroke:none;stroke-width:1.16187227;stroke-linecap:butt;stroke-linejoin:miter;stroke-miterlimit:4;stroke-dasharray:none;stroke-opacity:1"
   d="m 102.9209,-75.992244 v -0.007 c -1.72218,-0.12943 -2.1534,-2.404611 -2.18107,-3.013431 -2.278994,-0.683689 -5.013774,-1.595299 -4.785874,-3.105129 0.2279,-1.50983 1.68075,-1.19645 1.93714,-1.19645 0.25638,0 1.02555,-0.0284 1.19648,-0.31338 0.17091,-0.28489 -1.93715,-4.01673 -2.13657,-4.500998 -0.1994,-0.484315 -0.56974,-1.424363 -0.31336,-1.794721 0.25639,-0.370312 4.159164,-0.313334 4.415554,-0.170935 0.25102,0.139472 1.64619,2.621045 1.94515,2.751732 0.29898,-0.130687 1.69412,-2.61226 1.94515,-2.751732 0.25638,-0.142399 4.15916,-0.199377 4.41555,0.170935 0.25638,0.370358 -0.11395,1.310406 -0.31337,1.794721 -0.1994,0.484268 -2.30747,4.216108 -2.13654,4.500998 0.17091,0.28485 0.94008,0.31338 1.19647,0.31338 0.25638,0 1.70923,-0.31338 1.93713,1.19645 0.2279,1.50983 -2.50688,2.42144 -4.78587,3.105129 -0.0277,0.60882 -0.45888,2.884001 -2.18107,3.013431 v 0.007 c -0.0264,0 -0.0516,0 -0.0775,-0.005 -0.0259,0 -0.051,0.005 -0.0775,0.005 z"
   id="path4637-6-8-07"
   inkscape:connector-curvature="0" /><text
   xml:space="preserve"
   style="font-style:normal;font-variant:normal;font-weight:normal;font-stretch:normal;font-size:12px;line-height:0%;font-family:'Times New Roman';-inkscape-font-specification:'Times New Roman, ';text-align:start;letter-spacing:0px;word-spacing:0px;text-anchor:start;fill:#000000;fill-opacity:1;stroke:none;stroke-width:0.26458332px;stroke-linecap:butt;stroke-linejoin:miter;stroke-opacity:1"
   x="92.48069"
   y="77.730476"
   id="text823-0-5-3-3-62-5-9"
   transform="scale(1,-1)"><tspan
     sodipodi:role="line"
     x="92.48069"
     y="77.730476"
     style="font-style:normal;font-size:12px;line-height:125%;text-align:start;text-anchor:start;stroke-width:0.26458332px"
     id="tspan873-7-2-0-87-9-6">4</tspan></text>
<path
   style="display:inline;fill:#4d4d4d;fill-opacity:1;fill-rule:evenodd;stroke:none;stroke-width:1.16187227;stroke-linecap:butt;stroke-linejoin:miter;stroke-miterlimit:4;stroke-dasharray:none;stroke-opacity:1"
   d="m 124.48808,-5.9660408 v -0.007 c -1.72218,-0.12943 -2.1534,-2.404611 -2.18107,-3.013431 -2.27899,-0.683689 -5.01377,-1.5952992 -4.78587,-3.1051292 0.2279,-1.50983 1.68075,-1.19645 1.93714,-1.19645 0.25638,0 1.02555,-0.0284 1.19648,-0.31338 0.17091,-0.28489 -1.93715,-4.01673 -2.13657,-4.500998 -0.1994,-0.484315 -0.56974,-1.424363 -0.31336,-1.794721 0.25639,-0.370312 4.15916,-0.313334 4.41555,-0.170935 0.25102,0.139472 1.64619,2.621045 1.94515,2.751732 0.29898,-0.130687 1.69412,-2.61226 1.94515,-2.751732 0.25638,-0.142399 4.15916,-0.199377 4.41555,0.170935 0.25638,0.370358 -0.11395,1.310406 -0.31337,1.794721 -0.1994,0.484268 -2.30747,4.216108 -2.13654,4.500998 0.17091,0.28485 0.94008,0.31338 1.19647,0.31338 0.25638,0 1.70923,-0.31338 1.93713,1.19645 0.2279,1.50983 -2.50688,2.4214402 -4.78587,3.1051292 -0.0277,0.60882 -0.45888,2.884001 -2.18107,3.013431 v 0.007 c -0.0264,0 -0.0516,0 -0.0775,-0.005 -0.0259,0 -0.051,0.005 -0.0775,0.005 z"
   id="path4637-6-8-2"
   inkscape:connector-curvature="0" /><text
   xml:space="preserve"
   style="font-style:normal;font-variant:normal;font-weight:normal;font-stretch:normal;font-size:12px;line-height:0%;font-family:'Times New Roman';-inkscape-font-specification:'Times New Roman, ';text-align:start;letter-spacing:0px;word-spacing:0px;text-anchor:start;fill:#000000;fill-opacity:1;stroke:none;stroke-width:0.26458332px;stroke-linecap:butt;stroke-linejoin:miter;stroke-opacity:1"
   x="114.04784"
   y="7.7042699"
   id="text823-0-5-3-3-62-5-0"
   transform="scale(1,-1)"><tspan
     sodipodi:role="line"
     x="114.04784"
     y="7.7042699"
     style="font-style:normal;font-size:12px;line-height:125%;text-align:start;text-anchor:start;stroke-width:0.26458332px"
     id="tspan873-7-2-0-87-9-60">3</tspan></text>
</g></svg>