<?xml version="1.0" encoding="UTF-8" standalone="no"?>
<!-- Created with Inkscape (http://www.inkscape.org/) -->

<svg
   xmlns:dc="http://purl.org/dc/elements/1.1/"
   xmlns:cc="http://creativecommons.org/ns#"
   xmlns:rdf="http://www.w3.org/1999/02/22-rdf-syntax-ns#"
   xmlns:svg="http://www.w3.org/2000/svg"
   xmlns="http://www.w3.org/2000/svg"
   xmlns:sodipodi="http://sodipodi.sourceforge.net/DTD/sodipodi-0.dtd"
   xmlns:inkscape="http://www.inkscape.org/namespaces/inkscape"
   id="svg2"
   version="1.1"
   inkscape:version="0.92.4 (5da689c313, 2019-01-14)"
   width="140.82233"
   height="167.17766"
   xml:space="preserve"
   sodipodi:docname="PRACTICE.svg"><metadata
     id="metadata8"><rdf:RDF><cc:Work
         rdf:about=""><dc:format>image/svg+xml</dc:format><dc:type
           rdf:resource="http://purl.org/dc/dcmitype/StillImage" /><dc:title></dc:title></cc:Work></rdf:RDF></metadata><defs
     id="defs6"><marker
   inkscape:stockid="Arrow1Mend"
   orient="auto"
   refY="0"
   refX="0"
   id="marker1139"
   style="overflow:visible"
   inkscape:isstock="true"><path
     id="path1137"
     d="M 0,0 5,-5 -12.5,0 5,5 Z"
     style="fill:#000000;fill-opacity:1;fill-rule:evenodd;stroke:#000000;stroke-width:1.00000003pt;stroke-opacity:1"
     transform="matrix(-0.4,0,0,-0.4,-4,0)"
     inkscape:connector-curvature="0" /></marker><marker
   inkscape:stockid="Arrow1Mend"
   orient="auto"
   refY="0"
   refX="0"
   id="Arrow1Mend"
   style="overflow:visible"
   inkscape:isstock="true"><path
     id="path836"
     d="M 0,0 5,-5 -12.5,0 5,5 Z"
     style="fill:#000000;fill-opacity:1;fill-rule:evenodd;stroke:#000000;stroke-width:1.00000003pt;stroke-opacity:1"
     transform="matrix(-0.4,0,0,-0.4,-4,0)"
     inkscape:connector-curvature="0" /></marker><clipPath
   clipPathUnits="userSpaceOnUse"
   id="clipPath18"><path
     d="M 0,0 H 1677 V 937.891 H 0 Z"
     id="path20"
     inkscape:connector-curvature="0" /></clipPath><marker
   inkscape:stockid="Arrow1Mend"
   orient="auto"
   refY="0"
   refX="0"
   id="marker1139-6"
   style="overflow:visible"
   inkscape:isstock="true"><path
     id="path1137-2"
     d="M 0,0 5,-5 -12.5,0 5,5 Z"
     style="fill:#000000;fill-opacity:1;fill-rule:evenodd;stroke:#000000;stroke-width:1.00000003pt;stroke-opacity:1"
     transform="matrix(-0.4,0,0,-0.4,-4,0)"
     inkscape:connector-curvature="0" /></marker>



</defs><sodipodi:namedview
     pagecolor="#ffffff"
     bordercolor="#666666"
     borderopacity="1"
     objecttolerance="10"
     gridtolerance="10"
     guidetolerance="10"
     inkscape:pageopacity="0"
     inkscape:pageshadow="2"
     inkscape:window-width="1920"
     inkscape:window-height="1018"
     id="namedview4"
     showgrid="false"
     fit-margin-top="2"
     fit-margin-left="2"
     fit-margin-right="2"
     fit-margin-bottom="2"
     inkscape:zoom="2.0000001"
     inkscape:cx="7.2829936"
     inkscape:cy="83.089728"
     inkscape:window-x="-8"
     inkscape:window-y="-8"
     inkscape:window-maximized="1"
     inkscape:current-layer="g10" /><g
     id="g10"
     inkscape:groupmode="layer"
     inkscape:label="ink_ext_XXXXXX"
     transform="matrix(1.25,0,0,-1.25,17.56086,40.355298)">




<path
   style="fill:none;fill-rule:evenodd;stroke:#000000;stroke-width:0.80000001px;stroke-linecap:butt;stroke-linejoin:miter;stroke-opacity:1"
   d="m 52.645521,-5.5325787 33.509473,-0.094781 c 0,0 2.336094,-0.1095197 3.049313,-0.8924362 0.762502,-0.8370156 0.646891,-3.3346015 0.646891,-3.3346015 l -0.04689,-47.0114006"
   id="path4951"
   inkscape:connector-curvature="0"
   sodipodi:nodetypes="ccscc" /><rect
   style="opacity:1;fill:#e6e6e6;fill-opacity:1;stroke:#000000;stroke-width:0.42591465;stroke-miterlimit:4;stroke-dasharray:none;stroke-dashoffset:0;stroke-opacity:1"
   id="rect4216-6"
   width="15.058357"
   height="15.058357"
   x="56.844448"
   y="-96.796219"
   transform="matrix(0,-1,-1,0,0,0)" /><path
   style="fill:none;fill-rule:evenodd;stroke:#000000;stroke-width:0.80000001px;stroke-linecap:butt;stroke-linejoin:miter;stroke-opacity:1"
   d="m 77.359229,-99.857888 v 87.11556 H -6.6423235"
   id="path4293"
   inkscape:connector-curvature="0"
   sodipodi:nodetypes="cc" /><circle
   style="opacity:1;fill:none;fill-opacity:1;stroke:#000000;stroke-width:0.80000001;stroke-miterlimit:4;stroke-dasharray:none;stroke-dashoffset:0;stroke-opacity:1"
   id="path4925"
   cx="9.3482218"
   cy="-85.844505"
   r="3.9597981"
   transform="matrix(0,-1,-1,0,0,0)" /><path
   style="fill:none;fill-rule:evenodd;stroke:#000000;stroke-width:0.80000001px;stroke-linecap:butt;stroke-linejoin:miter;stroke-opacity:1"
   d="m 77.076386,-13.025178 8.768124,3.3941202"
   id="path4927"
   inkscape:connector-curvature="0" />

<text
   xml:space="preserve"
   style="font-style:normal;font-variant:normal;font-weight:normal;font-stretch:normal;line-height:0%;font-family:'Times New Roman';-inkscape-font-specification:'Times New Roman, ';text-align:start;letter-spacing:0px;word-spacing:0px;text-anchor:start;fill:#000000;fill-opacity:1;stroke:none;stroke-width:0.26458332px;stroke-linecap:butt;stroke-linejoin:miter;stroke-opacity:1"
   x="84.948914"
   y="68.219696"
   id="text823-0-5-3-3-6-1"
   transform="scale(1,-1)"><tspan
     sodipodi:role="line"
     x="84.948914"
     y="68.219696"
     style="font-style:normal;font-size:12px;line-height:125%;text-align:start;text-anchor:start;stroke-width:0.26458332px"
     id="tspan873-7-2-0-39-4">A</tspan></text>


<rect
   style="opacity:1;fill:#e6e6e6;fill-opacity:1;stroke:#000000;stroke-width:0.42591467;stroke-miterlimit:4;stroke-dasharray:none;stroke-dashoffset:0;stroke-opacity:1"
   id="rect4216-6-3"
   width="15.058357"
   height="15.058357"
   x="-30.471281"
   y="-46.886856"
   transform="matrix(0,-1,-1,0,0,0)" /><text
   xml:space="preserve"
   style="font-style:normal;font-variant:normal;font-weight:normal;font-stretch:normal;font-size:12px;line-height:0%;font-family:'Times New Roman';-inkscape-font-specification:'Times New Roman, ';text-align:start;letter-spacing:0px;word-spacing:0px;text-anchor:start;fill:#000000;fill-opacity:1;stroke:none;stroke-width:0.26458332px;stroke-linecap:butt;stroke-linejoin:miter;stroke-opacity:1"
   x="35.039547"
   y="-19.096037"
   id="text823-0-5-3-3-6-1-6"
   transform="scale(1,-1)"><tspan
     sodipodi:role="line"
     x="35.039547"
     y="-19.096037"
     style="font-style:normal;font-size:12px;line-height:125%;text-align:start;text-anchor:start;stroke-width:0.26458332px"
     id="tspan873-7-2-0-39-4-2">C</tspan></text>
<rect
   style="opacity:1;fill:#e6e6e6;fill-opacity:1;stroke:#000000;stroke-width:0.75598997;stroke-miterlimit:4;stroke-dasharray:none;stroke-dashoffset:0;stroke-opacity:1"
   id="rect4216-6-35"
   width="26.728281"
   height="26.728281"
   x="-14.706243"
   y="-52.721813"
   transform="matrix(0,-1,-1,0,0,0)" /><text
   xml:space="preserve"
   style="font-style:normal;font-variant:normal;font-weight:normal;font-stretch:normal;font-size:12px;line-height:0%;font-family:'Times New Roman';-inkscape-font-specification:'Times New Roman, ';text-align:start;letter-spacing:0px;word-spacing:0px;text-anchor:start;fill:#000000;fill-opacity:1;stroke:none;stroke-width:0.26458332px;stroke-linecap:butt;stroke-linejoin:miter;stroke-opacity:1"
   x="35.039547"
   y="2.5039663"
   id="text823-0-5-3-3-6-1-61"
   transform="scale(1,-1)"><tspan
     sodipodi:role="line"
     x="35.039547"
     y="2.5039663"
     style="font-style:normal;font-size:12px;line-height:125%;text-align:start;text-anchor:start;stroke-width:0.26458332px"
     id="tspan873-7-2-0-39-4-27">B</tspan></text>
<path
   style="fill:none;fill-rule:evenodd;stroke:#000000;stroke-width:0.80000001px;stroke-linecap:butt;stroke-linejoin:miter;stroke-opacity:1"
   d="M 25.757675,2.5421042 H 6.1576762"
   id="path905"
   inkscape:connector-curvature="0" /><path
   inkscape:connector-curvature="0"
   id="path835"
   style="fill:none;stroke:#231f20;stroke-width:0.53335154;stroke-linecap:butt;stroke-linejoin:miter;stroke-miterlimit:4;stroke-dasharray:none;stroke-opacity:1"
   d="m 15.201058,-3.7003438 c 0.638286,-0.440844 1.005868,-0.578329 1.11626,-0.418349 0.110363,0.159949 0.197443,0.44544 0.254892,0.877878 0.0641,0.428357 -0.139994,0.800837 -0.624106,1.134615 -0.474588,0.327881 -1.131742,0.549966 -1.99296,0.672544 -0.861249,0.121247 -1.645878,0.316996 -2.395858,0.599131 -0.749102,0.280894 -1.5887008,0.744537 -2.5453748,1.405017 -0.962449,0.664531 -1.506248,1.040004 -1.666681,1.150396 -0.159647,0.11006 -0.54912,0.379193 -1.189554,0.821216" /><path
   inkscape:connector-curvature="0"
   id="path837"
   style="fill:none;stroke:#231f20;stroke-width:0.53335154;stroke-linecap:butt;stroke-linejoin:miter;stroke-miterlimit:4;stroke-dasharray:none;stroke-opacity:1"
   d="m 13.47977,-1.1057748 c 0.220724,0.319991 0.01814,0.6912 -0.622504,1.133345 -0.639556,0.44169 -1.084149,0.632511 -1.354975,0.583347 -0.273033,-0.04838 -0.402021,-0.07378 -0.402021,-0.07378 0,0 -0.132737,-0.02419 -0.402988,-0.07408 -0.272126,-0.04778 -0.8466138,0.118224 -1.7558468,0.509541 -0.911683,0.39295 -1.667831,0.799264 -2.30784,1.241711" /><path
   inkscape:connector-curvature="0"
   id="path839"
   style="fill:none;stroke:#231f20;stroke-width:0.53335154;stroke-linecap:butt;stroke-linejoin:miter;stroke-miterlimit:4;stroke-dasharray:none;stroke-opacity:1"
   d="m 7.8985572,11.182981 c 0,0 -0.02419,0.130319 -0.06924,0.399995 -0.0505,0.270917 -0.04566,0.613342 0.0121,1.044571 0.0638,0.428387 0.09071,0.640857 0.09071,0.640857 0,0 0.135156,0.02116 0.402111,0.07317 0.272127,0.04838 0.53751,0.09615 0.808335,0.145436 0.26759,0.0508 0.480423,0.02117 0.636684,-0.08708 0.160857,-0.111572 0.2421918,-0.167207 0.2421918,-0.167207 0,0 0.02419,-0.133039 0.07287,-0.402989 0.04717,-0.267892 0.01814,-0.480423 -0.09101,-0.640432 -0.1100598,-0.159648 -0.1941168,-0.44789 -0.2545888,-0.878726 -0.0641,-0.42751 -0.09071,-0.639979 -0.09071,-0.639979 0,0 -0.08164,0.05624 -0.237959,0.164182 -0.160554,0.110363 -0.447888,0.194117 -0.877878,0.254891 -0.430836,0.06047 -0.644576,0.09283 -0.644576,0.09283 z" /><path
   inkscape:connector-curvature="0"
   id="path841"
   style="fill:none;stroke:#231f20;stroke-width:0.53335154;stroke-linecap:butt;stroke-linejoin:miter;stroke-miterlimit:4;stroke-dasharray:none;stroke-opacity:1"
   d="m -0.2502558,3.4504922 c 0.102199,-0.542499 0.252775,-0.992535 0.459621,-1.371728 0.212561,-0.382518 0.392557,-0.62208 0.553293,-0.732925 0.157228,-0.108548 0.393826,-0.272127 0.713817,-0.493335 0.319566,-0.220421 0.553262,-0.381641 0.713695,-0.492457 0.156624,-0.107943 0.237959,-0.164183 0.237959,-0.164183 0,0 0.231307,-0.159647 0.715842,-0.493757 0.479124,-0.331177 0.943673,-0.651621 1.42709,-0.985368 0.479577,-0.331329 0.867417,-0.599161 1.1904,-0.821246 0.315817,-0.218305 0.628671,-0.434646 0.951685,-0.657487 0.316997,-0.21891 0.687451,-0.358813 1.116986,-0.419618 0.427117,-0.05926 0.87543,-0.25217 1.355007,-0.583378 0.477127,-0.329151 1.2091758,-0.604996 2.2320978,-0.838269 1.021651,-0.232517 1.809184,-0.429989 2.394557,-0.597981 0.594686,-0.174161 0.933029,-0.177789 1.043422,-0.01814 0.110966,0.160856 0.164485,0.238261 0.164485,0.238261 0,0 0.03296,0.208025 0.09041,0.639979 0.0641,0.42872 -0.221329,0.855807 -0.861218,1.297497 -0.640011,0.441721 -1.105799,0.763737 -1.426666,0.984975 -0.318297,0.219516 -0.607053,0.304207 -0.877455,0.254589 -0.273336,-0.04656 -0.55925,0.03356 -0.879239,0.25459 -0.319567,0.220724 -0.553293,0.382518 -0.713696,0.493333 -0.162671,0.111875 -0.5504198,0.379526 -1.1903998,0.821247 -0.639586,0.44169 -1.029997,0.711246 -1.1904,0.822062 -0.15995,0.110363 -0.396699,0.273638 -0.71424,0.492487 -0.323739,0.223748 -0.782937,0.886738 -1.410792,2.029244 -0.629638,1.142808 -1.193816,1.993263 -1.727153,2.597866 -0.529588,0.601701 -0.884137,1.422917 -1.082426,2.50495 -0.19835,1.0817 -0.132435,1.8441678 0.198349,2.3238348 0.330875,0.479153 1.225807,0.439574 2.726279,-0.124573 1.499535,-0.5629978 2.607905,-0.6354138 3.369192,-0.216794 0.7628598,0.418348 1.2949268,0.857499 1.6266478,1.337499 0.331208,0.48 0.391256,0.899618 0.181115,1.28129 -0.209537,0.380798 -0.467935,0.674543 -0.787533,0.895025 -0.31999,0.221329 -0.9541338,0.312431 -1.9245648,0.273638 -0.971218,-0.0384 -1.652077,-0.03024 -2.087056,0.03447 -0.42624,0.05836 -1.607448,0.527138 -3.583777,1.419198 -1.980383,0.895445 -3.445871,1.444989 -4.466253,1.677112 -1.020806,0.232517 -1.912894,0.617907 -2.709166,1.167904 -0.79999,0.552083 -1.424579,0.983343 -1.904156,1.313704 -0.482903,0.33417 -1.03042,0.71167 -1.67043,1.153391" /><path
   inkscape:connector-curvature="0"
   id="path843"
   style="fill:none;stroke:#231f20;stroke-width:0.53335154;stroke-linecap:butt;stroke-linejoin:miter;stroke-miterlimit:4;stroke-dasharray:none;stroke-opacity:1"
   d="m -12.297304,12.469593 c 0.636261,-0.438728 1.473774,-0.902097 2.5454372,-1.405349 1.069576,-0.501649 1.904579,-0.96254 2.544982,-1.4050168 0.639164,-0.440844 1.105013,-0.762981 1.427906,-0.985791 0.316271,-0.218306 1.041275,-1.18006 2.199171,-2.924599 1.157503,-1.743783 2.061294,-2.942921 2.745872,-3.652898 0.69247,-0.71424 1.185381,-1.170021 1.502075,-1.387963 0.322893,-0.222841 0.710824,-0.490886 1.193303,-0.82421 0.48,-0.331207 1.135461,-0.552415 1.995833,-0.67457" /></g></svg>