<?xml version="1.0" encoding="UTF-8" standalone="no"?>
<!-- Created with Inkscape (http://www.inkscape.org/) -->

<svg
   xmlns:dc="http://purl.org/dc/elements/1.1/"
   xmlns:cc="http://creativecommons.org/ns#"
   xmlns:rdf="http://www.w3.org/1999/02/22-rdf-syntax-ns#"
   xmlns:svg="http://www.w3.org/2000/svg"
   xmlns="http://www.w3.org/2000/svg"
   xmlns:sodipodi="http://sodipodi.sourceforge.net/DTD/sodipodi-0.dtd"
   xmlns:inkscape="http://www.inkscape.org/namespaces/inkscape"
   width="79.043442mm"
   height="22.309616mm"
   viewBox="0 0 79.043442 22.309616"
   version="1.1"
   id="svg8"
   inkscape:version="0.92.4 (5da689c313, 2019-01-14)"
   sodipodi:docname="drawing2.svg">
  <defs
     id="defs2">
    <clipPath
       id="clipPath927"
       clipPathUnits="userSpaceOnUse">
      <path
         inkscape:connector-curvature="0"
         id="path925"
         d="M 0,0 H 2240.89 V 646 H 0 Z" />
    </clipPath>
    <clipPath
       id="clipPath991"
       clipPathUnits="userSpaceOnUse">
      <path
         inkscape:connector-curvature="0"
         id="path989"
         d="M 1359.32,0 H 74.9609 V 71.9922 H 1359.32 Z" />
    </clipPath>
    <linearGradient
       id="linearGradient997"
       spreadMethod="pad"
       gradientTransform="matrix(-3.1e-6,71.006,71.006,3.1e-6,717.173,0.995941)"
       gradientUnits="userSpaceOnUse"
       y2="0"
       x2="1"
       y1="0"
       x1="0">
      <stop
         id="stop993"
         offset="0"
         style="stop-opacity:1;stop-color:#ffffff" />
      <stop
         id="stop995"
         offset="1"
         style="stop-opacity:1;stop-color:#a8a6a7" />
    </linearGradient>
    <clipPath
       id="clipPath1007"
       clipPathUnits="userSpaceOnUse">
      <path
         inkscape:connector-curvature="0"
         id="path1005"
         d="M 0,0 H 2240.89 V 646 H 0 Z" />
    </clipPath>
  </defs>
  <sodipodi:namedview
     id="base"
     pagecolor="#ffffff"
     bordercolor="#666666"
     borderopacity="1.0"
     inkscape:pageopacity="0.0"
     inkscape:pageshadow="2"
     inkscape:zoom="0.98994949"
     inkscape:cx="-75.267862"
     inkscape:cy="62.159912"
     inkscape:document-units="mm"
     inkscape:current-layer="layer1"
     showgrid="false"
     fit-margin-top="0"
     fit-margin-left="0"
     fit-margin-right="0"
     fit-margin-bottom="0"
     inkscape:window-width="1920"
     inkscape:window-height="1018"
     inkscape:window-x="-8"
     inkscape:window-y="-8"
     inkscape:window-maximized="1" />
  <metadata
     id="metadata5">
    <rdf:RDF>
      <cc:Work
         rdf:about="">
        <dc:format>image/svg+xml</dc:format>
        <dc:type
           rdf:resource="http://purl.org/dc/dcmitype/StillImage" />
        <dc:title></dc:title>
      </cc:Work>
    </rdf:RDF>
  </metadata>
  <g
     inkscape:label="Layer 1"
     inkscape:groupmode="layer"
     id="layer1"
     transform="translate(-61.775898,-142.97019)">
    <g
       transform="matrix(0.35277777,0,0,-0.35277777,61.775898,165.27981)"
       inkscape:label="ink_ext_XXXXXX"
       id="g917">
      <g
         transform="scale(0.1)"
         id="g919">
        <g
           id="g921">
          <g
             clip-path="url(#clipPath927)"
             id="g923">
            <path
               inkscape:connector-curvature="0"
               id="path929"
               style="fill:none;stroke:#231f20;stroke-width:5.00017023;stroke-linecap:butt;stroke-linejoin:miter;stroke-miterlimit:4;stroke-dasharray:none;stroke-opacity:1"
               d="m 259.215,137.508 c 5.984,-4.129 9.43,-5.418 10.465,-3.918 1.035,1.5 1.851,4.172 2.39,8.23 0.602,4.016 -1.312,7.504 -5.851,10.637 -4.449,3.074 -10.61,5.156 -18.684,6.301 -8.074,1.14 -15.43,2.976 -22.461,5.621 -7.023,2.633 -14.894,6.976 -23.863,13.172 -9.023,6.226 -14.121,9.75 -15.625,10.785 -1.496,1.027 -5.148,3.555 -11.152,7.699" />
            <path
               inkscape:connector-curvature="0"
               id="path931"
               style="fill:none;stroke:#231f20;stroke-width:5.00017023;stroke-linecap:butt;stroke-linejoin:miter;stroke-miterlimit:4;stroke-dasharray:none;stroke-opacity:1"
               d="m 243.078,161.836 c 2.07,3 0.172,6.48 -5.836,10.625 -5.996,4.141 -10.164,5.926 -12.703,5.469 -2.559,-0.453 -3.769,-0.696 -3.769,-0.696 0,0 -1.243,-0.222 -3.778,-0.691 -2.551,-0.449 -7.937,1.109 -16.461,4.773 -8.547,3.688 -15.636,7.497 -21.636,11.645" />
            <path
               inkscape:connector-curvature="0"
               id="path933"
               style="fill:none;stroke:#231f20;stroke-width:5.00017023;stroke-linecap:butt;stroke-linejoin:miter;stroke-miterlimit:4;stroke-dasharray:none;stroke-opacity:1"
               d="m 190.754,277.039 c 0,0 -0.215,1.227 -0.649,3.75 -0.472,2.539 -0.429,5.754 0.122,9.797 0.597,4.012 0.851,6.008 0.851,6.008 0,0 1.266,0.207 3.77,0.687 2.55,0.453 5.039,0.903 7.578,1.36 2.508,0.48 4.504,0.199 5.969,-0.813 1.507,-1.047 2.269,-1.57 2.269,-1.57 0,0 0.223,-1.242 0.684,-3.774 0.441,-2.515 0.183,-4.507 -0.852,-6.004 -1.031,-1.496 -1.82,-4.199 -2.387,-8.238 -0.601,-4.008 -0.851,-6 -0.851,-6 0,0 -0.766,0.528 -2.231,1.535 -1.504,1.036 -4.199,1.825 -8.23,2.395 -4.039,0.566 -6.043,0.867 -6.043,0.867 z" />
            <path
               inkscape:connector-curvature="0"
               id="path935"
               style="fill:none;stroke:#231f20;stroke-width:5.00017023;stroke-linecap:butt;stroke-linejoin:miter;stroke-miterlimit:4;stroke-dasharray:none;stroke-opacity:1"
               d="m 114.359,204.551 c 0.957,-5.086 2.371,-9.309 4.309,-12.863 1.992,-3.583 3.68,-5.829 5.187,-6.868 1.473,-1.019 3.692,-2.55 6.692,-4.625 2.996,-2.066 5.187,-3.578 6.691,-4.621 1.469,-1.008 2.231,-1.535 2.231,-1.535 0,0 2.168,-1.496 6.711,-4.629 4.492,-3.105 8.847,-6.109 13.379,-9.238 4.496,-3.106 8.132,-5.617 11.16,-7.703 2.961,-2.043 5.894,-4.071 8.922,-6.16 2.972,-2.051 6.445,-3.364 10.472,-3.938 4.004,-0.551 8.207,-2.363 12.703,-5.469 4.473,-3.086 11.336,-5.668 20.926,-7.855 9.578,-2.184 16.961,-4.031 22.449,-5.606 5.575,-1.636 8.747,-1.668 9.782,-0.171 1.039,1.511 1.543,2.238 1.543,2.238 0,0 0.308,1.949 0.847,6 0.602,4.019 -2.074,8.023 -8.074,12.164 -6,4.141 -10.367,7.156 -13.375,9.234 -2.984,2.059 -5.691,2.852 -8.226,2.387 -2.563,-0.441 -5.243,0.316 -8.243,2.387 -2.996,2.07 -5.187,3.586 -6.691,4.625 -1.524,1.05 -5.16,3.558 -11.16,7.699 -5.996,4.141 -9.656,6.668 -11.16,7.707 -1.5,1.035 -3.719,2.566 -6.696,4.617 -3.035,2.098 -7.34,8.313 -13.226,19.024 -5.903,10.714 -11.192,18.687 -16.192,24.355 -4.965,5.641 -8.289,13.34 -10.148,23.481 -1.859,10.144 -1.242,17.292 1.859,21.789 3.102,4.492 11.492,4.121 25.559,-1.168 14.058,-5.278 24.449,-5.957 31.586,-2.032 7.152,3.922 12.14,8.039 15.25,12.539 3.105,4.497 3.668,8.434 1.699,12.012 -1.965,3.57 -4.387,6.324 -7.383,8.391 -3,2.074 -8.945,2.929 -18.043,2.566 -9.105,-0.359 -15.488,-0.273 -19.566,0.324 -3.996,0.547 -15.07,4.942 -33.598,13.305 -18.566,8.395 -32.305,13.547 -41.871,15.723 -9.5702,2.176 -17.9335,5.789 -25.3984,10.949 -7.5,5.172 -13.3554,9.215 -17.8515,12.316 -4.5274,3.129 -9.6602,6.672 -15.6602,10.813" />
            <path
               inkscape:connector-curvature="0"
               id="path937"
               style="fill:none;stroke:#231f20;stroke-width:5.00017023;stroke-linecap:butt;stroke-linejoin:miter;stroke-miterlimit:4;stroke-dasharray:none;stroke-opacity:1"
               d="m 1.41797,289.105 c 5.96484,-4.117 13.81643,-8.457 23.86333,-13.179 10.0273,-4.699 17.8554,-9.024 23.8593,-13.168 5.9922,-4.137 10.3594,-7.153 13.3867,-9.242 2.9649,-2.047 9.7618,-11.067 20.6172,-27.418 10.8516,-16.348 19.3245,-27.59 25.7425,-34.246 6.492,-6.696 11.113,-10.969 14.082,-13.012 3.027,-2.094 6.664,-4.602 11.187,-7.727 4.5,-3.105 10.645,-5.179 18.711,-6.324" />
            <path
               inkscape:connector-curvature="0"
               id="path939"
               style="fill:#ffffff;fill-opacity:1;fill-rule:nonzero;stroke:none"
               d="m 261.156,229.492 h 450 v 160 h -450 z" />
            <path
               inkscape:connector-curvature="0"
               id="path941"
               style="fill:none;stroke:#231f20;stroke-width:7.5;stroke-linecap:butt;stroke-linejoin:miter;stroke-miterlimit:4;stroke-dasharray:none;stroke-opacity:1"
               d="m 261.156,229.492 h 450 v 160 h -450 z" />
            <path
               inkscape:connector-curvature="0"
               id="path943"
               style="fill:#ffffff;fill-opacity:1;fill-rule:nonzero;stroke:none"
               d="m 261.156,69.4922 h 450 v 160 h -450 z" />
            <path
               inkscape:connector-curvature="0"
               id="path945"
               style="fill:none;stroke:#231f20;stroke-width:7.5;stroke-linecap:butt;stroke-linejoin:miter;stroke-miterlimit:4;stroke-dasharray:none;stroke-opacity:1"
               d="m 261.156,69.4922 h 450 v 160 h -450 z" />
            <path
               inkscape:connector-curvature="0"
               id="path947"
               style="fill:#ffffff;fill-opacity:1;fill-rule:nonzero;stroke:none"
               d="m 711.156,69.4922 h 450.004 v 160 H 711.156 Z" />
            <path
               inkscape:connector-curvature="0"
               id="path949"
               style="fill:none;stroke:#231f20;stroke-width:7.5;stroke-linecap:butt;stroke-linejoin:miter;stroke-miterlimit:4;stroke-dasharray:none;stroke-opacity:1"
               d="m 711.156,69.4922 h 450.004 v 160 H 711.156 Z" />
            <path
               inkscape:connector-curvature="0"
               id="path951"
               style="fill:none;stroke:#231f20;stroke-width:5.00009012;stroke-linecap:butt;stroke-linejoin:miter;stroke-miterlimit:10;stroke-dasharray:none;stroke-opacity:1"
               d="m 1361.05,168.969 c -224.9,-235.1878 23.38,130.765 -168.69,-70.0862" />
            <path
               inkscape:connector-curvature="0"
               id="path953"
               style="fill:none;stroke:#231f20;stroke-width:5.00009012;stroke-linecap:butt;stroke-linejoin:miter;stroke-miterlimit:10;stroke-dasharray:none;stroke-opacity:1"
               d="m 1361.05,168.969 c -224.9,-235.1878 23.38,130.765 -168.69,-70.0862" />
            <path
               inkscape:connector-curvature="0"
               id="path955"
               style="fill:#231f20;fill-opacity:1;fill-rule:nonzero;stroke:none"
               d="m 1184.89,83.9961 c 7.56,4.1602 12.98,6.3984 19.52,9.3047 l -18.09,17.5942 c -0.83,-2.446 -4.8,-12.0591 -8.79,-19.7192 -4.27,-8.1953 -8.54,-15.2461 -11.71,-19.3516 4.1,3.2227 11.01,7.7383 19.07,12.1719" />
            <g
               transform="scale(10)"
               id="g957">
              <text
                 id="text965"
                 style="font-variant:normal;font-weight:normal;font-size:10px;font-family:'Times New Roman';-inkscape-font-specification:TimesNewRomanPSMT;writing-mode:lr-tb;fill:#231f20;fill-opacity:1;fill-rule:nonzero;stroke:none"
                 transform="matrix(1,0,0,-1,45.0621,43.1078)">
                <tspan
                   id="tspan959"
                   y="0"
                   x="0">A</tspan>
                <tspan
                   id="tspan961"
                   y="16.000799"
                   x="45.2188">B</tspan>
                <tspan
                   id="tspan963"
                   sodipodi:role="line"
                   y="-13.1887"
                   x="47.569191 54.789188 59.229191 64.229187 69.229187 71.729187 76.729187 81.729187 85.619186 90.619186 95.059189 98.949188 101.44919 108.66919 111.44919 114.22919">Hand pushes with</tspan>
              </text>
              <text
                 id="text969"
                 style="font-style:italic;font-variant:normal;font-size:10px;font-family:'Times New Roman';-inkscape-font-specification:TimesNewRomanPS-ItalicMT;writing-mode:lr-tb;fill:#231f20;fill-opacity:1;fill-rule:nonzero;stroke:none"
                 transform="matrix(1,0,0,-1,77.96569,44.2965)">
                <tspan
                   id="tspan967"
                   sodipodi:role="line"
                   y="0"
                   x="0 3.8900001 8.8900003 16.110001 20.549999 23.049999 25.828804 30.828804 34.348686 38.7883 43.229275">same force</tspan>
              </text>
              <text
                 id="text975"
                 style="font-variant:normal;font-weight:normal;font-size:10px;font-family:'Times New Roman';-inkscape-font-specification:TimesNewRomanPSMT;writing-mode:lr-tb;fill:#231f20;fill-opacity:1;fill-rule:nonzero;stroke:none"
                 transform="matrix(1,0,0,-1,123.69422,44.2965)">
                <tspan
                   id="tspan973"
                   sodipodi:role="line"
                   y="22.0406"
                   x="12.832 19.502001 24.502001 28.941999 32.091335 35.419884 38.199883 42.639885 45.419884 49.859882 54.859882 57.639885 60.139885 65.139885 68.469887 70.969887 74.299881 77.629883 80.409882 84.849884 87.629883 90.409882 95.409882">Coefficient of friction</tspan>
              </text>
              <text
                 id="text979"
                 style="font-style:italic;font-variant:normal;font-size:10px;font-family:'Times New Roman';-inkscape-font-specification:TimesNewRomanPS-ItalicMT;writing-mode:lr-tb;fill:#231f20;fill-opacity:1;fill-rule:nonzero;stroke:none"
                 transform="matrix(1,0,0,-1,139.202,10.2559)">
                <tspan
                   id="tspan977"
                   sodipodi:role="line"
                   y="0"
                   x="0 2.78 7.2199998 11.11 15 17.5 20.280001 25.280001 30.280001 35.279999">less than</tspan>
              </text>
            </g>
          </g>
        </g>
        <g
           id="g985">
          <g
             clip-path="url(#clipPath991)"
             id="g987">
            <path
               inkscape:connector-curvature="0"
               id="path999"
               style="fill:url(#linearGradient997);fill-opacity:1;fill-rule:nonzero;stroke:none"
               d="m 74.9609,0 h 1284.36 V 71.9922 H 74.9609 Z" />
          </g>
        </g>
        <g
           id="g1001">
          <g
             clip-path="url(#clipPath1007)"
             id="g1003">
            <path
               inkscape:connector-curvature="0"
               id="path1009"
               style="fill:none;stroke:#231f20;stroke-width:5;stroke-linecap:butt;stroke-linejoin:miter;stroke-miterlimit:10;stroke-dasharray:none;stroke-opacity:1"
               d="M 74.9609,71.9922 H 1359.32" />
          </g>
        </g>
      </g>
    </g>
  </g>
</svg>
